{
.formatVersion = 3;
axes = (
{
name = Weight;
tag = wght;
}
);
classes = (
{
code = "A Aacute Abreve Acircumflex Adieresis Agrave Amacron Aogonek Aring Atilde AE B C C.ss01 Cacute Ccaron Ccedilla Cdotaccent D Eth Dcaron Dcroat E Eacute Ecaron Ecircumflex Edieresis Edotaccent Egrave Emacron Eogonek F G Gbreve Gcommaaccent Gdotaccent H Hbar I Iacute Icircumflex Idieresis Idotaccent Igrave Imacron Iogonek J K Kcommaaccent L Lacute Lcaron Lcommaaccent Lslash M N Nacute Ncaron Ncommaaccent Eng Ntilde O Oacute Ocircumflex Odieresis Ograve Ohungarumlaut Omacron Oslash Otilde OE P Thorn Q Q.ss01 Q.ss02 R Racute Rcaron Rcommaaccent S Sacute Scaron Scedilla Scommaaccent Germandbls T Tbar Tcaron Tcedilla Tcommaaccent U Uacute Ucircumflex Udieresis Ugrave Uhungarumlaut Umacron Uogonek Uring V W Wacute Wcircumflex Wdieresis Wgrave X Y Yacute Ycircumflex Ydieresis Ygrave Z Zacute Zcaron Zdotaccent";
name = Uppercase;
}
);
familyName = "League Spartan";
customParameters = (
{
name = glyphOrder;
value = (
A,
Aacute,
Abreve,
Abreveacute,
Abrevedotbelow,
Abrevegrave,
Abrevehookabove,
Abrevetilde,
Acircumflex,
Acircumflexacute,
Acircumflexdotbelow,
Acircumflexgrave,
Acircumflexhookabove,
Acircumflextilde,
Adblgrave,
Adieresis,
Adotbelow,
Agrave,
Ahookabove,
Ainvertedbreve,
Amacron,
Aogonek,
Aring,
Aringacute,
Atilde,
AE,
AEacute,
B,
C,
C.ss01,
Cacute,
Cacute.ss01,
Ccaron,
Ccaron.ss01,
Ccedilla,
Ccedilla.ss01,
Ccircumflex,
Ccircumflex.ss01,
Cdotaccent,
Cdotaccent.ss01,
D,
DZcaron,
Eth,
Dcaron,
Dcroat,
Dzcaron,
E,
Eacute,
Ebreve,
Ecaron,
Ecircumflex,
Ecircumflexacute,
Ecircumflexdotbelow,
Ecircumflexgrave,
Ecircumflexhookabove,
Ecircumflextilde,
Edblgrave,
Edieresis,
Edotaccent,
Edotbelow,
Egrave,
Ehookabove,
Einvertedbreve,
Emacron,
Eogonek,
Etilde,
F,
G,
Gbreve,
Gcaron,
Gcircumflex,
Gcommaaccent,
Gdotaccent,
H,
Hbar,
Hcircumflex,
I,
Iacute,
Ibreve,
Icircumflex,
Idblgrave,
Idieresis,
Idotaccent,
Idotbelow,
Igrave,
Ihookabove,
Iinvertedbreve,
Imacron,
Iogonek,
Itilde,
J,
Jcircumflex,

glyphs = (
{
glyphname = A;
layers = (
{
anchors = (
{
name = bottom;
position = "{599, 0}";
},
{
name = ogonek;
position = "{1040, 16}";
},
{
name = top;
position = "{599, 1320}";
}
);
layerId = "F9C94342-283B-4575-A5D9-94B9950185BC";
shapes = (
{
closed = 1;
nodes = (
(20,0,l),
(203,0,l),
(319,318,l),
(879,318,l),
(993,0,l),
(1176,0,l),
(688,1320,l),
(510,1320,l)
);
},
{
closed = 1;
nodes = (
(598,1110,l),
(601,1110,l),
(825,472,l),
(374,472,l)
);
}
);
width = 1208;
},
{
anchors = (
{
name = bottom;
position = "{702, 0}";
},
{
name = ogonek;
position = "{1245, 16}";
},
{
name = top;
position = "{702, 1320}";
}
);
layerId = "542E67F7-1B71-4779-8BF1-78BC1C9E1EC0";
shapes = (
{
closed = 1;
nodes = (
(-32,0,l),
(382,0,l),
(467,229,l),
(938,229,l),
(1022,0,l),
(1435,0,l),
(891,1320,l),
(512,1320,l)
);
},
{
closed = 1;
nodes = (
(701,856,l),
(704,856,l),
(808,565,l),
(597,565,l)
);
}
);
width = 1451;
},
{
anchors = (
{
name = bottom;
position = "{547, 0}";
},
{
name = ogonek;
position = "{938, 16}";
},
{
name = top;
position = "{547, 1320}";
}
);
layerId = "CD238245-2B83-4CD3-AFC6-0F2793207444";
shapes = (
{
closed = 1;
nodes = (
(46,0,l),
(114,0,l),
(245,362,l),
(850,362,l),
(979,0,l),
(1046,0,l),
(586,1320,l),
(509,1320,l)
);
},
{
closed = 1;
nodes = (
(546,1237,l),
(549,1237,l),
(834,426,l),
(262,426,l)
);
}
);
width = 1086;
}
);
leftKerningGroup = A;
rightKerningGroup = A;
unicode = 65;
},
{
glyphname = AE;
layers = (
{
anchors = (
{
name = bottom;
position = "{1144, 0}";
},
{
name = ogonek;
position = "{1537, 16}";
},
{
name = top;
position = "{1181, 1320}";
},
{
name = topleft;
position = "{722, 1320}";
}
);
layerId = "F9C94342-283B-4575-A5D9-94B9950185BC";
shapes = (
{
closed = 1;
nodes = (
(7,0,l),
(192,0,l),
(368,318,l),
(904,318,l),
(923,1320,l),
(737,1320,l)
);
},
{
closed = 1;
nodes = (
(806,1111,l),
(809,1100,l),
(809,456,l),
(435,456,l)
);
},
{
alignment = -1;
pos = (686,0);
ref = E;
}
);
width = 1656;
},
{
layerId = "542E67F7-1B71-4779-8BF1-78BC1C9E1EC0";
shapes = (
{
closed = 1;
nodes = (
(-34,0,l),
(387,0,l),
(501,229,l),
(978,229,l),
(1064,1320,l),
(664,1320,l)
);
},
{
closed = 1;
nodes = (
(798,802,l),
(802,802,l),
(802,517,l),
(645,517,l)
);
},
{
alignment = -1;
pos = (717,0);
ref = E;
}
);
width = 1763;
},
{
layerId = "CD238245-2B83-4CD3-AFC6-0F2793207444";
shapes = (
{
closed = 1;
nodes = (
(27,0,l),
(94,0,l),
(301,362,l),
(867,362,l),
(853,1320,l),
(774,1320,l)
);
},
{
closed = 1;
nodes = (
(810,1266,l),
(813,1250,l),
(813,426,l),
(330,426,l)
);
},
{
alignment = -1;
pos = (670,0);
ref = E;
}
);
width = 1603;
}
);
leftKerningGroup = A;
rightKerningGroup = E;
unicode = 198;
},
{
glyphname = B;
layers = (
{
anchors = (
{
name = bottom;
position = "{508, 0}";
},
{
name = top;
position = "{508, 1320}";
}
);
layerId = "F9C94342-283B-4575-A5D9-94B9950185BC";
shapes = (
{
closed = 1;
nodes = (
(110,0,l),
(552,0,ls),
(825,0,o),
(956,154,o),
(956,371,cs),
(956,584,o),
(787,681,o),
(685,691,c),
(778,706,o),
(893,834,o),
(893,1001,cs),
(893,1246,o),
(693,1320,o),
(477,1320,cs),
(110,1320,l)
);
},
{
closed = 1;
nodes = (
(280,604,l),
(521,604,ls),
(687,604,o),
(778,513,o),
(778,379,cs),
(778,256,o),
(725,143,o),
(535,143,cs),
(280,143,l)
);
},
{
closed = 1;
nodes = (
(280,1177,l),
(475,1177,ls),
(625,1177,o),
(723,1125,o),
(723,972,cs),
(723,860,o),
(652,744,o),
(501,744,cs),
(280,744,l)
);
}
);
width = 1065;
},
{
anchors = (
{
name = bottom;
position = "{541, 0}";
},
{
name = top;
position = "{541, 1320}";
}
);
layerId = "542E67F7-1B71-4779-8BF1-78BC1C9E1EC0";
shapes = (
{
closed = 1;
nodes = (
(78,0,l),
(629,0,ls),
(902,0,o),
(1070,152,o),
(1070,378,cs),
(1070,589,o),
(960,688,o),
(806,710,c),
(931,742,o),
(1021,843,o),
(1021,994,cs),
(1021,1229,o),
(822,1320,o),
(590,1320,cs),
(78,1320,l)
);
},
{
closed = 1;
nodes = (
(466,525,l),
(520,525,ls),
(606,525,o),
(661,506,o),
(661,418,cs),
(661,330,o),
(606,306,o),
(520,306,cs),
(466,306,l)
);
},
{
closed = 1;
nodes = (
(466,1014,l),
(518,1014,ls),
(592,1014,o),
(637,1000,o),
(637,923,cs),
(637,846,o),
(592,824,o),
(518,824,cs),
(466,824,l)
);
}
);
width = 1154;
},
{
anchors = (
{
name = bottom;
position = "{491, 0}";
},
{
name = top;
position = "{491, 1320}";
}
);
layerId = "CD238245-2B83-4CD3-AFC6-0F2793207444";
shapes = (
{
closed = 1;
nodes = (
(126,0,l),
(514,0,ls),
(787,0,o),
(899,155,o),
(899,368,cs),
(899,582,o),
(701,678,o),
(624,682,c),
(701,688,o),
(829,829,o),
(829,1005,cs),
(829,1254,o),
(629,1320,o),
(421,1320,cs),
(126,1320,l)
);
},
{
closed = 1;
nodes = (
(187,643,l),
(522,643,ls),
(728,643,o),
(837,517,o),
(837,360,cs),
(837,219,o),
(784,62,o),
(542,62,cs),
(187,62,l)
);
},
{
closed = 1;
nodes = (
(187,1258,l),
(453,1258,ls),
(642,1258,o),
(766,1187,o),
(766,997,cs),
(766,867,o),
(682,704,o),
(493,704,cs),
(187,704,l)
);
}
);
width = 1021;
}
);
leftKerningGroup = H;
rightKerningGroup = B;
unicode = 66;
},
{
glyphname = C;
layers = (
{
anchors = (
{
name = bottom;
position = "{751, 0}";
},
{
name = top;
position = "{720, 1320}";
}
);
layerId = "F9C94342-283B-4575-A5D9-94B9950185BC";
shapes = (
{
closed = 1;
nodes = (
(454,145,o),
(241,363,o),
(241,661,cs),
(241,957,o),
(454,1175,o),
(751,1175,cs),
(915,1175,o),
(1042,1118,o),
(1093,1075,c),
(1168,1222,l),
(1108,1275,o),
(952,1344,o),
(744,1344,cs),
(354,1344,o),
(56,1042,o),
(56,658,cs),
(56,275,o),
(355,-24,o),
(744,-24,cs),
(952,-24,o),
(1108,45,o),
(1168,98,c),
(1093,245,l),
(1042,202,o),
(915,145,o),
(751,145,cs)
);
}
);
width = 1263;
},
{
anchors = (
{
name = bottom;
position = "{771, 0}";
},
{
name = top;
position = "{709, 1320}";
}
);
layerId = "542E67F7-1B71-4779-8BF1-78BC1C9E1EC0";
shapes = (
{
closed = 1;
nodes = (
(550,360,o),
(470,523,o),
(470,661,cs),
(470,797,o),
(550,960,o),
(803,960,cs),
(896,960,o),
(992,923,o),
(1040,894,c),
(1205,1222,l),
(1141,1275,o),
(979,1344,o),
(771,1344,cs),
(381,1344,o),
(50,1053,o),
(50,658,cs),
(50,264,o),
(382,-24,o),
(771,-24,cs),
(979,-24,o),
(1141,45,o),
(1205,98,c),
(1040,426,l),
(992,397,o),
(896,360,o),
(803,360,cs)
);
}
);
width = 1306;
},
{
anchors = (
{
name = bottom;
position = "{741, 0}";
},
{
name = top;
position = "{725, 1320}";
}
);
layerId = "CD238245-2B83-4CD3-AFC6-0F2793207444";
shapes = (
{
closed = 1;
nodes = (
(406,37,o),
(126,283,o),
(126,661,cs),
(126,1037,o),
(406,1283,o),
(725,1283,cs),
(925,1283,o),
(1067,1216,o),
(1120,1166,c),
(1149,1222,l),
(1091,1275,o),
(939,1344,o),
(731,1344,cs),
(341,1344,o),
(59,1037,o),
(59,658,cs),
(59,280,o),
(342,-24,o),
(731,-24,cs),
(939,-24,o),
(1091,45,o),
(1149,98,c),
(1120,154,l),
(1067,104,o),
(925,37,o),
(725,37,cs)
);
}
);
width = 1242;
}
);
leftKerningGroup = O;
rightKerningGroup = C;
unicode = 67;
},
{
glyphname = C.ss01;
leftMetricsKey = O;
layers = (
{
anchors = (
{
name = bottom;
position = "{651, 0}";
},
{
name = top;
position = "{651, 1320}";
}
);
layerId = "F9C94342-283B-4575-A5D9-94B9950185BC";
shapes = (
{
closed = 1;
nodes = (
(980,1287,l),
(921,1323,o),
(828,1344,o),
(697,1344,cs),
(302,1344,o),
(45,1046,o),
(45,661,cs),
(45,275,o),
(273,-24,o),
(697,-24,cs),
(822,-24,o),
(933,7,o),
(980,36,c),
(980,211,l),
(945,187,o),
(862,136,o),
(697,136,cs),
(432,136,o),
(223,338,o),
(223,661,cs),
(223,984,o),
(442,1184,o),
(697,1184,cs),
(865,1184,o),
(947,1134,o),
(980,1111,c)
);
}
);
width = 1106;
},
{
anchors = (
{
name = bottom;
position = "{698, 0}";
},
{
name = top;
position = "{698, 1320}";
}
);
layerId = "542E67F7-1B71-4779-8BF1-78BC1C9E1EC0";
shapes = (
{
closed = 1;
nodes = (
(1090,1296,l),
(1018,1333,o),
(909,1344,o),
(789,1344,cs),
(333,1344,o),
(38,1046,o),
(38,661,cs),
(38,275,o),
(304,-24,o),
(789,-24,cs),
(898,-24,o),
(1027,-8,o),
(1090,18,c),
(1090,406,l),
(1054,379,o),
(973,333,o),
(789,333,cs),
(570,333,o),
(442,470,o),
(442,661,cs),
(442,851,o),
(570,989,o),
(789,989,cs),
(973,989,o),
(1054,938,o),
(1090,907,c)
);
}
);
width = 1206;
},
{
anchors = (
{
name = bottom;
position = "{627, 0}";
},
{
name = top;
position = "{627, 1320}";
}
);
layerId = "CD238245-2B83-4CD3-AFC6-0F2793207444";
shapes = (
{
closed = 1;
nodes = (
(925,1283,l),
(872,1318,o),
(787,1344,o),
(651,1344,cs),
(286,1344,o),
(48,1046,o),
(48,661,cs),
(48,275,o),
(258,-24,o),
(651,-24,cs),
(784,-24,o),
(886,14,o),
(925,45,c),
(925,114,l),
(890,91,o),
(806,38,o),
(651,38,cs),
(363,38,o),
(114,272,o),
(114,661,cs),
(114,1050,o),
(378,1282,o),
(651,1282,cs),
(811,1282,o),
(894,1232,o),
(925,1213,c)
);
}
);
width = 1056;
}
);
leftKerningGroup = O;
rightKerningGroup = C;
},
{
glyphname = D;
layers = (
{
anchors = (
{
name = bottom;
position = "{540, 0}";
},
{
name = center;
position = "{234, 661}";
},
{
name = top;
position = "{540, 1320}";
}
);
layerId = "F9C94342-283B-4575-A5D9-94B9950185BC";
shapes = (
{
closed = 1;
nodes = (
(106,0,l),
(417,0,ls),
(840,0,o),
(1033,275,o),
(1033,661,cs),
(1033,1045,o),
(839,1320,o),
(417,1320,cs),
(106,1320,l)
);
},
{
closed = 1;
nodes = (
(403,1164,ls),
(716,1164,o),
(854,951,o),
(853,659,cs),
(851,367,o),
(713,156,o),
(403,156,cs),
(276,156,l),
(276,1164,l)
);
}
);
width = 1140;
},
{
anchors = (
{
name = bottom;
position = "{584, 0}";
},
{
name = center;
position = "{370, 661}";
},
{
name = top;
position = "{584, 1320}";
}
);
layerId = "542E67F7-1B71-4779-8BF1-78BC1C9E1EC0";
shapes = (
{
closed = 1;
nodes = (
(72,0,l),
(528,0,ls),
(949,0,o),
(1162,275,o),
(1162,661,cs),
(1162,1045,o),
(949,1320,o),
(528,1320,cs),
(72,1320,l)
);
},
{
closed = 1;
nodes = (
(493,979,ls),
(659,979,o),
(750,838,o),
(750,659,cs),
(750,480,o),
(658,341,o),
(493,341,cs),
(459,341,l),
(459,979,l)
);
}
);
width = 1243;
},
{
anchors = (
{
name = bottom;
position = "{518, 0}";
},
{
name = center;
position = "{166, 661}";
},
{
name = top;
position = "{518, 1320}";
}
);
layerId = "CD238245-2B83-4CD3-AFC6-0F2793207444";
shapes = (
{
closed = 1;
nodes = (
(123,0,l),
(362,0,ls),
(786,0,o),
(968,275,o),
(968,661,cs),
(968,1045,o),
(784,1320,o),
(362,1320,cs),
(123,1320,l)
);
},
{
closed = 1;
nodes = (
(358,1256,ls),
(744,1256,o),
(906,1008,o),
(904,659,cs),
(902,310,o),
(741,64,o),
(358,64,cs),
(184,64,l),
(184,1256,l)
);
}
);
width = 1088;
}
);
leftKerningGroup = H;
rightKerningGroup = O;
unicode = 68;
},
{
glyphname = E;
leftMetricsKey = H;
rightMetricsKey = H;
layers = (
{
anchors = (
{
name = bottom;
position = "{458, 0}";
},
{
name = ogonek;
position = "{851, 16}";
},
{
name = top;
position = "{495, 1320}";
},
{
name = topleft;
position = "{37, 1320}";
}
);
layerId = "F9C94342-283B-4575-A5D9-94B9950185BC";
shapes = (
{
closed = 1;
nodes = (
(111,0,l),
(891,0,l),
(891,155,l),
(280,155,l),
(280,586,l),
(879,586,l),
(879,737,l),
(280,737,l),
(280,1165,l),
(891,1165,l),
(891,1320,l),
(111,1320,l)
);
}
);
width = 1050;
},
{
anchors = (
{
name = bottom;
position = "{472, 0}";
},
{
name = ogonek;
position = "{870, 16}";
},
{
name = top;
position = "{472, 1320}";
},
{
name = topleft;
position = "{8, 1320}";
}
);
layerId = "542E67F7-1B71-4779-8BF1-78BC1C9E1EC0";
shapes = (
{
closed = 1;
nodes = (
(64,0,l),
(950,0,l),
(950,336,l),
(451,336,l),
(451,499,l),
(950,499,l),
(950,824,l),
(451,824,l),
(451,984,l),
(950,984,l),
(950,1320,l),
(64,1320,l)
);
}
);
width = 1082;
},
{
anchors = (
{
name = bottom;
position = "{451, 0}";
},
{
name = ogonek;
position = "{842, 16}";
},
{
name = top;
position = "{507, 1320}";
},
{
name = topleft;
position = "{51, 1320}";
}
);
layerId = "CD238245-2B83-4CD3-AFC6-0F2793207444";
shapes = (
{
closed = 1;
nodes = (
(134,0,l),
(862,0,l),
(862,64,l),
(195,64,l),
(195,630,l),
(843,630,l),
(843,694,l),
(195,694,l),
(195,1256,l),
(862,1256,l),
(862,1320,l),
(134,1320,l)
);
}
);
width = 1035;
}
);
leftKerningGroup = H;
rightKerningGroup = E;
unicode = 69;
},
{
glyphname = F;
layers = (
{
anchors = (
{
name = bottom;
position = "{430, 0}";
},
{
name = top;
position = "{430, 1320}";
}
);
layerId = "F9C94342-283B-4575-A5D9-94B9950185BC";
shapes = (
{
closed = 1;
nodes = (
(110,0,l),
(280,0,l),
(280,585,l),
(763,585,l),
(763,739,l),
(280,739,l),
(280,1165,l),
(798,1165,l),
(798,1320,l),
(110,1320,l)
);
}
);
width = 910;
},
{
anchors = (
{
name = bottom;
position = "{462, 0}";
},
{
name = top;
position = "{462, 1320}";
}
);
layerId = "542E67F7-1B71-4779-8BF1-78BC1C9E1EC0";
shapes = (
{
closed = 1;
nodes = (
(78,0,l),
(466,0,l),
(466,494,l),
(858,494,l),
(858,829,l),
(466,829,l),
(466,984,l),
(893,984,l),
(893,1320,l),
(78,1320,l)
);
}
);
width = 995;
},
{
anchors = (
{
name = bottom;
position = "{414, 0}";
},
{
name = top;
position = "{414, 1320}";
}
);
layerId = "CD238245-2B83-4CD3-AFC6-0F2793207444";
shapes = (
{
closed = 1;
nodes = (
(126,0,l),
(187,0,l),
(187,630,l),
(715,630,l),
(715,694,l),
(187,694,l),
(187,1256,l),
(750,1256,l),
(750,1320,l),
(126,1320,l)
);
}
);
width = 867;
}
);
leftKerningGroup = H;
rightKerningGroup = F;
unicode = 70;
},
{
glyphname = G;
leftMetricsKey = O;
rightMetricsKey = O;
layers = (
{
anchors = (
{
name = bottom;
position = "{726, 0}";
},
{
name = top;
position = "{702, 1320}";
}
);
layerId = "F9C94342-283B-4575-A5D9-94B9950185BC";
shapes = (
{
closed = 1;
nodes = (
(683,579,l),
(1160,579,l),
(1148,334,o),
(964,139,o),
(701,139,cs),
(422,139,o),
(222,378,o),
(222,661,cs),
(222,944,o),
(422,1181,o),
(701,1181,cs),
(872,1181,o),
(997,1101,o),
(1077,990,c),
(1232,1073,l),
(1133,1217,o),
(963,1344,o),
(701,1344,cs),
(318,1344,o),
(45,1035,o),
(45,661,cs),
(45,286,o),
(318,-24,o),
(701,-24,cs),
(1075,-24,o),
(1349,277,o),
(1349,645,cs),
(1349,717,l),
(683,717,l)
);
}
);
width = 1438;
},
{
anchors = (
{
name = bottom;
position = "{765, 0}";
},
{
name = top;
position = "{733, 1320}";
}
);
layerId = "542E67F7-1B71-4779-8BF1-78BC1C9E1EC0";
shapes = (
{
closed = 1;
nodes = (
(727,462,l),
(965,462,l),
(952,378,o),
(870,338,o),
(731,338,cs),
(557,338,o),
(442,483,o),
(442,661,cs),
(442,838,o),
(557,984,o),
(731,984,cs),
(875,984,o),
(939,916,o),
(976,852,c),
(1348,1020,l),
(1276,1154,o),
(1116,1344,o),
(731,1344,cs),
(308,1344,o),
(38,1046,o),
(38,661,cs),
(38,275,o),
(308,-24,o),
(731,-24,cs),
(1142,-24,o),
(1404,275,o),
(1404,661,cs),
(1404,752,l),
(727,752,l)
);
}
);
width = 1492;
},
{
anchors = (
{
name = bottom;
position = "{706, 0}";
},
{
name = top;
position = "{686, 1320}";
}
);
layerId = "CD238245-2B83-4CD3-AFC6-0F2793207444";
shapes = (
{
closed = 1;
nodes = (
(661,637,l),
(1258,637,l),
(1246,312,o),
(1011,40,o),
(686,40,cs),
(354,40,o),
(112,325,o),
(112,661,cs),
(112,997,o),
(354,1280,o),
(686,1280,cs),
(870,1280,o),
(1026,1194,o),
(1128,1059,c),
(1174,1099,l),
(1061,1248,o),
(886,1344,o),
(686,1344,cs),
(323,1344,o),
(48,1030,o),
(48,661,cs),
(48,291,o),
(323,-24,o),
(686,-24,cs),
(1042,-24,o),
(1322,278,o),
(1322,637,cs),
(1322,699,l),
(661,699,l)
);
}
);
width = 1411;
}
);
leftKerningGroup = O;
rightKerningGroup = O;
unicode = 71;
},
{
glyphname = H;
layers = (
{
anchors = (
{
name = bottom;
position = "{597, -209}";
},
{
name = center;
position = "{597, 870}";
},
{
name = top;
position = "{597, 1320}";
},
{
name = topleft;
position = "{79, 1320}";
}
);
layerId = "F9C94342-283B-4575-A5D9-94B9950185BC";
shapes = (
{
closed = 1;
nodes = (
(913,0,l),
(1082,0,l),
(1082,1320,l),
(913,1320,l),
(913,739,l),
(280,739,l),
(280,1320,l),
(111,1320,l),
(111,0,l),
(280,0,l),
(280,585,l),
(913,585,l)
);
}
);
width = 1241;
},
{
anchors = (
{
name = bottom;
position = "{618, -298}";
},
{
name = center;
position = "{618, 958}";
},
{
name = top;
position = "{618, 1320}";
},
{
name = topleft;
position = "{0, 1320}";
}
);
layerId = "542E67F7-1B71-4779-8BF1-78BC1C9E1EC0";
shapes = (
{
closed = 1;
nodes = (
(784,0,l),
(1170,0,l),
(1170,1320,l),
(784,1320,l),
(784,829,l),
(451,829,l),
(451,1320,l),
(64,1320,l),
(64,0,l),
(451,0,l),
(451,494,l),
(784,494,l)
);
}
);
width = 1302;
},
{
anchors = (
{
name = bottom;
position = "{586, -165}";
},
{
name = center;
position = "{586, 826}";
},
{
name = top;
position = "{586, 1320}";
},
{
name = topleft;
position = "{118, 1320}";
}
);
layerId = "CD238245-2B83-4CD3-AFC6-0F2793207444";
shapes = (
{
closed = 1;
nodes = (
(978,0,l),
(1038,0,l),
(1038,1320,l),
(978,1320,l),
(978,694,l),
(195,694,l),
(195,1320,l),
(134,1320,l),
(134,0,l),
(195,0,l),
(195,630,l),
(978,630,l)
);
}
);
width = 1211;
}
);
leftKerningGroup = H;
rightKerningGroup = H;
unicode = 72;
},
{
glyphname = Hbar;
layers = (
{
anchors = (
{
name = bottom;
position = "{597, -209}";
},
{
name = center;
position = "{597, 870}";
},
{
name = top;
position = "{597, 1320}";
},
{
name = topleft;
position = "{79, 1320}";
}
);
layerId = "F9C94342-283B-4575-A5D9-94B9950185BC";
shapes = (
{
closed = 1;
nodes = (
(41,989,l),
(1151,989,l),
(1151,1111,l),
(41,1111,l)
);
},
{
alignment = -1;
ref = H;
}
);
width = 1241;
},
{
layerId = "542E67F7-1B71-4779-8BF1-78BC1C9E1EC0";
shapes = (
{
closed = 1;
nodes = (
(-34,954,l),
(1258,954,l),
(1258,1194,l),
(-34,1194,l)
);
},
{
alignment = -1;
ref = H;
}
);
width = 1302;
},
{
layerId = "CD238245-2B83-4CD3-AFC6-0F2793207444";
shapes = (
{
closed = 1;
nodes = (
(79,1006,l),
(1098,1006,l),
(1098,1069,l),
(79,1069,l)
);
},
{
alignment = -1;
ref = H;
}
);
width = 1211;
}
);
leftKerningGroup = H;
rightKerningGroup = H;
unicode = 294;
},
{
glyphname = I;
layers = (
{
anchors = (
{
name = bottom;
position = "{210, 0}";
},
{
name = ogonek;
position = "{363, 16}";
},
{
name = top;
position = "{210, 1320}";
},
{
name = topleft;
position = "{50, 1320}";
}
);
layerId = "F9C94342-283B-4575-A5D9-94B9950185BC";
shapes = (
{
closed = 1;
nodes = (
(125,0,l),
(297,0,l),
(297,1320,l),
(125,1320,l)
);
}
);
width = 467;
},
{
anchors = (
{
name = bottom;
position = "{266, 0}";
},
{
name = ogonek;
position = "{491, 16}";
},
{
name = top;
position = "{266, 1320}";
},
{
name = topleft;
position = "{16, 1320}";
}
);
layerId = "542E67F7-1B71-4779-8BF1-78BC1C9E1EC0";
shapes = (
{
closed = 1;
nodes = (
(72,0,l),
(459,0,l),
(459,1320,l),
(72,1320,l)
);
}
);
width = 592;
},
{
anchors = (
{
name = bottom;
position = "{182, 0}";
},
{
name = ogonek;
position = "{299, 16}";
},
{
name = top;
position = "{182, 1320}";
},
{
name = topleft;
position = "{67, 1320}";
}
);
layerId = "CD238245-2B83-4CD3-AFC6-0F2793207444";
shapes = (
{
closed = 1;
nodes = (
(152,0,l),
(216,0,l),
(216,1320,l),
(152,1320,l)
);
}
);
width = 405;
}
);
leftKerningGroup = H;
rightKerningGroup = H;
unicode = 73;
},
{
glyphname = J;
layers = (
{
anchors = (
{
name = bottom;
position = "{384, 0}";
},
{
name = top;
position = "{569, 1320}";
}
);
layerId = "F9C94342-283B-4575-A5D9-94B9950185BC";
shapes = (
{
closed = 1;
nodes = (
(653,1320,l),
(482,1320,l),
(482,422,ls),
(482,255,o),
(419,142,o),
(266,142,cs),
(136,142,o),
(77,216,o),
(56,253,c),
(-19,106,l),
(-2,75,o),
(96,-24,o),
(287,-24,cs),
(529,-24,o),
(653,137,o),
(653,401,cs)
);
}
);
width = 778;
},
{
anchors = (
{
name = bottom;
position = "{416, 0}";
},
{
name = top;
position = "{544, 1320}";
}
);
layerId = "542E67F7-1B71-4779-8BF1-78BC1C9E1EC0";
shapes = (
{
closed = 1;
nodes = (
(730,1320,l),
(342,1320,l),
(342,493,ls),
(342,360,o),
(266,350,o),
(219,350,cs),
(173,350,o),
(118,387,o),
(93,419,c),
(-45,82,l),
(-26,58,o),
(101,-24,o),
(280,-24,cs),
(544,-24,o),
(730,134,o),
(730,410,cs)
);
}
);
width = 850;
},
{
anchors = (
{
name = bottom;
position = "{368, 0}";
},
{
name = top;
position = "{582, 1320}";
}
);
layerId = "CD238245-2B83-4CD3-AFC6-0F2793207444";
shapes = (
{
closed = 1;
nodes = (
(614,1320,l),
(552,1320,l),
(552,386,ls),
(552,203,o),
(496,38,o),
(290,38,cs),
(117,38,o),
(56,131,o),
(37,170,c),
(-6,118,l),
(10,83,o),
(93,-24,o),
(290,-24,cs),
(522,-24,o),
(614,138,o),
(614,397,cs)
);
}
);
width = 742;
}
);
leftKerningGroup = J;
rightKerningGroup = J;
unicode = 74;
},
{
glyphname = K;
layers = (
{
anchors = (
{
name = bottom;
position = "{511, 0}";
},
{
name = top;
position = "{511, 1320}";
}
);
layerId = "F9C94342-283B-4575-A5D9-94B9950185BC";
shapes = (
{
closed = 1;
nodes = (
(938,1320,l),
(741,1320,l),
(281,715,l),
(281,1320,l),
(110,1320,l),
(110,0,l),
(281,0,l),
(281,610,l),
(773,0,l),
(979,0,l),
(440,667,l)
);
}
);
width = 1013;
},
{
anchors = (
{
name = bottom;
position = "{618, 0}";
},
{
name = top;
position = "{618, 1320}";
}
);
layerId = "542E67F7-1B71-4779-8BF1-78BC1C9E1EC0";
shapes = (
{
closed = 1;
nodes = (
(1165,1320,l),
(730,1320,l),
(416,824,l),
(416,1320,l),
(29,1320,l),
(29,0,l),
(416,0,l),
(416,555,l),
(763,0,l),
(1224,0,l),
(749,693,l)
);
}
);
width = 1258;
},
{
anchors = (
{
name = bottom;
position = "{458, 0}";
},
{
name = top;
position = "{458, 1320}";
}
);
layerId = "CD238245-2B83-4CD3-AFC6-0F2793207444";
shapes = (
{
closed = 1;
nodes = (
(824,1320,l),
(747,1320,l),
(214,661,l),
(214,1320,l),
(150,1320,l),
(150,0,l),
(214,0,l),
(214,637,l),
(778,0,l),
(856,0,l),
(285,654,l)
);
}
);
width = 890;
}
);
leftKerningGroup = H;
rightKerningGroup = K;
unicode = 75;
},
{
glyphname = L;
layers = (
{
anchors = (
{
name = bottom;
position = "{455, 0}";
},
{
name = center;
position = "{166, 870}";
},
{
name = top;
position = "{429, 1320}";
},
{
name = topright;
position = "{811, 1320}";
}
);
layerId = "F9C94342-283B-4575-A5D9-94B9950185BC";
shapes = (
{
closed = 1;
nodes = (
(110,0,l),
(800,0,l),
(800,155,l),
(281,155,l),
(281,1320,l),
(110,1320,l)
);
}
);
width = 917;
},
{
anchors = (
{
name = bottom;
position = "{498, 0}";
},
{
name = center;
position = "{235, 958}";
},
{
name = top;
position = "{461, 1320}";
},
{
name = topright;
position = "{906, 1320}";
}
);
layerId = "542E67F7-1B71-4779-8BF1-78BC1C9E1EC0";
shapes = (
{
closed = 1;
nodes = (
(78,0,l),
(917,0,l),
(917,336,l),
(466,336,l),
(466,1320,l),
(78,1320,l)
);
}
);
width = 1024;
},
{
anchors = (
{
name = bottom;
position = "{434, 0}";
},
{
name = center;
position = "{131, 826}";
},
{
name = top;
position = "{413, 1320}";
},
{
name = topright;
position = "{763, 1320}";
}
);
layerId = "CD238245-2B83-4CD3-AFC6-0F2793207444";
shapes = (
{
closed = 1;
nodes = (
(126,0,l),
(742,0,l),
(742,64,l),
(189,64,l),
(189,1320,l),
(126,1320,l)
);
}
);
width = 864;
}
);
leftKerningGroup = H;
rightKerningGroup = L;
unicode = 76;
},
{
glyphname = Lslash;
layers = (
{
layerId = "F9C94342-283B-4575-A5D9-94B9950185BC";
shapes = (
{
closed = 1;
nodes = (
(861,0,l),
(861,155,l),
(353,155,l),
(353,718,l),
(492,827,l),
(492,995,l),
(353,885,l),
(353,1320,l),
(184,1320,l),
(184,752,l),
(46,645,l),
(46,477,l),
(184,584,l),
(184,0,l)
);
}
);
width = 979;
},
{
layerId = "542E67F7-1B71-4779-8BF1-78BC1C9E1EC0";
shapes = (
{
closed = 1;
nodes = (
(936,0,l),
(936,336,l),
(518,336,l),
(518,741,l),
(704,888,l),
(704,1184,l),
(518,1035,l),
(518,1320,l),
(131,1320,l),
(131,731,l),
(19,645,l),
(19,350,l),
(131,435,l),
(131,0,l)
);
}
);
width = 1050;
},
{
layerId = "CD238245-2B83-4CD3-AFC6-0F2793207444";
shapes = (
{
closed = 1;
nodes = (
(824,0,l),
(824,64,l),
(270,64,l),
(270,706,l),
(386,797,l),
(386,901,l),
(270,810,l),
(270,1320,l),
(210,1320,l),
(210,763,l),
(59,645,l),
(59,541,l),
(210,659,l),
(210,0,l)
);
}
);
width = 944;
}
);
leftKerningGroup = H;
rightKerningGroup = L;
unicode = 321;
},
{
glyphname = M;
layers = (
{
anchors = (
{
name = bottom;
position = "{713, 0}";
},
{
name = top;
position = "{713, 1320}";
}
);
layerId = "F9C94342-283B-4575-A5D9-94B9950185BC";
shapes = (
{
closed = 1;
nodes = (
(1079,1320,l),
(718,284,l),
(705,217,l),
(693,284,l),
(333,1320,l),
(105,1320,l),
(105,0,l),
(276,0,l),
(276,952,l),
(268,1099,l),
(303,937,l),
(621,75,l),
(790,75,l),
(1108,937,l),
(1144,1099,l),
(1135,952,l),
(1135,0,l),
(1306,0,l),
(1306,1320,l)
);
}
);
width = 1476;
},
{
anchors = (
{
name = bottom;
position = "{848, 0}";
},
{
name = top;
position = "{848, 1320}";
}
);
layerId = "542E67F7-1B71-4779-8BF1-78BC1C9E1EC0";
shapes = (
{
closed = 1;
nodes = (
(1062,1320,l),
(862,547,l),
(840,416,l),
(818,547,l),
(618,1320,l),
(64,1320,l),
(64,0,l),
(451,0,l),
(451,656,l),
(435,928,l),
(496,611,l),
(650,128,l),
(1029,128,l),
(1184,611,l),
(1245,928,l),
(1229,656,l),
(1229,0,l),
(1616,0,l),
(1616,1320,l)
);
}
);
width = 1760;
},
{
anchors = (
{
name = bottom;
position = "{646, 0}";
},
{
name = top;
position = "{646, 1320}";
}
);
layerId = "CD238245-2B83-4CD3-AFC6-0F2793207444";
shapes = (
{
closed = 1;
nodes = (
(1088,1320,l),
(646,152,l),
(638,117,l),
(630,152,l),
(190,1320,l),
(126,1320,l),
(126,0,l),
(189,0,l),
(189,1101,l),
(184,1184,l),
(206,1101,l),
(606,48,l),
(670,48,l),
(1070,1101,l),
(1093,1184,l),
(1088,1101,l),
(1088,0,l),
(1150,0,l),
(1150,1320,l)
);
}
);
width = 1333;
}
);
leftKerningGroup = M;
rightKerningGroup = M;
unicode = 77;
},
{
glyphname = N;
leftMetricsKey = H;
rightMetricsKey = H;
layers = (
{
anchors = (
{
name = bottom;
position = "{681, 0}";
},
{
name = top;
position = "{681, 1320}";
}
);
layerId = "F9C94342-283B-4575-A5D9-94B9950185BC";
shapes = (
{
closed = 1;
nodes = (
(954,0,l),
(1197,0,l),
(1197,1320,l),
(1026,1320,l),
(1026,163,l),
(1037,165,l),
(352,1320,l),
(111,1320,l),
(111,0,l),
(282,0,l),
(282,1156,l),
(271,1158,l)
);
}
);
width = 1356;
},
{
anchors = (
{
name = bottom;
position = "{720, 0}";
},
{
name = top;
position = "{720, 1320}";
}
);
layerId = "542E67F7-1B71-4779-8BF1-78BC1C9E1EC0";
shapes = (
{
closed = 1;
nodes = (
(850,0,l),
(1376,0,l),
(1376,1320,l),
(989,1320,l),
(989,354,l),
(1018,360,l),
(587,1320,l),
(64,1320,l),
(64,0,l),
(451,0,l),
(451,963,l),
(422,968,l)
);
}
);
width = 1508;
},
{
anchors = (
{
name = bottom;
position = "{661, 0}";
},
{
name = top;
position = "{661, 1320}";
}
);
layerId = "CD238245-2B83-4CD3-AFC6-0F2793207444";
shapes = (
{
closed = 1;
nodes = (
(1006,0,l),
(1107,0,l),
(1107,1320,l),
(1045,1320,l),
(1045,67,l),
(1046,67,l),
(235,1320,l),
(134,1320,l),
(134,0,l),
(197,0,l),
(197,1253,l),
(195,1253,l)
);
}
);
width = 1280;
}
);
leftKerningGroup = H;
rightKerningGroup = H;
unicode = 78;
},
{
glyphname = Eng;
layers = (
{
anchors = (
{
name = bottom;
position = "{681, 0}";
},
{
name = top;
position = "{681, 1320}";
}
);
layerId = "F9C94342-283B-4575-A5D9-94B9950185BC";
shapes = (
{
closed = 1;
nodes = (
(1197,-39,ls),
(1197,-262,o),
(1112,-429,o),
(924,-429,cs),
(826,-429,o),
(747,-394,o),
(723,-382,c),
(790,-245,l),
(809,-257,o),
(849,-273,o),
(891,-273,cs),
(979,-273,o),
(1022,-188,o),
(1022,-40,cs),
(1022,0,l),
(1197,0,l)
);
},
{
alignment = -1;
ref = N;
}
);
width = 1356;
},
{
layerId = "542E67F7-1B71-4779-8BF1-78BC1C9E1EC0";
shapes = (
{
closed = 1;
nodes = (
(1376,-24,ls),
(1376,-222,o),
(1278,-440,o),
(1019,-440,cs),
(861,-440,o),
(779,-405,o),
(725,-381,c),
(846,-80,l),
(864,-88,o),
(894,-98,o),
(912,-98,cs),
(942,-98,o),
(973,-78,o),
(973,-40,cs),
(973,0,l),
(1376,0,l)
);
},
{
alignment = -1;
ref = N;
}
);
width = 1509;
},
{
layerId = "CD238245-2B83-4CD3-AFC6-0F2793207444";
shapes = (
{
closed = 1;
nodes = (
(1107,-46,ls),
(1107,-282,o),
(1029,-424,o),
(877,-424,cs),
(808,-424,o),
(731,-389,o),
(722,-382,c),
(762,-328,l),
(781,-342,o),
(826,-360,o),
(880,-360,cs),
(998,-360,o),
(1046,-243,o),
(1046,-40,cs),
(1046,0,l),
(1107,0,l)
);
},
{
alignment = -1;
ref = N;
}
);
width = 1280;
}
);
leftKerningGroup = Eng;
rightKerningGroup = Eng;
unicode = 330;
},
{
glyphname = O;
layers = (
{
anchors = (
{
name = bottom;
position = "{701, -209}";
},
{
name = center;
position = "{701, 870}";
},
{
name = ogonek;
position = "{1021, 16}";
},
{
name = top;
position = "{701, 1320}";
},
{
name = topleft;
position = "{63, 1320}";
},
{
name = topright;
position = "{1096, 1200}";
}
);
layerId = "F9C94342-283B-4575-A5D9-94B9950185BC";
shapes = (
{
closed = 1;
nodes = (
(222,955,o),
(422,1181,o),
(701,1181,cs),
(981,1181,o),
(1179,955,o),
(1179,661,cs),
(1179,367,o),
(981,139,o),
(701,139,cs),
(422,139,o),
(222,367,o),
(222,661,cs)
);
},
{
closed = 1;
nodes = (
(45,275,o),
(319,-24,o),
(701,-24,cs),
(1081,-24,o),
(1356,275,o),
(1356,661,cs),
(1356,1046,o),
(1077,1344,o),
(701,1344,cs),
(328,1344,o),
(45,1046,o),
(45,661,cs)
);
}
);
width = 1445;
},
{
anchors = (
{
name = bottom;
position = "{731, -298}";
},
{
name = center;
position = "{731, 958}";
},
{
name = ogonek;
position = "{1021, 16}";
},
{
name = top;
position = "{731, 1320}";
},
{
name = topleft;
position = "{40, 1320}";
},
{
name = topright;
position = "{1138, 1197}";
}
);
layerId = "542E67F7-1B71-4779-8BF1-78BC1C9E1EC0";
shapes = (
{
closed = 1;
nodes = (
(442,838,o),
(557,984,o),
(731,984,cs),
(906,984,o),
(1021,838,o),
(1021,661,cs),
(1021,483,o),
(906,338,o),
(731,338,cs),
(557,338,o),
(442,483,o),
(442,661,cs)
);
},
{
closed = 1;
nodes = (
(38,275,o),
(310,-24,o),
(731,-24,cs),
(1142,-24,o),
(1424,275,o),
(1424,661,cs),
(1424,1046,o),
(1130,1344,o),
(731,1344,cs),
(338,1344,o),
(38,1046,o),
(38,661,cs)
);
}
);
width = 1512;
},
{
anchors = (
{
name = bottom;
position = "{686, -165}";
},
{
name = center;
position = "{686, 826}";
},
{
name = ogonek;
position = "{1021, 16}";
},
{
name = top;
position = "{686, 1320}";
},
{
name = topleft;
position = "{75, 1320}";
},
{
name = topright;
position = "{1075, 1202}";
}
);
layerId = "CD238245-2B83-4CD3-AFC6-0F2793207444";
shapes = (
{
closed = 1;
nodes = (
(112,1013,o),
(354,1280,o),
(686,1280,cs),
(1019,1280,o),
(1258,1013,o),
(1258,661,cs),
(1258,309,o),
(1019,40,o),
(686,40,cs),
(354,40,o),
(112,309,o),
(112,661,cs)
);
},
{
closed = 1;
nodes = (
(48,275,o),
(323,-24,o),
(686,-24,cs),
(1050,-24,o),
(1322,275,o),
(1322,661,cs),
(1322,1046,o),
(1050,1344,o),
(686,1344,cs),
(323,1344,o),
(48,1046,o),
(48,661,cs)
);
}
);
width = 1411;
}
);
leftKerningGroup = O;
rightKerningGroup = O;
unicode = 79;
},
{
glyphname = Oslash;
layers = (
{
anchors = (
{
name = bottom;
position = "{701, -209}";
},
{
name = center;
position = "{701, 870}";
},
{
name = ogonek;
position = "{1021, 16}";
},
{
name = top;
position = "{701, 1320}";
},
{
name = topleft;
position = "{63, 1320}";
},
{
name = topright;
position = "{1096, 1200}";
}
);
layerId = "F9C94342-283B-4575-A5D9-94B9950185BC";
shapes = (
{
closed = 1;
nodes = (
(13,24,l),
(85,-42,l),
(1368,1272,l),
(1296,1337,l)
);
},
{
alignment = -1;
ref = O;
}
);
width = 1416;
},
{
layerId = "542E67F7-1B71-4779-8BF1-78BC1C9E1EC0";
shapes = (
{
closed = 1;
nodes = (
(-10,29,l),
(118,-85,l),
(1429,1283,l),
(1301,1397,l)
);
},
{
alignment = -1;
ref = O;
}
);
width = 1491;
},
{
layerId = "CD238245-2B83-4CD3-AFC6-0F2793207444";
shapes = (
{
closed = 1;
nodes = (
(24,21,l),
(69,-21,l),
(1338,1266,l),
(1293,1307,l)
);
},
{
alignment = -1;
ref = O;
}
);
width = 1379;
}
);
leftKerningGroup = O;
rightKerningGroup = O;
unicode = 216;
},
{
glyphname = OE;
layers = (
{
anchors = (
{
name = bottom;
position = "{773, 0}";
},
{
name = top;
position = "{773, 1320}";
}
);
layerId = "F9C94342-283B-4575-A5D9-94B9950185BC";
shapes = (
{
closed = 1;
nodes = (
(1454,0,l),
(1454,155,l),
(923,155,l),
(923,585,l),
(1435,585,l),
(1435,739,l),
(923,739,l),
(923,1165,l),
(1454,1165,l),
(1454,1320,l),
(685,1320,ls),
(322,1320,o),
(51,1046,o),
(51,660,cs),
(51,275,o),
(303,0,o),
(685,0,cs)
);
},
{
closed = 1;
nodes = (
(695,154,ls),
(401,154,o),
(235,380,o),
(235,661,cs),
(235,941,o),
(411,1169,o),
(695,1169,cs),
(754,1169,l),
(754,154,l)
);
}
);
width = 1596;
},
{
anchors = (
{
name = bottom;
position = "{816, 0}";
},
{
name = top;
position = "{816, 1320}";
}
);
layerId = "542E67F7-1B71-4779-8BF1-78BC1C9E1EC0";
shapes = (
{
closed = 1;
nodes = (
(1581,0,l),
(1581,336,l),
(1176,336,l),
(1176,494,l),
(1562,494,l),
(1562,829,l),
(1176,829,l),
(1176,984,l),
(1581,984,l),
(1581,1320,l),
(701,1320,ls),
(338,1320,o),
(13,1045,o),
(13,659,cs),
(13,274,o),
(349,0,o),
(701,0,cs)
);
},
{
closed = 1;
nodes = (
(750,346,ls),
(573,346,o),
(432,480,o),
(432,661,cs),
(432,838,o),
(566,974,o),
(750,974,cs),
(789,974,l),
(789,346,l)
);
}
);
width = 1704;
},
{
anchors = (
{
name = bottom;
position = "{752, 0}";
},
{
name = top;
position = "{752, 1320}";
}
);
layerId = "CD238245-2B83-4CD3-AFC6-0F2793207444";
shapes = (
{
closed = 1;
nodes = (
(1390,0,l),
(1390,64,l),
(797,64,l),
(797,630,l),
(1371,630,l),
(1371,694,l),
(797,694,l),
(797,1256,l),
(1390,1256,l),
(1390,1320,l),
(677,1320,ls),
(314,1320,o),
(70,1046,o),
(70,661,cs),
(70,275,o),
(280,0,o),
(677,0,cs)
);
},
{
closed = 1;
nodes = (
(667,58,ls),
(315,58,o),
(136,330,o),
(136,661,cs),
(136,992,o),
(333,1266,o),
(667,1266,cs),
(736,1266,l),
(736,58,l)
);
}
);
width = 1542;
}
);
leftKerningGroup = O;
rightKerningGroup = E;
unicode = 338;
},
{
glyphname = P;
layers = (
{
anchors = (
{
name = bottom;
position = "{493, 0}";
},
{
name = top;
position = "{493, 1320}";
}
);
layerId = "F9C94342-283B-4575-A5D9-94B9950185BC";
shapes = (
{
closed = 1;
nodes = (
(120,0,l),
(291,0,l),
(291,523,l),
(494,523,ls),
(741,523,o),
(935,655,o),
(935,929,cs),
(935,1204,o),
(741,1320,o),
(494,1320,cs),
(120,1320,l)
);
},
{
closed = 1;
nodes = (
(291,1177,l),
(447,1177,ls),
(616,1177,o),
(754,1119,o),
(754,926,cs),
(754,734,o),
(616,666,o),
(447,666,cs),
(291,666,l)
);
}
);
width = 1037;
},
{
anchors = (
{
name = bottom;
position = "{541, 0}";
},
{
name = top;
position = "{541, 1320}";
}
);
layerId = "542E67F7-1B71-4779-8BF1-78BC1C9E1EC0";
shapes = (
{
closed = 1;
nodes = (
(61,0,l),
(448,0,l),
(448,469,l),
(614,469,ls),
(872,469,o),
(1074,634,o),
(1074,904,cs),
(1074,1174,o),
(872,1320,o),
(614,1320,cs),
(61,1320,l)
);
},
{
closed = 1;
nodes = (
(448,1019,l),
(506,1019,ls),
(594,1019,o),
(659,982,o),
(659,894,cs),
(659,806,o),
(594,770,o),
(506,770,cs),
(448,770,l)
);
}
);
width = 1154;
},
{
anchors = (
{
name = bottom;
position = "{469, 0}";
},
{
name = top;
position = "{469, 1320}";
}
);
layerId = "CD238245-2B83-4CD3-AFC6-0F2793207444";
shapes = (
{
closed = 1;
nodes = (
(150,0,l),
(213,0,l),
(213,550,l),
(434,550,ls),
(675,550,o),
(866,666,o),
(866,942,cs),
(866,1219,o),
(675,1320,o),
(434,1320,cs),
(150,1320,l)
);
},
{
closed = 1;
nodes = (
(213,1256,l),
(418,1256,ls),
(627,1256,o),
(802,1187,o),
(802,942,cs),
(802,698,o),
(627,614,o),
(418,614,cs),
(213,614,l)
);
}
);
width = 978;
}
);
leftKerningGroup = H;
rightKerningGroup = P;
unicode = 80;
},
{
glyphname = Thorn;
layers = (
{
layerId = "F9C94342-283B-4575-A5D9-94B9950185BC";
shapes = (
{
closed = 1;
nodes = (
(111,0,l),
(280,0,l),
(280,245,l),
(527,245,ls),
(762,245,o),
(935,397,o),
(935,669,cs),
(935,942,o),
(762,1075,o),
(527,1075,cs),
(280,1075,l),
(280,1320,l),
(111,1320,l)
);
},
{
closed = 1;
nodes = (
(280,933,l),
(496,933,ls),
(652,933,o),
(752,850,o),
(752,669,cs),
(752,487,o),
(652,387,o),
(496,387,cs),
(280,387,l)
);
}
);
width = 1026;
},
{
layerId = "542E67F7-1B71-4779-8BF1-78BC1C9E1EC0";
shapes = (
{
closed = 1;
nodes = (
(64,0,l),
(451,0,l),
(451,245,l),
(610,245,ls),
(867,245,o),
(1077,397,o),
(1077,669,cs),
(1077,942,o),
(867,1075,o),
(610,1075,cs),
(451,1075,l),
(451,1320,l),
(64,1320,l)
);
},
{
closed = 1;
nodes = (
(451,774,l),
(528,774,ls),
(600,774,o),
(651,739,o),
(651,662,cs),
(651,586,o),
(600,546,o),
(528,546,cs),
(451,546,l)
);
}
);
width = 1154;
},
{
layerId = "CD238245-2B83-4CD3-AFC6-0F2793207444";
shapes = (
{
closed = 1;
nodes = (
(134,0,l),
(195,0,l),
(195,245,l),
(485,245,ls),
(709,245,o),
(864,397,o),
(864,669,cs),
(864,942,o),
(709,1075,o),
(485,1075,cs),
(195,1075,l),
(195,1320,l),
(134,1320,l)
);
},
{
closed = 1;
nodes = (
(195,1013,l),
(480,1013,ls),
(678,1013,o),
(803,906,o),
(803,672,cs),
(803,438,o),
(678,307,o),
(480,307,cs),
(195,307,l)
);
}
);
width = 962;
}
);
leftKerningGroup = H;
rightKerningGroup = Thorn;
unicode = 222;
},
{
glyphname = Q;
layers = (
{
anchors = (
{
name = bottom;
position = "{701, -209}";
},
{
name = center;
position = "{701, 870}";
},
{
name = ogonek;
position = "{1021, 16}";
},
{
name = top;
position = "{701, 1320}";
},
{
name = topleft;
position = "{63, 1320}";
},
{
name = topright;
position = "{1096, 1200}";
}
);
layerId = "F9C94342-283B-4575-A5D9-94B9950185BC";
shapes = (
{
closed = 1;
nodes = (
(930,-67,o),
(840,11,o),
(684,11,cs),
(541,11,o),
(437,-43,o),
(352,-122,c),
(436,-218,l),
(441,-211,o),
(530,-127,o),
(653,-127,cs),
(824,-127,o),
(880,-229,o),
(1066,-229,cs),
(1213,-229,o),
(1302,-170,o),
(1335,-131,c),
(1264,-9,l),
(1258,-17,o),
(1181,-67,o),
(1068,-67,cs)
);
},
{
alignment = -1;
ref = O;
}
);
width = 1416;
},
{
layerId = "542E67F7-1B71-4779-8BF1-78BC1C9E1EC0";
shapes = (
{
closed = 1;
nodes = (
(954,-22,o),
(875,34,o),
(701,34,cs),
(506,34,o),
(342,-43,o),
(262,-147,c),
(411,-325,l),
(414,-318,o),
(491,-254,o),
(616,-254,cs),
(834,-254,o),
(875,-374,o),
(1080,-374,cs),
(1246,-374,o),
(1368,-290,o),
(1413,-206,c),
(1291,42,l),
(1283,29,o),
(1186,-22,o),
(1075,-22,cs)
);
},
{
alignment = -1;
ref = O;
}
);
width = 1491;
},
{
layerId = "CD238245-2B83-4CD3-AFC6-0F2793207444";
shapes = (
{
closed = 1;
nodes = (
(918,-90,o),
(822,0,o),
(675,0,cs),
(558,0,o),
(485,-43,o),
(397,-109,c),
(448,-165,l),
(454,-158,o),
(550,-64,o),
(672,-64,cs),
(819,-64,o),
(883,-157,o),
(1059,-157,cs),
(1197,-157,o),
(1269,-110,o),
(1296,-93,c),
(1250,-34,l),
(1245,-40,o),
(1179,-90,o),
(1064,-90,cs)
);
},
{
alignment = -1;
ref = O;
}
);
width = 1379;
}
);
leftKerningGroup = O;
rightKerningGroup = O;
unicode = 81;
},
{
glyphname = Q.ss01;
layers = (
{
anchors = (
{
name = bottom;
position = "{683, 0}";
},
{
name = top;
position = "{683, 1320}";
}
);
layerId = "F9C94342-283B-4575-A5D9-94B9950185BC";
shapes = (
{
closed = 1;
nodes = (
(1087,-166,l),
(1275,-166,l),
(909,461,l),
(721,461,l)
);
},
{
alignment = -1;
ref = O;
}
);
width = 1413;
},
{
anchors = (
{
name = bottom;
position = "{710, 0}";
},
{
name = top;
position = "{710, 1320}";
}
);
layerId = "542E67F7-1B71-4779-8BF1-78BC1C9E1EC0";
shapes = (
{
closed = 1;
nodes = (
(1024,-166,l),
(1438,-166,l),
(1072,461,l),
(658,461,l)
);
},
{
alignment = -1;
ref = O;
}
);
width = 1488;
},
{
anchors = (
{
name = bottom;
position = "{669, 0}";
},
{
name = top;
position = "{669, 1320}";
}
);
layerId = "CD238245-2B83-4CD3-AFC6-0F2793207444";
shapes = (
{
closed = 1;
nodes = (
(1118,-166,l),
(1194,-166,l),
(827,461,l),
(752,461,l)
);
},
{
alignment = -1;
ref = O;
}
);
width = 1376;
}
);
leftKerningGroup = O;
rightKerningGroup = O;
},
{
glyphname = Q.ss02;
layers = (
{
anchors = (
{
name = bottom;
position = "{691, 0}";
},
{
name = top;
position = "{691, 1320}";
}
);
layerId = "F9C94342-283B-4575-A5D9-94B9950185BC";
shapes = (
{
closed = 1;
nodes = (
(843,-24,o),
(984,33,o),
(1089,129,c),
(1167,83,o),
(1250,44,o),
(1326,19,c),
(1403,170,l),
(1335,187,o),
(1272,215,o),
(1196,252,c),
(1266,359,o),
(1310,501,o),
(1310,661,cs),
(1310,1046,o),
(1046,1344,o),
(681,1344,cs),
(318,1344,o),
(50,1046,o),
(50,661,cs),
(50,275,o),
(290,-24,o),
(681,-24,cs)
);
},
{
closed = 1;
nodes = (
(379,151,o),
(233,388,o),
(233,661,cs),
(233,933,o),
(394,1170,o),
(681,1170,cs),
(969,1170,o),
(1127,933,o),
(1127,661,cs),
(1127,539,o),
(1096,425,o),
(1040,338,c),
(935,404,o),
(842,483,o),
(793,534,c),
(713,435,l),
(769,372,o),
(845,304,o),
(933,239,c),
(865,179,o),
(773,151,o),
(681,151,cs)
);
}
);
width = 1433;
},
{
anchors = (
{
name = bottom;
position = "{707, 0}";
},
{
name = top;
position = "{707, 1320}";
}
);
layerId = "542E67F7-1B71-4779-8BF1-78BC1C9E1EC0";
shapes = (
{
closed = 1;
nodes = (
(821,-24,o),
(939,2,o),
(1040,56,c),
(1088,18,o),
(1170,-34,o),
(1285,-82,c),
(1454,264,l),
(1328,301,o),
(1317,309,o),
(1291,317,c),
(1346,416,o),
(1379,533,o),
(1379,661,cs),
(1379,1046,o),
(1070,1344,o),
(704,1344,cs),
(342,1344,o),
(29,1046,o),
(29,661,cs),
(29,275,o),
(315,-24,o),
(704,-24,cs)
);
},
{
closed = 1;
nodes = (
(494,373,o),
(448,515,o),
(448,661,cs),
(448,806,o),
(509,949,o),
(704,949,cs),
(902,949,o),
(960,806,o),
(960,661,cs),
(960,608,o),
(955,555,o),
(938,507,c),
(784,614,o),
(696,728,o),
(730,694,c),
(570,494,l),
(579,475,o),
(626,405,o),
(693,328,c),
(686,355,o),
(693,373,o),
(704,373,c)
);
}
);
width = 1490;
},
{
anchors = (
{
name = bottom;
position = "{683, 0}";
},
{
name = top;
position = "{683, 1320}";
}
);
layerId = "CD238245-2B83-4CD3-AFC6-0F2793207444";
shapes = (
{
closed = 1;
nodes = (
(854,-24,o),
(1006,48,o),
(1114,166,c),
(1206,115,o),
(1290,83,o),
(1347,70,c),
(1378,123,l),
(1339,130,o),
(1250,168,o),
(1149,219,c),
(1226,331,o),
(1275,485,o),
(1275,661,cs),
(1275,1046,o),
(1034,1344,o),
(669,1344,cs),
(306,1344,o),
(61,1046,o),
(61,661,cs),
(61,275,o),
(278,-24,o),
(669,-24,cs)
);
},
{
closed = 1;
nodes = (
(322,40,o),
(126,325,o),
(126,661,cs),
(126,997,o),
(336,1280,o),
(669,1280,cs),
(1002,1280,o),
(1210,997,o),
(1210,661,cs),
(1210,504,o),
(1166,360,o),
(1091,253,c),
(1010,299,o),
(915,360,o),
(824,454,c),
(784,405,l),
(864,320,o),
(955,254,o),
(1053,195,c),
(955,91,o),
(813,40,o),
(669,40,cs)
);
}
);
width = 1405;
}
);
leftKerningGroup = Q.ss02;
rightKerningGroup = Q.ss02;
},
{
glyphname = R;
layers = (
{
anchors = (
{
name = bottom;
position = "{514, 0}";
},
{
name = top;
position = "{514, 1320}";
}
);
layerId = "F9C94342-283B-4575-A5D9-94B9950185BC";
shapes = (
{
closed = 1;
nodes = (
(110,0,l),
(281,0,l),
(281,558,l),
(494,558,l),
(800,0,l),
(994,0,l),
(667,570,l),
(783,577,o),
(958,693,o),
(958,937,cs),
(958,1183,o),
(785,1320,o),
(571,1320,cs),
(110,1320,l)
);
},
{
closed = 1;
nodes = (
(281,1177,l),
(512,1177,ls),
(669,1177,o),
(783,1106,o),
(783,933,cs),
(783,760,o),
(668,685,o),
(511,685,cs),
(281,685,l)
);
}
);
width = 1109;
},
{
anchors = (
{
name = bottom;
position = "{581, 0}";
},
{
name = top;
position = "{581, 1320}";
}
);
layerId = "542E67F7-1B71-4779-8BF1-78BC1C9E1EC0";
shapes = (
{
closed = 1;
nodes = (
(54,0,l),
(442,0,l),
(442,501,l),
(416,501,l),
(688,0,l),
(1122,0,l),
(806,531,l),
(904,552,o),
(1054,650,o),
(1054,904,cs),
(1054,1160,o),
(886,1320,o),
(646,1320,cs),
(54,1320,l)
);
},
{
closed = 1;
nodes = (
(442,1019,l),
(509,1019,ls),
(579,1019,o),
(656,995,o),
(656,891,cs),
(656,787,o),
(576,763,o),
(506,763,cs),
(442,763,l)
);
}
);
width = 1234;
},
{
anchors = (
{
name = bottom;
position = "{480, 0}";
},
{
name = top;
position = "{480, 1320}";
}
);
layerId = "CD238245-2B83-4CD3-AFC6-0F2793207444";
shapes = (
{
closed = 1;
nodes = (
(138,0,l),
(200,0,l),
(200,586,l),
(533,586,l),
(856,0,l),
(930,0,l),
(597,590,l),
(722,590,o),
(910,714,o),
(910,954,cs),
(910,1194,o),
(734,1320,o),
(534,1320,cs),
(138,1320,l)
);
},
{
closed = 1;
nodes = (
(200,1256,l),
(514,1256,ls),
(714,1256,o),
(846,1162,o),
(846,954,cs),
(846,746,o),
(714,646,o),
(514,646,cs),
(200,646,l)
);
}
);
width = 1046;
}
);
leftKerningGroup = H;
rightKerningGroup = R;
unicode = 82;
},
{
glyphname = S;
layers = (
{
anchors = (
{
name = bottom;
position = "{503, 0}";
},
{
name = top;
position = "{503, 1320}";
}
);
layerId = "F9C94342-283B-4575-A5D9-94B9950185BC";
shapes = (
{
closed = 1;
nodes = (
(298,1344,o),
(116,1212,o),
(116,1020,cs),
(116,825,o),
(267,728,o),
(447,647,cs),
(622,570,o),
(769,494,o),
(769,351,cs),
(769,226,o),
(675,137,o),
(497,137,cs),
(320,137,o),
(175,231,o),
(142,257,c),
(49,110,l),
(66,93,o),
(250,-24,o),
(493,-24,cs),
(749,-24,o),
(949,113,o),
(949,342,cs),
(949,572,o),
(755,686,o),
(573,763,cs),
(404,835,o),
(294,899,o),
(294,1011,cs),
(294,1122,o),
(388,1185,o),
(538,1185,cs),
(685,1185,o),
(786,1110,o),
(816,1084,c),
(904,1225,l),
(886,1243,o),
(749,1344,o),
(521,1344,cs)
);
}
);
width = 1056;
},
{
anchors = (
{
name = bottom;
position = "{546, 0}";
},
{
name = top;
position = "{546, 1320}";
}
);
layerId = "542E67F7-1B71-4779-8BF1-78BC1C9E1EC0";
shapes = (
{
closed = 1;
nodes = (
(350,1344,o),
(118,1198,o),
(118,955,cs),
(118,714,o),
(282,605,o),
(450,544,cs),
(624,482,o),
(669,448,o),
(669,400,cs),
(669,355,o),
(630,330,o),
(546,330,cs),
(421,330,o),
(230,430,o),
(202,454,c),
(13,131,l),
(45,99,o),
(251,-24,o),
(546,-24,cs),
(802,-24,o),
(1072,88,o),
(1072,382,cs),
(1072,603,o),
(926,731,o),
(722,798,cs),
(563,851,o),
(514,883,o),
(514,931,cs),
(514,978,o),
(566,995,o),
(637,995,cs),
(726,995,o),
(843,930,o),
(875,906,c),
(1058,1216,l),
(1029,1238,o),
(850,1344,o),
(594,1344,cs)
);
}
);
width = 1163;
},
{
anchors = (
{
name = bottom;
position = "{482, 0}";
},
{
name = top;
position = "{482, 1320}";
}
);
layerId = "CD238245-2B83-4CD3-AFC6-0F2793207444";
shapes = (
{
closed = 1;
nodes = (
(272,1344,o),
(115,1219,o),
(115,1053,cs),
(115,880,o),
(259,790,o),
(446,699,cs),
(621,614,o),
(819,517,o),
(819,326,cs),
(819,162,o),
(698,40,o),
(472,40,cs),
(269,40,o),
(147,131,o),
(112,158,c),
(67,99,l),
(77,90,o),
(250,-24,o),
(467,-24,cs),
(723,-24,o),
(888,126,o),
(888,322,cs),
(888,557,o),
(670,664,o),
(498,746,cs),
(325,827,o),
(184,907,o),
(184,1051,cs),
(184,1194,o),
(299,1280,o),
(488,1280,cs),
(664,1280,o),
(757,1200,o),
(787,1173,c),
(827,1229,l),
(814,1245,o),
(698,1344,o),
(485,1344,cs)
);
}
);
width = 1003;
}
);
leftKerningGroup = S;
rightKerningGroup = S;
unicode = 83;
},
{
glyphname = Germandbls;
leftMetricsKey = B;
rightMetricsKey = B;
layers = (
{
anchors = (
{
name = bottom;
position = "{595, 0}";
},
{
name = top;
position = "{595, 1320}";
}
);
layerId = "F9C94342-283B-4575-A5D9-94B9950185BC";
shapes = (
{
closed = 1;
nodes = (
(449,14,l),
(521,-9,o),
(607,-22,o),
(696,-22,cs),
(933,-22,o),
(1128,113,o),
(1128,385,cs),
(1128,690,o),
(907,758,o),
(701,744,c),
(998,1157,l),
(1001,1300,l),
(868,1332,o),
(730,1351,o),
(622,1351,cs),
(304,1351,o),
(110,1220,o),
(110,901,cs),
(110,0,l),
(279,0,l),
(279,825,ls),
(279,1083,o),
(368,1206,o),
(615,1206,cs),
(673,1206,o),
(761,1198,o),
(830,1182,c),
(540,777,l),
(540,618,l),
(825,660,o),
(954,563,o),
(954,386,cs),
(954,234,o),
(859,126,o),
(677,126,cs),
(600,126,o),
(516,141,o),
(449,165,c)
);
}
);
width = 1237;
},
{
anchors = (
{
name = bottom;
position = "{624, 0}";
},
{
name = top;
position = "{624, 1320}";
}
);
layerId = "542E67F7-1B71-4779-8BF1-78BC1C9E1EC0";
shapes = (
{
closed = 1;
nodes = (
(531,-10,l),
(608,-24,o),
(672,-30,o),
(744,-30,cs),
(1002,-30,o),
(1235,93,o),
(1235,370,cs),
(1235,693,o),
(1040,749,o),
(874,760,c),
(1096,979,l),
(1096,1283,l),
(973,1323,o),
(787,1350,o),
(666,1350,cs),
(309,1350,o),
(78,1222,o),
(78,938,cs),
(78,0,l),
(458,0,l),
(458,773,ls),
(458,909,o),
(475,1035,o),
(624,1035,cs),
(638,1035,o),
(688,1034,o),
(717,1030,c),
(531,843,l),
(531,515,l),
(726,533,o),
(845,477,o),
(845,397,cs),
(845,325,o),
(768,285,o),
(696,285,cs),
(637,285,o),
(589,291,o),
(531,309,c)
);
}
);
width = 1319;
},
{
anchors = (
{
name = bottom;
position = "{581, 0}";
},
{
name = top;
position = "{581, 1320}";
}
);
layerId = "CD238245-2B83-4CD3-AFC6-0F2793207444";
shapes = (
{
closed = 1;
nodes = (
(408,26,l),
(477,-2,o),
(574,-18,o),
(672,-18,cs),
(898,-18,o),
(1074,123,o),
(1074,392,cs),
(1074,688,o),
(840,763,o),
(614,736,c),
(949,1246,l),
(954,1309,l),
(816,1336,o),
(701,1352,o),
(600,1352,cs),
(302,1352,o),
(126,1219,o),
(126,882,cs),
(126,0,l),
(190,0,l),
(190,851,ls),
(190,1170,o),
(314,1291,o),
(611,1291,cs),
(691,1291,o),
(797,1280,o),
(886,1258,c),
(544,744,l),
(544,670,l),
(875,723,o),
(1008,606,o),
(1008,381,cs),
(1008,189,o),
(904,46,o),
(667,46,cs),
(581,46,o),
(480,66,o),
(408,93,c)
);
}
);
width = 1196;
}
);
leftKerningGroup = Germandbls;
rightKerningGroup = Germandbls;
unicode = 7838;
},
{
glyphname = Schwa;
leftMetricsKey = O;
rightMetricsKey = O;
layers = (
{
layerId = "F9C94342-283B-4575-A5D9-94B9950185BC";
shapes = (
{
closed = 1;
nodes = (
(1022,-17,o),
(1259,271,o),
(1259,678,cs),
(1259,1108,o),
(999,1344,o),
(643,1344,cs),
(356,1344,o),
(150,1175,o),
(96,1076,c),
(232,965,l),
(265,1025,o),
(395,1187,o),
(641,1187,cs),
(910,1187,o),
(1083,1007,o),
(1083,720,c),
(47,720,l),
(46,711,o),
(45,673,o),
(45,662,cs),
(45,282,o),
(275,-17,o),
(639,-17,cs)
);
},
{
closed = 1;
nodes = (
(367,131,o),
(221,370,o),
(221,592,c),
(1078,592,l),
(1078,364,o),
(928,131,o),
(641,131,cs)
);
}
);
width = 1348;
},
{
layerId = "542E67F7-1B71-4779-8BF1-78BC1C9E1EC0";
shapes = (
{
closed = 1;
nodes = (
(1062,-26,o),
(1322,226,o),
(1322,661,cs),
(1322,1112,o),
(1022,1344,o),
(664,1344,cs),
(368,1344,o),
(163,1194,o),
(99,1128,c),
(387,874,l),
(432,926,o),
(514,998,o),
(666,998,cs),
(827,998,o),
(933,898,o),
(933,779,c),
(42,779,l),
(38,770,o),
(38,680,o),
(38,669,cs),
(38,259,o),
(278,-26,o),
(670,-26,cs)
);
},
{
closed = 1;
nodes = (
(494,291,o),
(426,419,o),
(426,522,c),
(925,522,l),
(925,413,o),
(848,291,o),
(674,291,cs)
);
}
);
width = 1410;
},
{
layerId = "CD238245-2B83-4CD3-AFC6-0F2793207444";
shapes = (
{
closed = 1;
nodes = (
(1002,-13,o),
(1227,294,o),
(1227,686,cs),
(1227,1106,o),
(987,1344,o),
(632,1344,cs),
(350,1344,o),
(144,1165,o),
(94,1050,c),
(154,1010,l),
(181,1074,o),
(336,1282,o),
(629,1282,cs),
(952,1282,o),
(1158,1061,o),
(1158,691,c),
(50,691,l),
(50,682,o),
(48,669,o),
(48,658,cs),
(48,293,o),
(274,-13,o),
(624,-13,cs)
);
},
{
closed = 1;
nodes = (
(304,51,o),
(118,346,o),
(118,627,c),
(1154,627,l),
(1154,339,o),
(968,51,o),
(624,51,cs)
);
}
);
width = 1316;
}
);
leftKerningGroup = O;
rightKerningGroup = O;
unicode = 399;
},
{
glyphname = T;
layers = (
{
anchors = (
{
name = bottom;
position = "{469, 0}";
},
{
name = center;
position = "{469, 661}";
},
{
name = top;
position = "{469, 1320}";
}
);
layerId = "F9C94342-283B-4575-A5D9-94B9950185BC";
shapes = (
{
closed = 1;
nodes = (
(383,0,l),
(555,0,l),
(555,1165,l),
(911,1165,l),
(911,1320,l),
(27,1320,l),
(27,1165,l),
(383,1165,l)
);
}
);
width = 989;
},
{
anchors = (
{
name = bottom;
position = "{485, 0}";
},
{
name = center;
position = "{485, 661}";
},
{
name = top;
position = "{485, 1320}";
}
);
layerId = "542E67F7-1B71-4779-8BF1-78BC1C9E1EC0";
shapes = (
{
closed = 1;
nodes = (
(291,0,l),
(678,0,l),
(678,984,l),
(963,984,l),
(963,1320,l),
(6,1320,l),
(6,984,l),
(291,984,l)
);
}
);
width = 1042;
},
{
anchors = (
{
name = bottom;
position = "{461, 0}";
},
{
name = center;
position = "{461, 661}";
},
{
name = top;
position = "{461, 1320}";
}
);
layerId = "CD238245-2B83-4CD3-AFC6-0F2793207444";
shapes = (
{
closed = 1;
nodes = (
(429,0,l),
(493,0,l),
(493,1256,l),
(885,1256,l),
(885,1320,l),
(37,1320,l),
(37,1256,l),
(429,1256,l)
);
}
);
width = 962;
}
);
leftKerningGroup = T;
rightKerningGroup = T;
unicode = 84;
},
{
glyphname = Tbar;
layers = (
{
anchors = (
{
name = bottom;
position = "{469, 0}";
},
{
name = center;
position = "{469, 661}";
},
{
name = top;
position = "{469, 1320}";
}
);
layerId = "F9C94342-283B-4575-A5D9-94B9950185BC";
shapes = (
{
closed = 1;
nodes = (
(37,642,l),
(895,642,l),
(895,776,l),
(37,776,l)
);
},
{
alignment = -1;
ref = T;
}
);
width = 989;
},
{
layerId = "542E67F7-1B71-4779-8BF1-78BC1C9E1EC0";
shapes = (
{
closed = 1;
nodes = (
(6,523,l),
(960,523,l),
(960,798,l),
(6,798,l)
);
},
{
alignment = -1;
ref = T;
}
);
width = 1042;
},
{
layerId = "CD238245-2B83-4CD3-AFC6-0F2793207444";
shapes = (
{
closed = 1;
nodes = (
(53,701,l),
(862,701,l),
(862,765,l),
(53,765,l)
);
},
{
alignment = -1;
ref = T;
}
);
width = 962;
}
);
leftKerningGroup = T;
rightKerningGroup = T;
unicode = 358;
},
{
glyphname = U;
layers = (
{
anchors = (
{
name = bottom;
position = "{603, 0}";
},
{
name = ogonek;
position = "{1044, 16}";
},
{
name = top;
position = "{603, 1320}";
},
{
name = topright;
position = "{1106, 1320}";
}
);
layerId = "F9C94342-283B-4575-A5D9-94B9950185BC";
shapes = (
{
closed = 1;
nodes = (
(935,509,ls),
(935,278,o),
(793,135,o),
(603,135,cs),
(412,135,o),
(268,278,o),
(268,509,cs),
(268,1320,l),
(98,1320,l),
(98,500,ls),
(98,174,o),
(309,-24,o),
(603,-24,cs),
(896,-24,o),
(1106,174,o),
(1106,500,cs),
(1106,1320,l),
(935,1320,l)
);
}
);
width = 1243;
},
{
anchors = (
{
name = bottom;
position = "{621, 0}";
},
{
name = ogonek;
position = "{1120, 16}";
},
{
name = top;
position = "{621, 1320}";
},
{
name = topright;
position = "{1171, 1320}";
}
);
layerId = "542E67F7-1B71-4779-8BF1-78BC1C9E1EC0";
shapes = (
{
closed = 1;
nodes = (
(784,536,ls),
(784,389,o),
(731,326,o),
(621,326,cs),
(509,326,o),
(456,389,o),
(456,536,cs),
(456,1320,l),
(69,1320,l),
(69,515,ls),
(69,189,o),
(262,-24,o),
(621,-24,cs),
(979,-24,o),
(1171,189,o),
(1171,515,cs),
(1171,1320,l),
(784,1320,l)
);
}
);
width = 1294;
},
{
anchors = (
{
name = bottom;
position = "{594, 0}";
},
{
name = ogonek;
position = "{1006, 16}";
},
{
name = top;
position = "{594, 1320}";
},
{
name = topright;
position = "{1074, 1320}";
}
);
layerId = "CD238245-2B83-4CD3-AFC6-0F2793207444";
shapes = (
{
closed = 1;
nodes = (
(1011,496,ls),
(1011,222,o),
(824,40,o),
(594,40,cs),
(363,40,o),
(174,222,o),
(174,496,cs),
(174,1320,l),
(112,1320,l),
(112,493,ls),
(112,166,o),
(333,-24,o),
(594,-24,cs),
(854,-24,o),
(1074,166,o),
(1074,493,cs),
(1074,1320,l),
(1011,1320,l)
);
}
);
width = 1218;
}
);
leftKerningGroup = U;
rightKerningGroup = U;
unicode = 85;
},
{
glyphname = V;
layers = (
{
anchors = (
{
name = bottom;
position = "{601, 0}";
},
{
name = top;
position = "{601, 1320}";
}
);
layerId = "F9C94342-283B-4575-A5D9-94B9950185BC";
shapes = (
{
closed = 1;
nodes = (
(1186,1320,l),
(994,1320,l),
(601,208,l),
(210,1320,l),
(17,1320,l),
(500,0,l),
(702,0,l)
);
}
);
width = 1250;
},
{
anchors = (
{
name = bottom;
position = "{677, 0}";
},
{
name = top;
position = "{677, 1320}";
}
);
layerId = "542E67F7-1B71-4779-8BF1-78BC1C9E1EC0";
shapes = (
{
closed = 1;
nodes = (
(1354,1320,l),
(917,1320,l),
(677,501,l),
(437,1320,l),
(0,1320,l),
(461,0,l),
(893,0,l)
);
}
);
width = 1418;
},
{
anchors = (
{
name = bottom;
position = "{563, 0}";
},
{
name = top;
position = "{563, 1320}";
}
);
layerId = "CD238245-2B83-4CD3-AFC6-0F2793207444";
shapes = (
{
closed = 1;
nodes = (
(1102,1320,l),
(1032,1320,l),
(563,61,l),
(96,1320,l),
(26,1320,l),
(520,0,l),
(606,0,l)
);
}
);
width = 1166;
}
);
leftKerningGroup = V;
rightKerningGroup = V;
unicode = 86;
},
{
glyphname = W;
layers = (
{
anchors = (
{
name = bottom;
position = "{801, 0}";
},
{
name = top;
position = "{801, 1320}";
}
);
layerId = "F9C94342-283B-4575-A5D9-94B9950185BC";
shapes = (
{
closed = 1;
nodes = (
(1548,1320,l),
(1353,1320,l),
(1151,223,l),
(1154,223,l),
(868,1320,l),
(712,1320,l),
(426,223,l),
(429,223,l),
(228,1320,l),
(33,1320,l),
(311,0,l),
(526,0,l),
(807,1120,l),
(774,1120,l),
(1054,0,l),
(1269,0,l)
);
}
);
width = 1648;
},
{
anchors = (
{
name = bottom;
position = "{952, 0}";
},
{
name = top;
position = "{952, 1320}";
}
);
layerId = "542E67F7-1B71-4779-8BF1-78BC1C9E1EC0";
shapes = (
{
closed = 1;
nodes = (
(1870,1320,l),
(1424,1320,l),
(1294,512,l),
(1299,512,l),
(1077,1320,l),
(803,1320,l),
(581,512,l),
(586,512,l),
(456,1320,l),
(10,1320,l),
(328,0,l),
(789,0,l),
(974,782,l),
(907,782,l),
(1091,0,l),
(1550,0,l)
);
}
);
width = 1957;
},
{
anchors = (
{
name = bottom;
position = "{726, 0}";
},
{
name = top;
position = "{726, 1320}";
}
);
layerId = "CD238245-2B83-4CD3-AFC6-0F2793207444";
shapes = (
{
closed = 1;
nodes = (
(1386,1320,l),
(1317,1320,l),
(1080,78,l),
(1082,78,l),
(763,1320,l),
(667,1320,l),
(349,78,l),
(350,78,l),
(114,1320,l),
(45,1320,l),
(302,0,l),
(395,0,l),
(723,1290,l),
(707,1290,l),
(1035,0,l),
(1128,0,l)
);
}
);
width = 1493;
}
);
leftKerningGroup = W;
rightKerningGroup = W;
unicode = 87;
},
{
glyphname = X;
layers = (
{
anchors = (
{
name = bottom;
position = "{594, 0}";
},
{
name = top;
position = "{594, 1320}";
}
);
layerId = "F9C94342-283B-4575-A5D9-94B9950185BC";
shapes = (
{
closed = 1;
nodes = (
(1129,1320,l),
(920,1320,l),
(597,843,l),
(271,1320,l),
(55,1320,l),
(480,710,l),
(9,0,l),
(216,0,l),
(592,569,l),
(970,0,l),
(1191,0,l),
(709,710,l)
);
}
);
width = 1241;
},
{
anchors = (
{
name = bottom;
position = "{726, 0}";
},
{
name = top;
position = "{726, 1320}";
}
);
layerId = "542E67F7-1B71-4779-8BF1-78BC1C9E1EC0";
shapes = (
{
closed = 1;
nodes = (
(1386,1320,l),
(915,1320,l),
(730,1008,l),
(544,1320,l),
(50,1320,l),
(475,710,l),
(8,0,l),
(475,0,l),
(714,386,l),
(968,0,l),
(1475,0,l),
(970,710,l)
);
}
);
width = 1531;
},
{
anchors = (
{
name = bottom;
position = "{528, 0}";
},
{
name = top;
position = "{528, 1320}";
}
);
layerId = "CD238245-2B83-4CD3-AFC6-0F2793207444";
shapes = (
{
closed = 1;
nodes = (
(1000,1320,l),
(923,1320,l),
(531,760,l),
(134,1320,l),
(58,1320,l),
(483,710,l),
(10,0,l),
(86,0,l),
(531,661,l),
(971,0,l),
(1048,0,l),
(579,710,l)
);
}
);
width = 1096;
}
);
leftKerningGroup = X;
rightKerningGroup = X;
unicode = 88;
},
{
glyphname = Y;
layers = (
{
anchors = (
{
name = bottom;
position = "{528, 0}";
},
{
name = top;
position = "{528, 1320}";
},
{
name = topleft;
position = "{47, 1320}";
}
);
layerId = "F9C94342-283B-4575-A5D9-94B9950185BC";
shapes = (
{
closed = 1;
nodes = (
(442,0,l),
(614,0,l),
(614,475,l),
(1056,1320,l),
(850,1320,l),
(528,674,l),
(205,1320,l),
(-1,1320,l),
(442,475,l)
);
}
);
width = 1106;
},
{
anchors = (
{
name = bottom;
position = "{598, 0}";
},
{
name = top;
position = "{598, 1320}";
},
{
name = topleft;
position = "{-10, 1320}";
}
);
layerId = "542E67F7-1B71-4779-8BF1-78BC1C9E1EC0";
shapes = (
{
closed = 1;
nodes = (
(405,0,l),
(792,0,l),
(792,475,l),
(1253,1320,l),
(784,1320,l),
(598,915,l),
(413,1320,l),
(-58,1320,l),
(405,475,l)
);
}
);
width = 1266;
},
{
anchors = (
{
name = bottom;
position = "{493, 0}";
},
{
name = top;
position = "{493, 1320}";
},
{
name = topleft;
position = "{75, 1320}";
}
);
layerId = "CD238245-2B83-4CD3-AFC6-0F2793207444";
shapes = (
{
closed = 1;
nodes = (
(461,0,l),
(525,0,l),
(525,475,l),
(957,1320,l),
(883,1320,l),
(493,554,l),
(101,1320,l),
(27,1320,l),
(461,475,l)
);
}
);
width = 1026;
}
);
leftKerningGroup = Y;
rightKerningGroup = Y;
unicode = 89;
},
{
glyphname = Z;
layers = (
{
anchors = (
{
name = bottom;
position = "{564, 0}";
},
{
name = top;
position = "{564, 1320}";
}
);
layerId = "F9C94342-283B-4575-A5D9-94B9950185BC";
shapes = (
{
closed = 1;
nodes = (
(132,1165,l),
(784,1165,l),
(39,0,l),
(1044,0,l),
(1044,155,l),
(345,155,l),
(1087,1320,l),
(132,1320,l)
);
}
);
width = 1177;
},
{
anchors = (
{
name = bottom;
position = "{624, 0}";
},
{
name = top;
position = "{624, 1320}";
}
);
layerId = "542E67F7-1B71-4779-8BF1-78BC1C9E1EC0";
shapes = (
{
closed = 1;
nodes = (
(83,984,l),
(581,984,l),
(-10,0,l),
(1213,0,l),
(1213,336,l),
(661,336,l),
(1256,1320,l),
(83,1320,l)
);
}
);
width = 1318;
},
{
anchors = (
{
name = bottom;
position = "{534, 0}";
},
{
name = top;
position = "{534, 1320}";
}
);
layerId = "CD238245-2B83-4CD3-AFC6-0F2793207444";
shapes = (
{
closed = 1;
nodes = (
(157,1256,l),
(886,1256,l),
(64,0,l),
(960,0,l),
(960,64,l),
(187,64,l),
(1003,1320,l),
(157,1320,l)
);
}
);
width = 1107;
}
);
leftKerningGroup = Z;
rightKerningGroup = Z;
unicode = 90;
},
{
glyphname = a;
leftMetricsKey = o;
layers = (
{
anchors = (
{
name = bottom;
position = "{519, 0}";
},
{
name = ogonek;
position = "{922, 16}";
},
{
name = top;
position = "{519, 821}";
}
);
layerId = "F9C94342-283B-4575-A5D9-94B9950185BC";
shapes = (
{
closed = 1;
nodes = (
(935,0,l),
(935,821,l),
(763,821,l),
(763,667,l),
(747,726,o),
(635,845,o),
(457,845,cs),
(228,845,o),
(49,672,o),
(49,410,cs),
(49,148,o),
(228,-24,o),
(457,-24,cs),
(638,-24,o),
(750,109,o),
(765,160,c),
(765,0,l)
);
},
{
closed = 1;
nodes = (
(221,587,o),
(353,701,o),
(495,701,cs),
(648,701,o),
(761,584,o),
(761,410,cs),
(761,235,o),
(648,120,o),
(495,120,cs),
(353,120,o),
(221,232,o),
(221,410,cs)
);
}
);
width = 1063;
},
{
anchors = (
{
name = bottom;
position = "{570, 0}";
},
{
name = ogonek;
position = "{1029, 16}";
},
{
name = top;
position = "{570, 821}";
}
);
layerId = "542E67F7-1B71-4779-8BF1-78BC1C9E1EC0";
shapes = (
{
closed = 1;
nodes = (
(1078,0,l),
(1078,821,l),
(686,821,l),
(686,725,l),
(651,776,o),
(566,845,o),
(426,845,cs),
(179,845,o),
(32,635,o),
(32,410,cs),
(32,184,o),
(179,-24,o),
(426,-24,cs),
(573,-24,o),
(669,78,o),
(690,115,c),
(690,0,l)
);
},
{
closed = 1;
nodes = (
(418,478,o),
(472,541,o),
(552,541,cs),
(632,541,o),
(686,478,o),
(686,410,cs),
(686,341,o),
(632,280,o),
(552,280,cs),
(472,280,o),
(418,341,o),
(418,410,cs)
);
}
);
width = 1174;
},
{
anchors = (
{
name = bottom;
position = "{493, 0}";
},
{
name = ogonek;
position = "{869, 16}";
},
{
name = top;
position = "{493, 821}";
}
);
layerId = "CD238245-2B83-4CD3-AFC6-0F2793207444";
shapes = (
{
closed = 1;
nodes = (
(864,0,l),
(864,821,l),
(802,821,l),
(802,638,l),
(795,701,o),
(669,845,o),
(472,845,cs),
(253,845,o),
(58,690,o),
(58,410,cs),
(58,130,o),
(253,-24,o),
(472,-24,cs),
(670,-24,o),
(790,125,o),
(802,182,c),
(802,0,l)
);
},
{
closed = 1;
nodes = (
(122,642,o),
(294,781,o),
(466,781,cs),
(656,781,o),
(798,637,o),
(798,410,cs),
(798,182,o),
(656,40,o),
(466,40,cs),
(294,40,o),
(122,178,o),
(122,410,cs)
);
}
);
width = 1008;
}
);
leftKerningGroup = o;
rightKerningGroup = n;
unicode = 97;
},
{
glyphname = a.ss01;
leftMetricsKey = o;
rightMetricsKey = n;
layers = (
{
anchors = (
{
name = bottom;
position = "{446, 0}";
},
{
name = ogonek;
position = "{1024, 16}";
},
{
name = top;
position = "{463, 821}";
}
);
layerId = "F9C94342-283B-4575-A5D9-94B9950185BC";
shapes = (
{
closed = 1;
nodes = (
(560,-24,o),
(690,48,o),
(725,115,c),
(708,137,l),
(708,0,l),
(866,0,l),
(866,479,ls),
(866,737,o),
(659,845,o),
(437,845,cs),
(224,845,o),
(92,744,o),
(60,696,c),
(155,601,l),
(197,652,o),
(276,717,o),
(431,717,cs),
(592,717,o),
(708,635,o),
(708,468,cs),
(708,397,l),
(718,421,l),
(688,472,o),
(564,526,o),
(403,526,cs),
(233,526,o),
(49,463,o),
(49,255,cs),
(49,58,o),
(216,-24,o),
(382,-24,cs)
);
},
{
closed = 1;
nodes = (
(319,97,o),
(208,132,o),
(208,254,cs),
(208,377,o),
(315,415,o),
(430,415,cs),
(555,415,o),
(674,354,o),
(708,293,c),
(708,228,l),
(674,164,o),
(550,97,o),
(426,97,cs)
);
}
);
width = 989;
},
{
anchors = (
{
name = bottom;
position = "{502, 0}";
},
{
name = ogonek;
position = "{1114, 17}";
},
{
name = top;
position = "{514, 821}";
}
);
layerId = "542E67F7-1B71-4779-8BF1-78BC1C9E1EC0";
shapes = (
{
closed = 1;
nodes = (
(515,-24,o),
(601,66,o),
(617,135,c),
(594,143,l),
(594,0,l),
(979,0,l),
(979,433,ls),
(979,757,o),
(691,845,o),
(433,845,cs),
(208,845,o),
(53,790,o),
(32,778,c),
(182,506,l),
(226,535,o),
(306,557,o),
(400,557,cs),
(525,557,o),
(594,501,o),
(594,437,cs),
(594,395,l),
(614,405,l),
(594,468,o),
(482,512,o),
(364,512,cs),
(230,512,o),
(36,457,o),
(36,255,cs),
(36,87,o),
(168,-24,o),
(328,-24,cs)
);
},
{
closed = 1;
nodes = (
(459,200,o),
(429,220,o),
(429,252,cs),
(429,284,o),
(459,306,o),
(498,306,cs),
(540,306,o),
(590,271,o),
(594,215,c),
(594,296,l),
(591,233,o),
(540,200,o),
(498,200,cs)
);
}
);
width = 1051;
},
{
anchors = (
{
name = bottom;
position = "{458, 0}";
},
{
name = ogonek;
position = "{1043, 16}";
},
{
name = top;
position = "{474, 821}";
}
);
layerId = "97606C23-03F8-4F6F-95F3-781601069D41";
partSelection = {
Wt = 2;
};
name = Extralight.;
shapes = (
{
closed = 1;
nodes = (
(552,-24,o),
(673,47,o),
(704,114,c),
(686,138,l),
(686,0,l),
(889,0,l),
(889,470,ls),
(889,741,o),
(666,845,o),
(437,845,cs),
(226,845,o),
(85,753,o),
(55,717,c),
(166,591,l),
(208,633,o),
(287,685,o),
(430,685,cs),
(584,685,o),
(686,608,o),
(686,462,cs),
(686,397,l),
(698,422,l),
(670,474,o),
(548,523,o),
(396,523,cs),
(233,523,o),
(47,462,o),
(47,255,cs),
(47,64,o),
(207,-24,o),
(372,-24,cs)
);
},
{
closed = 1;
nodes = (
(343,127,o),
(253,159,o),
(253,254,cs),
(253,349,o),
(335,389,o),
(435,389,cs),
(543,389,o),
(658,328,o),
(686,268,c),
(686,253,l),
(658,189,o),
(539,127,o),
(436,127,cs)
);
}
);
width = 1005;
},
{
anchors = (
{
name = bottom;
position = "{429, 0}";
},
{
name = ogonek;
position = "{993, 16}";
},
{
name = top;
position = "{448, 821}";
}
);
layerId = "CD238245-2B83-4CD3-AFC6-0F2793207444";
shapes = (
{
closed = 1;
nodes = (
(583,-24,o),
(731,50,o),
(773,116,c),
(759,134,l),
(759,0,l),
(825,0,l),
(825,497,ls),
(825,729,o),
(651,845,o),
(443,845,cs),
(225,845,o),
(112,725,o),
(76,654,c),
(140,620,l),
(180,689,o),
(259,781,o),
(439,781,cs),
(615,781,o),
(759,689,o),
(759,481,cs),
(759,398,l),
(765,418,l),
(730,467,o),
(601,532,o),
(424,532,cs),
(238,532,o),
(58,465,o),
(58,255,cs),
(58,47,o),
(239,-24,o),
(409,-24,cs)
);
},
{
closed = 1;
nodes = (
(277,37,o),
(124,79,o),
(124,255,cs),
(124,433,o),
(280,468,o),
(426,468,cs),
(584,468,o),
(713,407,o),
(759,344,c),
(759,178,l),
(711,114,o),
(577,37,o),
(411,37,cs)
);
}
);
width = 974;
}
);
partsSettings = (
{
bottomValue = 0;
name = Wt;
topValue = 1000;
}
);
leftKerningGroup = o;
rightKerningGroup = n;
},
{
glyphname = ae;
leftMetricsKey = a;
rightMetricsKey = e;
layers = (
{
anchors = (
{
name = bottom;
position = "{723, 0}";
},
{
name = top;
position = "{723, 821}";
}
);
layerId = "F9C94342-283B-4575-A5D9-94B9950185BC";
shapes = (
{
closed = 1;
nodes = (
(533,-24,o),
(652,86,o),
(680,147,c),
(730,54,o),
(860,-24,o),
(1005,-24,cs),
(1183,-24,o),
(1306,75,o),
(1367,148,c),
(1261,246,l),
(1230,204,o),
(1139,112,o),
(1016,112,cs),
(876,112,o),
(777,201,o),
(777,382,c),
(1384,382,l),
(1384,392,o),
(1386,398,o),
(1386,410,cs),
(1386,703,o),
(1233,845,o),
(1005,845,cs),
(858,845,o),
(737,741,o),
(699,657,c),
(664,746,o),
(561,845,o),
(391,845,cs),
(231,845,o),
(111,791,o),
(65,751,c),
(149,629,l),
(185,665,o),
(273,714,o),
(380,714,cs),
(488,714,o),
(609,655,o),
(609,478,cs),
(609,440,l),
(590,460,o),
(510,516,o),
(373,516,cs),
(193,516,o),
(49,407,o),
(49,253,cs),
(49,68,o),
(188,-24,o),
(358,-24,cs)
);
},
{
closed = 1;
nodes = (
(278,91,o),
(200,159,o),
(200,252,cs),
(200,354,o),
(302,412,o),
(395,412,cs),
(499,412,o),
(582,352,o),
(582,260,cs),
(582,177,o),
(495,89,o),
(379,90,cs)
);
},
{
closed = 1;
nodes = (
(785,485,l),
(797,631,o),
(879,729,o),
(1013,729,cs),
(1189,729,o),
(1218,552,o),
(1223,485,c)
);
}
);
width = 1473;
},
{
anchors = (
{
name = bottom;
position = "{838, 0}";
},
{
name = top;
position = "{838, 821}";
}
);
layerId = "542E67F7-1B71-4779-8BF1-78BC1C9E1EC0";
shapes = (
{
closed = 1;
nodes = (
(592,-24,o),
(723,62,o),
(765,126,c),
(845,37,o),
(971,-24,o),
(1112,-24,cs),
(1306,-24,o),
(1442,21,o),
(1544,102,c),
(1341,323,l),
(1288,275,o),
(1200,256,o),
(1133,256,cs),
(1114,256,o),
(982,274,o),
(982,363,c),
(1571,363,l),
(1571,373,o),
(1573,398,o),
(1573,410,cs),
(1573,714,o),
(1376,845,o),
(1112,845,cs),
(971,845,o),
(856,784,o),
(786,723,c),
(741,795,o),
(602,845,o),
(451,845,cs),
(246,845,o),
(91,805,o),
(32,774,c),
(184,533,l),
(222,552,o),
(312,579,o),
(419,579,cs),
(579,579,o),
(618,510,o),
(618,478,cs),
(618,466,l),
(595,480,o),
(542,514,o),
(416,514,cs),
(211,514,o),
(72,394,o),
(72,258,cs),
(72,86,o),
(200,-24,o),
(384,-24,cs)
);
},
{
closed = 1;
nodes = (
(427,190,o),
(395,222,o),
(395,261,cs),
(395,299,o),
(427,331,o),
(466,331,cs),
(504,331,o),
(536,299,o),
(536,261,cs),
(536,222,o),
(504,190,o),
(466,190,cs)
);
},
{
closed = 1;
nodes = (
(990,550,l),
(998,586,o),
(1058,624,o),
(1122,624,cs),
(1194,624,o),
(1221,579,o),
(1232,550,c)
);
}
);
width = 1637;
},
{
anchors = (
{
name = bottom;
position = "{686, 0}";
},
{
name = top;
position = "{686, 821}";
}
);
layerId = "CD238245-2B83-4CD3-AFC6-0F2793207444";
shapes = (
{
closed = 1;
nodes = (
(525,-24,o),
(638,98,o),
(659,158,c),
(694,62,o),
(826,-24,o),
(973,-24,cs),
(1142,-24,o),
(1259,102,o),
(1299,171,c),
(1242,208,l),
(1222,168,o),
(1130,40,o),
(979,40,cs),
(778,40,o),
(696,165,o),
(696,392,c),
(1312,392,l),
(1312,402,o),
(1314,398,o),
(1314,410,cs),
(1314,698,o),
(1182,845,o),
(973,845,cs),
(822,845,o),
(699,720,o),
(677,624,c),
(646,722,o),
(562,845,o),
(382,845,cs),
(245,845,o),
(142,784,o),
(102,739,c),
(152,677,l),
(187,722,o),
(275,781,o),
(382,781,cs),
(464,781,o),
(626,728,o),
(626,478,cs),
(626,427,l),
(608,450,o),
(515,517,o),
(373,517,cs),
(205,517,o),
(58,413,o),
(58,250,cs),
(58,59,o),
(203,-24,o),
(366,-24,cs)
);
},
{
closed = 1;
nodes = (
(224,42,o),
(123,128,o),
(123,248,cs),
(123,382,o),
(261,453,o),
(381,453,cs),
(518,453,o),
(626,379,o),
(626,259,cs),
(626,154,o),
(512,38,o),
(357,40,cs)
);
},
{
closed = 1;
nodes = (
(704,453,l),
(717,653,o),
(811,781,o),
(979,781,cs),
(1208,781,o),
(1238,539,o),
(1240,453,c)
);
}
);
width = 1412;
}
);
leftKerningGroup = a;
rightKerningGroup = e;
unicode = 230;
},
{
glyphname = b;
layers = (
{
anchors = (
{
name = bottom;
position = "{512, 0}";
},
{
name = top;
position = "{512, 1440}";
}
);
layerId = "F9C94342-283B-4575-A5D9-94B9950185BC";
shapes = (
{
closed = 1;
nodes = (
(274,0,l),
(274,160,l),
(295,93,o),
(423,-24,o),
(593,-24,cs),
(821,-24,o),
(989,148,o),
(989,410,cs),
(989,672,o),
(821,845,o),
(593,845,cs),
(413,845,o),
(289,729,o),
(277,667,c),
(277,1376,l),
(101,1376,l),
(101,0,l)
);
},
{
closed = 1;
nodes = (
(816,232,o),
(695,120,o),
(554,120,cs),
(401,120,o),
(277,235,o),
(277,410,cs),
(277,584,o),
(401,701,o),
(554,701,cs),
(695,701,o),
(816,587,o),
(816,410,cs)
);
}
);
width = 1048;
},
{
anchors = (
{
name = bottom;
position = "{587, 0}";
},
{
name = top;
position = "{587, 1440}";
}
);
layerId = "542E67F7-1B71-4779-8BF1-78BC1C9E1EC0";
shapes = (
{
closed = 1;
nodes = (
(453,0,l),
(453,115,l),
(506,34,o),
(613,-24,o),
(720,-24,cs),
(966,-24,o),
(1110,184,o),
(1110,410,cs),
(1110,635,o),
(966,845,o),
(720,845,cs),
(579,845,o),
(478,776,o),
(456,725,c),
(456,1376,l),
(64,1376,l),
(64,0,l)
);
},
{
closed = 1;
nodes = (
(725,341,o),
(670,280,o),
(590,280,cs),
(510,280,o),
(456,341,o),
(456,410,cs),
(456,478,o),
(510,541,o),
(590,541,cs),
(670,541,o),
(725,478,o),
(725,410,cs)
);
}
);
width = 1165;
},
{
anchors = (
{
name = bottom;
position = "{475, 0}";
},
{
name = top;
position = "{475, 1440}";
}
);
layerId = "CD238245-2B83-4CD3-AFC6-0F2793207444";
shapes = (
{
closed = 1;
nodes = (
(184,0,l),
(184,182,l),
(190,122,o),
(328,-24,o),
(530,-24,cs),
(749,-24,o),
(928,130,o),
(928,410,cs),
(928,690,o),
(749,845,o),
(530,845,cs),
(330,845,o),
(194,706,o),
(187,638,c),
(187,1376,l),
(120,1376,l),
(120,0,l)
);
},
{
closed = 1;
nodes = (
(862,178,o),
(707,40,o),
(536,40,cs),
(346,40,o),
(187,182,o),
(187,410,cs),
(187,637,o),
(346,781,o),
(536,781,cs),
(707,781,o),
(862,642,o),
(862,410,cs)
);
}
);
width = 989;
}
);
leftKerningGroup = h;
rightKerningGroup = o;
unicode = 98;
},
{
glyphname = c;
layers = (
{
anchors = (
{
name = bottom;
position = "{401, 0}";
},
{
name = top;
position = "{401, 821}";
}
);
layerId = "F9C94342-283B-4575-A5D9-94B9950185BC";
shapes = (
{
closed = 1;
nodes = (
(363,120,o),
(229,229,o),
(229,411,cs),
(229,593,o),
(363,701,o),
(492,701,cs),
(598,701,o),
(658,647,o),
(674,632,c),
(760,757,l),
(736,779,o),
(633,845,o),
(487,845,cs),
(261,845,o),
(61,691,o),
(61,411,cs),
(61,131,o),
(261,-24,o),
(487,-24,cs),
(635,-24,o),
(742,38,o),
(763,56,c),
(678,181,l),
(662,166,o),
(596,120,o),
(492,120,cs)
);
}
);
width = 830;
},
{
anchors = (
{
name = bottom;
position = "{430, 0}";
},
{
name = top;
position = "{430, 821}";
}
);
layerId = "542E67F7-1B71-4779-8BF1-78BC1C9E1EC0";
shapes = (
{
closed = 1;
nodes = (
(477,280,o),
(422,344,o),
(422,411,cs),
(422,477,o),
(477,541,o),
(555,541,cs),
(616,541,o),
(656,510,o),
(669,499,c),
(850,763,l),
(811,795,o),
(699,845,o),
(554,845,cs),
(230,845,o),
(46,666,o),
(46,411,cs),
(46,157,o),
(230,-24,o),
(554,-24,cs),
(704,-24,o),
(806,29,o),
(846,62,c),
(669,325,l),
(651,307,o),
(611,280,o),
(555,280,cs)
);
}
);
width = 867;
},
{
anchors = (
{
name = bottom;
position = "{386, 0}";
},
{
name = top;
position = "{386, 821}";
}
);
layerId = "CD238245-2B83-4CD3-AFC6-0F2793207444";
shapes = (
{
closed = 1;
nodes = (
(306,40,o),
(133,171,o),
(133,411,cs),
(133,651,o),
(306,781,o),
(461,781,cs),
(589,781,o),
(659,715,o),
(677,698,c),
(715,754,l),
(698,771,o),
(600,845,o),
(453,845,cs),
(277,845,o),
(69,704,o),
(69,411,cs),
(69,118,o),
(277,-24,o),
(453,-24,cs),
(600,-24,o),
(710,42,o),
(722,53,c),
(683,109,l),
(667,96,o),
(589,40,o),
(461,40,cs)
);
}
);
width = 811;
}
);
leftKerningGroup = o;
rightKerningGroup = c;
unicode = 99;
},
{
glyphname = eth;
layers = (
{
layerId = "F9C94342-283B-4575-A5D9-94B9950185BC";
shapes = (
{
closed = 1;
nodes = (
(80,156,o),
(256,-24,o),
(542,-24,cs),
(824,-24,o),
(998,168,o),
(998,439,cs),
(998,825,o),
(821,1043,o),
(601,1176,c),
(715,1282,l),
(621,1370,l),
(493,1237,l),
(421,1272,o),
(302,1313,o),
(232,1330,c),
(187,1190,l),
(227,1182,o),
(325,1149,o),
(381,1122,c),
(258,998,l),
(346,911,l),
(500,1072,l),
(623,1003,o),
(749,859,o),
(783,749,c),
(759,775,o),
(683,845,o),
(511,845,cs),
(295,845,o),
(80,690,o),
(80,410,cs)
);
},
{
closed = 1;
nodes = (
(251,587,o),
(366,700,o),
(539,700,cs),
(724,700,o),
(826,602,o),
(826,410,cs),
(826,246,o),
(732,120,o),
(539,120,cs),
(362,120,o),
(251,245,o),
(251,410,cs)
);
}
);
width = 1091;
},
{
layerId = "542E67F7-1B71-4779-8BF1-78BC1C9E1EC0";
shapes = (
{
closed = 1;
nodes = (
(53,157,o),
(266,-24,o),
(570,-24,cs),
(851,-24,o),
(1080,158,o),
(1080,464,cs),
(1080,805,o),
(930,1066,o),
(741,1203,c),
(805,1270,l),
(666,1421,l),
(558,1320,l),
(405,1394,o),
(278,1434,o),
(227,1443,c),
(146,1139,l),
(174,1133,o),
(240,1110,o),
(315,1078,c),
(230,994,l),
(376,846,l),
(525,987,l),
(578,950,o),
(642,850,o),
(658,802,c),
(634,827,o),
(605,845,o),
(502,845,cs),
(314,845,o),
(53,710,o),
(53,410,cs)
);
},
{
closed = 1;
nodes = (
(440,480,o),
(490,539,o),
(566,539,cs),
(643,539,o),
(693,483,o),
(693,410,cs),
(693,339,o),
(643,283,o),
(566,283,cs),
(490,283,o),
(440,341,o),
(440,410,cs)
);
}
);
width = 1134;
},
{
layerId = "CD238245-2B83-4CD3-AFC6-0F2793207444";
shapes = (
{
closed = 1;
nodes = (
(93,155,o),
(251,-24,o),
(528,-24,cs),
(810,-24,o),
(957,173,o),
(957,426,cs),
(957,835,o),
(766,1032,o),
(531,1162,c),
(670,1288,l),
(598,1344,l),
(461,1195,l),
(429,1211,o),
(314,1253,o),
(235,1274,c),
(208,1216,l),
(254,1206,o),
(368,1168,o),
(414,1144,c),
(272,1000,l),
(331,944,l),
(488,1114,l),
(646,1030,o),
(803,864,o),
(846,723,c),
(822,749,o),
(722,845,o),
(515,845,cs),
(286,845,o),
(93,680,o),
(93,410,cs)
);
},
{
closed = 1;
nodes = (
(157,640,o),
(304,781,o),
(526,781,cs),
(765,781,o),
(893,662,o),
(893,410,cs),
(893,200,o),
(776,38,o),
(526,38,cs),
(298,38,o),
(157,197,o),
(157,410,cs)
);
}
);
width = 1070;
}
);
leftKerningGroup = eth;
rightKerningGroup = eth;
unicode = 240;
},
{
glyphname = dcroat;
layers = (
{
anchors = (
{
name = bottom;
position = "{558, -130}";
},
{
name = center;
position = "{558, 542}";
},
{
name = top;
position = "{558, 1440}";
},
{
name = topright;
position = "{1012, 1144}";
}
);
layerId = "F9C94342-283B-4575-A5D9-94B9950185BC";
shapes = (
{
closed = 1;
nodes = (
(1051,1027,l),
(1051,1143,l),
(560,1143,l),
(560,1027,l)
);
},
{
alignment = -1;
ref = d;
}
);
width = 1048;
},
{
layerId = "542E67F7-1B71-4779-8BF1-78BC1C9E1EC0";
shapes = (
{
closed = 1;
nodes = (
(1170,990,l),
(1170,1216,l),
(533,1216,l),
(533,990,l)
);
},
{
alignment = -1;
ref = d;
}
);
width = 1165;
},
{
layerId = "CD238245-2B83-4CD3-AFC6-0F2793207444";
shapes = (
{
closed = 1;
nodes = (
(992,1045,l),
(992,1107,l),
(573,1107,l),
(573,1045,l)
);
},
{
alignment = -1;
ref = d;
}
);
width = 989;
}
);
leftKerningGroup = o;
rightKerningGroup = l;
unicode = 273;
},
{
glyphname = e;
leftMetricsKey = o;
rightMetricsKey = o;
layers = (
{
anchors = (
{
name = bottom;
position = "{461, 0}";
},
{
name = ogonek;
position = "{816, 16}";
},
{
name = top;
position = "{461, 821}";
}
);
layerId = "F9C94342-283B-4575-A5D9-94B9950185BC";
shapes = (
{
closed = 1;
nodes = (
(857,379,l),
(858,389,o),
(860,423,o),
(860,434,cs),
(860,685,o),
(704,845,o),
(464,845,cs),
(201,845,o),
(49,660,o),
(49,420,cs),
(49,160,o),
(210,-24,o),
(475,-24,cs),
(667,-24,o),
(767,38,o),
(836,139,c),
(753,238,l),
(722,185,o),
(639,101,o),
(485,101,cs),
(299,101,o),
(206,227,o),
(204,379,c)
);
},
{
closed = 1;
nodes = (
(210,504,l),
(218,595,o),
(283,721,o),
(466,721,cs),
(640,721,o),
(699,589,o),
(703,504,c)
);
}
);
width = 947;
},
{
anchors = (
{
name = bottom;
position = "{504, 0}";
},
{
name = ogonek;
position = "{898, 16}";
},
{
name = top;
position = "{504, 821}";
}
);
layerId = "542E67F7-1B71-4779-8BF1-78BC1C9E1EC0";
shapes = (
{
closed = 1;
nodes = (
(960,333,l),
(963,342,o),
(963,384,o),
(963,395,cs),
(963,704,o),
(784,845,o),
(498,845,cs),
(202,845,o),
(32,658,o),
(32,419,cs),
(32,114,o),
(251,-24,o),
(530,-24,cs),
(778,-24,o),
(878,27,o),
(917,51,c),
(776,298,l),
(733,269,o),
(645,258,o),
(557,258,cs),
(475,258,o),
(414,285,o),
(405,333,c)
);
},
{
closed = 1;
nodes = (
(413,494,l),
(414,566,o),
(458,592,o),
(504,592,cs),
(555,592,o),
(589,560,o),
(592,494,c)
);
}
);
width = 1027;
},
{
anchors = (
{
name = bottom;
position = "{471, 0}";
},
{
name = ogonek;
position = "{834, 16}";
},
{
name = top;
position = "{471, 821}";
}
);
layerId = "97606C23-03F8-4F6F-95F3-781601069D41";
partSelection = {
Wt = 2;
};
name = Extralight.;
shapes = (
{
closed = 1;
nodes = (
(879,360,l),
(881,370,o),
(882,415,o),
(882,426,cs),
(882,689,o),
(722,845,o),
(472,845,cs),
(203,845,o),
(47,660,o),
(47,420,cs),
(47,151,o),
(220,-24,o),
(488,-24,cs),
(691,-24,o),
(791,36,o),
(854,121,c),
(759,250,l),
(726,202,o),
(642,132,o),
(501,132,cs),
(336,132,o),
(249,229,o),
(246,360,c)
);
},
{
closed = 1;
nodes = (
(252,516,l),
(259,585,o),
(320,691,o),
(475,691,cs),
(625,691,o),
(679,579,o),
(682,516,c)
);
}
);
width = 965;
},
{
anchors = (
{
name = bottom;
position = "{446, 0}";
},
{
name = ogonek;
position = "{786, 16}";
},
{
name = top;
position = "{446, 821}";
}
);
layerId = "CD238245-2B83-4CD3-AFC6-0F2793207444";
shapes = (
{
closed = 1;
nodes = (
(819,416,l),
(819,426,o),
(821,438,o),
(821,450,cs),
(821,678,o),
(675,845,o),
(453,845,cs),
(203,845,o),
(58,661,o),
(58,421,cs),
(58,178,o),
(197,-24,o),
(456,-24,cs),
(626,-24,o),
(725,43,o),
(806,174,c),
(747,214,l),
(720,152,o),
(640,38,o),
(459,38,cs),
(232,38,o),
(126,222,o),
(126,416,c)
);
},
{
closed = 1;
nodes = (
(131,480,l),
(142,616,o),
(216,782,o),
(453,782,cs),
(677,782,o),
(746,610,o),
(750,480,c)
);
}
);
width = 919;
}
);
partsSettings = (
{
bottomValue = 0;
name = Wt;
topValue = 1000;
}
);
leftKerningGroup = o;
rightKerningGroup = o;
unicode = 101;
},
{
glyphname = f;
layers = (
{
anchors = (
{
name = bottom;
position = "{308, 0}";
},
{
name = top;
position = "{308, 1440}";
}
);
layerId = "F9C94342-283B-4575-A5D9-94B9950185BC";
shapes = (
{
closed = 1;
nodes = (
(28,672,l),
(196,672,l),
(196,0,l),
(368,0,l),
(368,672,l),
(602,672,l),
(602,821,l),
(368,821,l),
(368,1034,ls),
(368,1215,o),
(439,1249,o),
(505,1249,cs),
(566,1249,o),
(600,1219,o),
(607,1211,c),
(677,1344,l),
(665,1355,o),
(604,1400,o),
(489,1400,cs),
(346,1400,o),
(196,1304,o),
(196,1054,cs),
(196,821,l),
(28,821,l)
);
}
);
width = 654;
},
{
anchors = (
{
name = bottom;
position = "{354, 0}";
},
{
name = top;
position = "{354, 1440}";
}
);
layerId = "542E67F7-1B71-4779-8BF1-78BC1C9E1EC0";
shapes = (
{
closed = 1;
nodes = (
(16,501,l),
(130,501,l),
(130,0,l),
(523,0,l),
(523,501,l),
(706,501,l),
(706,821,l),
(523,821,l),
(523,995,ls),
(523,1050,o),
(554,1069,o),
(582,1069,cs),
(613,1069,o),
(635,1043,o),
(642,1032,c),
(790,1317,l),
(766,1341,o),
(686,1400,o),
(522,1400,cs),
(323,1400,o),
(130,1259,o),
(130,1027,cs),
(130,821,l),
(16,821,l)
);
}
);
width = 742;
},
{
anchors = (
{
name = bottom;
position = "{285, 0}";
},
{
name = top;
position = "{285, 1440}";
}
);
layerId = "CD238245-2B83-4CD3-AFC6-0F2793207444";
shapes = (
{
closed = 1;
nodes = (
(34,758,l),
(229,758,l),
(229,0,l),
(291,0,l),
(291,758,l),
(550,758,l),
(550,821,l),
(291,821,l),
(291,1054,ls),
(291,1298,o),
(382,1339,o),
(466,1339,cs),
(542,1339,o),
(582,1307,o),
(590,1301,c),
(621,1357,l),
(614,1362,o),
(563,1400,o),
(472,1400,cs),
(357,1400,o),
(229,1326,o),
(229,1067,cs),
(229,821,l),
(34,821,l)
);
}
);
width = 610;
}
);
leftKerningGroup = f;
rightKerningGroup = f;
unicode = 102;
},
{
glyphname = g;
layers = (
{
anchors = (
{
name = bottom;
position = "{537, -416}";
},
{
name = top;
position = "{537, 821}";
}
);
layerId = "F9C94342-283B-4575-A5D9-94B9950185BC";
shapes = (
{
closed = 1;
nodes = (
(741,-439,o),
(935,-295,o),
(935,-23,cs),
(935,15,l),
(765,15,l),
(765,-12,ls),
(765,-172,o),
(666,-295,o),
(491,-295,cs),
(312,-295,o),
(243,-221,o),
(205,-168,c),
(91,-277,l),
(162,-375,o),
(303,-439,o),
(497,-439,cs)
);
},
{
alignment = -1;
ref = a;
}
);
width = 1070;
},
{
anchors = (
{
name = bottom;
position = "{566, -416}";
},
{
name = top;
position = "{566, 821}";
}
);
layerId = "542E67F7-1B71-4779-8BF1-78BC1C9E1EC0";
shapes = (
{
closed = 1;
nodes = (
(837,-440,o),
(1078,-299,o),
(1078,-22,cs),
(1078,16,l),
(690,16,l),
(690,0,ls),
(690,-104,o),
(611,-138,o),
(509,-138,cs),
(395,-138,o),
(318,-90,o),
(267,-34,c),
(45,-272,l),
(165,-416,o),
(370,-440,o),
(528,-440,cs)
);
},
{
alignment = -1;
ref = a;
}
);
width = 1174;
},
{
anchors = (
{
name = bottom;
position = "{523, -416}";
},
{
name = top;
position = "{523, 821}";
}
);
layerId = "CD238245-2B83-4CD3-AFC6-0F2793207444";
shapes = (
{
closed = 1;
nodes = (
(693,-438,o),
(864,-293,o),
(864,-24,cs),
(864,14,l),
(802,14,l),
(802,-18,ls),
(802,-206,o),
(693,-373,o),
(482,-373,cs),
(270,-373,o),
(206,-286,o),
(174,-235,c),
(114,-280,l),
(160,-355,o),
(270,-438,o),
(482,-438,cs)
);
},
{
alignment = -1;
ref = a;
}
);
width = 1018;
}
);
leftKerningGroup = g;
rightKerningGroup = g;
unicode = 103;
},
{
glyphname = h;
layers = (
{
anchors = (
{
name = bottom;
position = "{488, 0}";
},
{
name = center;
position = "{488, 720}";
},
{
name = top;
position = "{488, 1440}";
}
);
layerId = "F9C94342-283B-4575-A5D9-94B9950185BC";
shapes = (
{
closed = 1;
nodes = (
(423,845,o),
(301,744,o),
(285,675,c),
(285,1376,l),
(109,1376,l),
(109,0,l),
(285,0,l),
(285,453,ls),
(285,600,o),
(406,711,o),
(526,711,cs),
(645,711,o),
(727,640,o),
(727,478,cs),
(727,0,l),
(903,0,l),
(903,512,ls),
(903,748,o),
(731,845,o),
(570,845,cs)
);
}
);
width = 1033;
},
{
anchors = (
{
name = bottom;
position = "{565, 0}";
},
{
name = center;
position = "{565, 720}";
},
{
name = top;
position = "{565, 1440}";
}
);
layerId = "542E67F7-1B71-4779-8BF1-78BC1C9E1EC0";
shapes = (
{
closed = 1;
nodes = (
(586,845,o),
(475,781,o),
(450,718,c),
(450,1376,l),
(56,1376,l),
(56,0,l),
(450,0,l),
(450,432,ls),
(450,517,o),
(515,571,o),
(586,571,cs),
(656,571,o),
(694,517,o),
(694,432,cs),
(694,0,l),
(1088,0,l),
(1088,493,ls),
(1088,744,o),
(896,845,o),
(715,845,cs)
);
}
);
width = 1160;
},
{
anchors = (
{
name = bottom;
position = "{450, 0}";
},
{
name = center;
position = "{450, 720}";
},
{
name = top;
position = "{450, 1440}";
}
);
layerId = "CD238245-2B83-4CD3-AFC6-0F2793207444";
shapes = (
{
closed = 1;
nodes = (
(342,845,o),
(214,725,o),
(203,653,c),
(203,1376,l),
(136,1376,l),
(136,0,l),
(203,0,l),
(203,464,ls),
(203,642,o),
(352,781,o),
(496,781,cs),
(640,781,o),
(744,702,o),
(744,501,cs),
(744,0,l),
(810,0,l),
(810,522,ls),
(810,750,o),
(648,845,o),
(498,845,cs)
);
}
);
width = 970;
}
);
leftKerningGroup = h;
rightKerningGroup = n;
unicode = 104;
},
{
glyphname = hbar;
layers = (
{
anchors = (
{
name = bottom;
position = "{488, 0}";
},
{
name = center;
position = "{488, 720}";
},
{
name = top;
position = "{488, 1440}";
}
);
layerId = "F9C94342-283B-4575-A5D9-94B9950185BC";
shapes = (
{
closed = 1;
nodes = (
(494,1027,l),
(494,1143,l),
(1,1143,l),
(1,1027,l)
);
},
{
alignment = -1;
ref = h;
}
);
width = 1033;
},
{
layerId = "542E67F7-1B71-4779-8BF1-78BC1C9E1EC0";
shapes = (
{
closed = 1;
nodes = (
(597,990,l),
(597,1216,l),
(-40,1216,l),
(-40,990,l)
);
},
{
alignment = -1;
ref = h;
}
);
width = 1160;
},
{
layerId = "CD238245-2B83-4CD3-AFC6-0F2793207444";
shapes = (
{
closed = 1;
nodes = (
(442,1045,l),
(442,1107,l),
(22,1107,l),
(22,1045,l)
);
},
{
alignment = -1;
ref = h;
}
);
width = 970;
}
);
leftKerningGroup = h;
rightKerningGroup = n;
unicode = 295;
},
{
glyphname = i;
layers = (
{
anchors = (
{
name = bottom;
position = "{213, 0}";
}
);
layerId = "F9C94342-283B-4575-A5D9-94B9950185BC";
shapes = (
{
closed = 1;
nodes = (
(298,0,l),
(298,821,l),
(124,821,l),
(124,0,l)
);
},
{
closed = 1;
nodes = (
(277,1102,o),
(329,1153,o),
(329,1216,cs),
(329,1279,o),
(275,1331,o),
(213,1331,cs),
(151,1331,o),
(99,1279,o),
(99,1216,cs),
(99,1153,o),
(150,1102,o),
(213,1102,cs)
);
}
);
width = 459;
},
{
anchors = (
{
name = bottom;
position = "{275, 0}";
}
);
layerId = "542E67F7-1B71-4779-8BF1-78BC1C9E1EC0";
shapes = (
{
closed = 1;
nodes = (
(467,0,l),
(467,821,l),
(74,821,l),
(74,0,l)
);
},
{
closed = 1;
nodes = (
(392,912,o),
(488,1008,o),
(488,1123,cs),
(488,1240,o),
(390,1336,o),
(275,1336,cs),
(158,1336,o),
(64,1238,o),
(64,1123,cs),
(64,1008,o),
(158,912,o),
(275,912,cs)
);
}
);
width = 568;
},
{
anchors = (
{
name = bottom;
position = "{182, 0}";
}
);
layerId = "CD238245-2B83-4CD3-AFC6-0F2793207444";
shapes = (
{
closed = 1;
nodes = (
(213,0,l),
(213,821,l),
(149,821,l),
(149,0,l)
);
},
{
closed = 1;
nodes = (
(219,1197,o),
(250,1226,o),
(250,1262,cs),
(250,1299,o),
(218,1328,o),
(182,1328,cs),
(147,1328,o),
(117,1299,o),
(117,1262,cs),
(117,1226,o),
(146,1197,o),
(182,1197,cs)
);
}
);
width = 405;
}
);
leftKerningGroup = i;
rightKerningGroup = i;
unicode = 105;
},
{
glyphname = idotless;
layers = (
{
anchors = (
{
name = bottom;
position = "{175, 0}";
},
{
name = ogonek;
position = "{301, 16}";
},
{
name = top;
position = "{175, 821}";
}
);
layerId = "F9C94342-283B-4575-A5D9-94B9950185BC";
shapes = (
{
closed = 1;
nodes = (
(256,0,l),
(256,821,l),
(93,821,l),
(93,0,l)
);
}
);
width = 383;
},
{
anchors = (
{
name = bottom;
position = "{224, 0}";
},
{
name = ogonek;
position = "{424, 16}";
},
{
name = top;
position = "{224, 821}";
}
);
layerId = "542E67F7-1B71-4779-8BF1-78BC1C9E1EC0";
shapes = (
{
closed = 1;
nodes = (
(405,0,l),
(405,821,l),
(42,821,l),
(42,0,l)
);
}
);
width = 470;
},
{
anchors = (
{
name = bottom;
position = "{150, 0}";
},
{
name = ogonek;
position = "{240, 16}";
},
{
name = top;
position = "{150, 821}";
}
);
layerId = "CD238245-2B83-4CD3-AFC6-0F2793207444";
shapes = (
{
closed = 1;
nodes = (
(182,0,l),
(182,821,l),
(118,821,l),
(118,0,l)
);
}
);
width = 339;
}
);
leftKerningGroup = idotless;
rightKerningGroup = idotless;
unicode = 305;
},
{
glyphname = j;
layers = (
{
layerId = "F9C94342-283B-4575-A5D9-94B9950185BC";
shapes = (
{
closed = 1;
nodes = (
(255,-440,o),
(322,-309,o),
(322,-114,cs),
(322,821,l),
(148,821,l),
(148,-72,ls),
(148,-204,o),
(127,-289,o),
(39,-289,cs),
(-6,-289,o),
(-26,-278,o),
(-43,-263,c),
(-108,-396,l),
(-81,-415,o),
(-19,-440,o),
(70,-440,cs)
);
},
{
closed = 1;
nodes = (
(304,1102,o),
(354,1153,o),
(354,1216,cs),
(354,1279,o),
(303,1331,o),
(240,1331,cs),
(177,1331,o),
(126,1278,o),
(126,1216,cs),
(126,1153,o),
(177,1102,o),
(240,1102,cs)
);
}
);
width = 478;
},
{
layerId = "542E67F7-1B71-4779-8BF1-78BC1C9E1EC0";
shapes = (
{
closed = 1;
nodes = (
(360,-440,o),
(474,-282,o),
(474,-91,cs),
(474,821,l),
(80,821,l),
(80,-40,ls),
(80,-94,o),
(46,-114,o),
(16,-114,cs),
(-5,-114,o),
(-30,-109,o),
(-54,-91,c),
(-168,-381,l),
(-120,-408,o),
(-32,-440,o),
(109,-440,cs)
);
},
{
closed = 1;
nodes = (
(395,912,o),
(491,1008,o),
(491,1123,cs),
(491,1240,o),
(394,1336,o),
(278,1336,cs),
(162,1336,o),
(67,1238,o),
(67,1123,cs),
(67,1008,o),
(162,912,o),
(278,912,cs)
);
}
);
width = 579;
},
{
layerId = "CD238245-2B83-4CD3-AFC6-0F2793207444";
shapes = (
{
closed = 1;
nodes = (
(203,-440,o),
(246,-323,o),
(246,-126,cs),
(246,821,l),
(182,821,l),
(182,-88,ls),
(182,-259,o),
(168,-376,o),
(50,-376,cs),
(-6,-376,o),
(-24,-362,o),
(-38,-349,c),
(-78,-403,l),
(-61,-419,o),
(-13,-440,o),
(51,-440,cs)
);
},
{
closed = 1;
nodes = (
(258,1197,o),
(286,1226,o),
(286,1262,cs),
(286,1298,o),
(258,1328,o),
(221,1328,cs),
(184,1328,o),
(155,1298,o),
(155,1262,cs),
(155,1226,o),
(184,1197,o),
(221,1197,cs)
);
}
);
width = 427;
}
);
leftKerningGroup = j;
rightKerningGroup = j;
unicode = 106;
},
{
glyphname = jdotless;
layers = (
{
anchors = (
{
name = bottom;
position = "{239, -416}";
},
{
name = top;
position = "{239, 821}";
}
);
layerId = "F9C94342-283B-4575-A5D9-94B9950185BC";
shapes = (
{
closed = 1;
nodes = (
(255,-440,o),
(322,-309,o),
(322,-114,cs),
(322,821,l),
(148,821,l),
(148,-72,ls),
(148,-204,o),
(127,-289,o),
(39,-289,cs),
(-6,-289,o),
(-26,-278,o),
(-43,-263,c),
(-108,-396,l),
(-81,-415,o),
(-19,-440,o),
(70,-440,cs)
);
}
);
width = 478;
},
{
anchors = (
{
name = bottom;
position = "{290, -416}";
},
{
name = top;
position = "{290, 821}";
}
);
layerId = "542E67F7-1B71-4779-8BF1-78BC1C9E1EC0";
shapes = (
{
closed = 1;
nodes = (
(360,-440,o),
(474,-282,o),
(474,-91,cs),
(474,821,l),
(80,821,l),
(80,-40,ls),
(80,-94,o),
(46,-114,o),
(16,-114,cs),
(-5,-114,o),
(-30,-109,o),
(-54,-91,c),
(-168,-381,l),
(-120,-408,o),
(-32,-440,o),
(109,-440,cs)
);
}
);
width = 579;
},
{
anchors = (
{
name = bottom;
position = "{214, -416}";
},
{
name = top;
position = "{214, 821}";
}
);
layerId = "CD238245-2B83-4CD3-AFC6-0F2793207444";
shapes = (
{
closed = 1;
nodes = (
(203,-440,o),
(246,-323,o),
(246,-126,cs),
(246,821,l),
(182,821,l),
(182,-88,ls),
(182,-259,o),
(168,-376,o),
(50,-376,cs),
(-6,-376,o),
(-24,-362,o),
(-38,-349,c),
(-78,-403,l),
(-61,-419,o),
(-13,-440,o),
(51,-440,cs)
);
}
);
width = 427;
}
);
leftKerningGroup = jdotless;
rightKerningGroup = jdotless;
unicode = 567;
},
{
glyphname = k;
layers = (
{
anchors = (
{
name = bottom;
position = "{410, 0}";
},
{
name = top;
position = "{410, 1440}";
}
);
layerId = "F9C94342-283B-4575-A5D9-94B9950185BC";
shapes = (
{
closed = 1;
nodes = (
(251,496,l),
(251,1376,l),
(77,1376,l),
(77,0,l),
(251,0,l),
(251,364,l),
(632,0,l),
(846,0,l),
(394,430,l),
(817,821,l),
(607,821,l)
);
}
);
width = 862;
},
{
anchors = (
{
name = bottom;
position = "{558, 0}";
},
{
name = top;
position = "{558, 1440}";
}
);
layerId = "542E67F7-1B71-4779-8BF1-78BC1C9E1EC0";
shapes = (
{
closed = 1;
nodes = (
(434,563,l),
(434,1376,l),
(40,1376,l),
(40,0,l),
(434,0,l),
(434,307,l),
(707,0,l),
(1154,0,l),
(744,429,l),
(1107,821,l),
(670,821,l)
);
}
);
width = 1138;
},
{
anchors = (
{
name = bottom;
position = "{336, 0}";
},
{
name = top;
position = "{336, 1440}";
}
);
layerId = "CD238245-2B83-4CD3-AFC6-0F2793207444";
shapes = (
{
closed = 1;
nodes = (
(160,462,l),
(160,1376,l),
(96,1376,l),
(96,0,l),
(160,0,l),
(160,392,l),
(595,0,l),
(691,0,l),
(218,430,l),
(672,821,l),
(576,821,l)
);
}
);
width = 723;
}
);
leftKerningGroup = h;
rightKerningGroup = k;
unicode = 107;
},
{
glyphname = kgreenlandic;
layers = (
{
anchors = (
{
name = bottom;
position = "{479, 0}";
},
{
name = top;
position = "{462, 821}";
}
);
layerId = "F9C94342-283B-4575-A5D9-94B9950185BC";
shapes = (
{
closed = 1;
nodes = (
(801,821,l),
(601,821,l),
(281,467,l),
(281,821,l),
(110,821,l),
(110,0,l),
(281,0,l),
(281,362,l),
(632,0,l),
(843,0,l),
(429,420,l)
);
}
);
width = 876;
},
{
anchors = (
{
name = bottom;
position = "{618, 0}";
},
{
name = top;
position = "{566, 821}";
}
);
layerId = "542E67F7-1B71-4779-8BF1-78BC1C9E1EC0";
shapes = (
{
closed = 1;
nodes = (
(1066,821,l),
(630,821,l),
(416,542,l),
(416,821,l),
(29,821,l),
(29,0,l),
(416,0,l),
(416,274,l),
(664,0,l),
(1125,0,l),
(715,411,l)
);
}
);
width = 1158;
},
{
anchors = (
{
name = bottom;
position = "{410, 0}";
},
{
name = top;
position = "{410, 821}";
}
);
layerId = "CD238245-2B83-4CD3-AFC6-0F2793207444";
shapes = (
{
closed = 1;
nodes = (
(669,821,l),
(586,821,l),
(214,430,l),
(214,821,l),
(150,821,l),
(150,0,l),
(214,0,l),
(214,406,l),
(616,0,l),
(701,0,l),
(285,424,l)
);
}
);
width = 734;
}
);
leftKerningGroup = h;
rightKerningGroup = k;
unicode = 312;
},
{
glyphname = l;
layers = (
{
anchors = (
{
name = bottom;
position = "{198, 0}";
},
{
name = center;
position = "{193, 949}";
},
{
name = top;
position = "{193, 1440}";
},
{
name = topright;
position = "{339, 1440}";
}
);
layerId = "F9C94342-283B-4575-A5D9-94B9950185BC";
shapes = (
{
closed = 1;
nodes = (
(286,1376,l),
(111,1376,l),
(111,0,l),
(286,0,l)
);
}
);
width = 431;
},
{
anchors = (
{
name = bottom;
position = "{262, 0}";
},
{
name = center;
position = "{246, 1045}";
},
{
name = top;
position = "{246, 1440}";
},
{
name = topright;
position = "{490, 1440}";
}
);
layerId = "542E67F7-1B71-4779-8BF1-78BC1C9E1EC0";
shapes = (
{
closed = 1;
nodes = (
(458,1376,l),
(64,1376,l),
(64,0,l),
(458,0,l)
);
}
);
width = 547;
},
{
anchors = (
{
name = bottom;
position = "{166, 0}";
},
{
name = center;
position = "{166, 901}";
},
{
name = top;
position = "{166, 1440}";
},
{
name = topright;
position = "{264, 1440}";
}
);
layerId = "CD238245-2B83-4CD3-AFC6-0F2793207444";
shapes = (
{
closed = 1;
nodes = (
(200,1376,l),
(134,1376,l),
(134,0,l),
(200,0,l)
);
}
);
width = 373;
}
);
leftKerningGroup = h;
rightKerningGroup = l;
unicode = 108;
},
{
glyphname = lslash;
layers = (
{
layerId = "F9C94342-283B-4575-A5D9-94B9950185BC";
shapes = (
{
closed = 1;
nodes = (
(315,0,l),
(315,687,l),
(434,779,l),
(434,949,l),
(315,857,l),
(315,1376,l),
(151,1376,l),
(151,727,l),
(47,645,l),
(47,475,l),
(151,557,l),
(151,0,l)
);
}
);
width = 515;
},
{
layerId = "542E67F7-1B71-4779-8BF1-78BC1C9E1EC0";
shapes = (
{
closed = 1;
nodes = (
(488,0,l),
(488,739,l),
(613,837,l),
(613,1131,l),
(488,1034,l),
(488,1376,l),
(126,1376,l),
(126,750,l),
(-6,645,l),
(-6,350,l),
(126,456,l),
(126,0,l)
);
}
);
width = 630;
},
{
layerId = "CD238245-2B83-4CD3-AFC6-0F2793207444";
shapes = (
{
closed = 1;
nodes = (
(229,0,l),
(229,661,l),
(344,750,l),
(344,858,l),
(229,768,l),
(229,1376,l),
(163,1376,l),
(163,715,l),
(74,645,l),
(74,538,l),
(163,608,l),
(163,0,l)
);
}
);
width = 458;
}
);
leftKerningGroup = lslash;
rightKerningGroup = lslash;
unicode = 322;
},
{
glyphname = m;
layers = (
{
anchors = (
{
name = bottom;
position = "{737, 0}";
},
{
name = top;
position = "{737, 821}";
}
);
layerId = "F9C94342-283B-4575-A5D9-94B9950185BC";
shapes = (
{
closed = 1;
nodes = (
(941,845,o),
(828,744,o),
(800,658,c),
(777,737,o),
(706,845,o),
(557,845,cs),
(415,845,o),
(308,757,o),
(287,695,c),
(287,821,l),
(114,821,l),
(114,0,l),
(287,0,l),
(287,443,ls),
(287,631,o),
(385,710,o),
(491,710,cs),
(602,710,o),
(666,621,o),
(666,443,cs),
(666,0,l),
(828,0,l),
(828,443,ls),
(828,627,o),
(931,710,o),
(1036,710,cs),
(1167,710,o),
(1208,621,o),
(1208,443,cs),
(1208,0,l),
(1380,0,l),
(1380,478,ls),
(1380,729,o),
(1273,845,o),
(1090,845,cs)
);
}
);
width = 1515;
},
{
anchors = (
{
name = bottom;
position = "{824, 0}";
},
{
name = top;
position = "{824, 821}";
}
);
layerId = "542E67F7-1B71-4779-8BF1-78BC1C9E1EC0";
shapes = (
{
closed = 1;
nodes = (
(1155,845,o),
(1027,771,o),
(1002,709,c),
(952,797,o),
(885,845,o),
(742,845,cs),
(611,845,o),
(480,771,o),
(454,710,c),
(454,821,l),
(64,821,l),
(64,0,l),
(454,0,l),
(454,432,ls),
(454,501,o),
(488,571,o),
(573,571,cs),
(658,571,o),
(670,502,o),
(670,432,cs),
(670,0,l),
(1029,0,l),
(1029,432,ls),
(1029,501,o),
(1061,571,o),
(1146,571,cs),
(1230,571,o),
(1245,502,o),
(1245,432,cs),
(1245,0,l),
(1632,0,l),
(1632,485,ls),
(1632,736,o),
(1486,845,o),
(1298,845,cs)
);
}
);
width = 1696;
},
{
anchors = (
{
name = bottom;
position = "{693, 0}";
},
{
name = top;
position = "{693, 821}";
}
);
layerId = "CD238245-2B83-4CD3-AFC6-0F2793207444";
shapes = (
{
closed = 1;
nodes = (
(834,845,o),
(728,731,o),
(699,632,c),
(690,707,o),
(616,845,o),
(464,845,cs),
(317,845,o),
(222,750,o),
(203,688,c),
(203,821,l),
(139,821,l),
(139,0,l),
(203,0,l),
(203,448,ls),
(203,696,o),
(334,779,o),
(450,779,cs),
(574,779,o),
(664,680,o),
(664,448,cs),
(664,0,l),
(728,0,l),
(728,448,ls),
(728,690,o),
(866,779,o),
(981,779,cs),
(1136,779,o),
(1190,680,o),
(1190,448,cs),
(1190,0,l),
(1254,0,l),
(1254,474,ls),
(1254,725,o),
(1166,845,o),
(986,845,cs)
);
}
);
width = 1424;
}
);
leftKerningGroup = n;
rightKerningGroup = n;
unicode = 109;
},
{
glyphname = n;
layers = (
{
anchors = (
{
name = bottom;
position = "{480, 0}";
},
{
name = top;
position = "{480, 821}";
}
);
layerId = "F9C94342-283B-4575-A5D9-94B9950185BC";
shapes = (
{
closed = 1;
nodes = (
(419,845,o),
(296,744,o),
(279,675,c),
(279,821,l),
(105,821,l),
(105,0,l),
(279,0,l),
(279,453,ls),
(279,600,o),
(398,711,o),
(517,711,cs),
(637,711,o),
(721,640,o),
(721,478,cs),
(721,0,l),
(897,0,l),
(897,512,ls),
(897,748,o),
(725,845,o),
(564,845,cs)
);
}
);
width = 1020;
},
{
anchors = (
{
name = bottom;
position = "{555, 0}";
},
{
name = top;
position = "{555, 821}";
}
);
layerId = "542E67F7-1B71-4779-8BF1-78BC1C9E1EC0";
shapes = (
{
closed = 1;
nodes = (
(578,845,o),
(467,781,o),
(442,718,c),
(442,821,l),
(48,821,l),
(48,0,l),
(442,0,l),
(442,432,ls),
(442,517,o),
(499,571,o),
(570,571,cs),
(640,571,o),
(686,517,o),
(686,432,cs),
(686,0,l),
(1080,0,l),
(1080,493,ls),
(1080,744,o),
(888,845,o),
(707,845,cs)
);
}
);
width = 1152;
},
{
anchors = (
{
name = bottom;
position = "{442, 0}";
},
{
name = top;
position = "{442, 821}";
}
);
layerId = "CD238245-2B83-4CD3-AFC6-0F2793207444";
shapes = (
{
closed = 1;
nodes = (
(339,845,o),
(210,725,o),
(198,653,c),
(198,821,l),
(134,821,l),
(134,0,l),
(198,0,l),
(198,464,ls),
(198,642,o),
(347,781,o),
(491,781,cs),
(635,781,o),
(739,702,o),
(739,501,cs),
(739,0,l),
(805,0,l),
(805,522,ls),
(805,750,o),
(643,845,o),
(493,845,cs)
);
}
);
width = 954;
}
);
leftKerningGroup = n;
rightKerningGroup = n;
unicode = 110;
},
{
glyphname = eng;
layers = (
{
anchors = (
{
name = bottom;
position = "{480, 0}";
},
{
name = top;
position = "{480, 821}";
}
);
layerId = "F9C94342-283B-4575-A5D9-94B9950185BC";
shapes = (
{
closed = 1;
nodes = (
(897,-94,ls),
(897,-261,o),
(827,-429,o),
(640,-429,cs),
(537,-429,o),
(482,-400,o),
(468,-390,c),
(533,-251,l),
(547,-263,o),
(581,-278,o),
(623,-278,cs),
(711,-278,o),
(721,-172,o),
(721,-56,cs),
(721,0,l),
(897,0,l)
);
},
{
alignment = -1;
ref = n;
}
);
width = 1020;
},
{
layerId = "542E67F7-1B71-4779-8BF1-78BC1C9E1EC0";
shapes = (
{
closed = 1;
nodes = (
(1080,-30,ls),
(1080,-200,o),
(950,-440,o),
(699,-440,cs),
(542,-440,o),
(477,-405,o),
(438,-381,c),
(560,-96,l),
(573,-104,o),
(600,-114,o),
(626,-114,cs),
(656,-114,o),
(686,-94,o),
(686,-24,cs),
(686,0,l),
(1080,0,l)
);
},
{
alignment = -1;
ref = n;
}
);
width = 1152;
},
{
layerId = "CD238245-2B83-4CD3-AFC6-0F2793207444";
shapes = (
{
closed = 1;
nodes = (
(805,-126,ls),
(805,-291,o),
(766,-424,o),
(610,-424,cs),
(534,-424,o),
(485,-397,o),
(483,-394,c),
(520,-328,l),
(534,-342,o),
(571,-360,o),
(621,-360,cs),
(739,-360,o),
(739,-211,o),
(739,-72,cs),
(739,0,l),
(805,0,l)
);
},
{
alignment = -1;
ref = n;
}
);
width = 954;
}
);
leftKerningGroup = n;
rightKerningGroup = j;
unicode = 331;
},
{
glyphname = o;
layers = (
{
anchors = (
{
name = bottom;
position = "{483, -130}";
},
{
name = center;
position = "{483, 542}";
},
{
name = ogonek;
position = "{854, 16}";
},
{
name = top;
position = "{483, 821}";
},
{
name = topright;
position = "{701, 784}";
}
);
layerId = "F9C94342-283B-4575-A5D9-94B9950185BC";
shapes = (
{
closed = 1;
nodes = (
(738,-24,o),
(916,163,o),
(916,408,cs),
(916,653,o),
(738,845,o),
(485,845,cs),
(231,845,o),
(49,653,o),
(49,408,cs),
(49,163,o),
(231,-24,o),
(485,-24,cs)
);
},
{
closed = 1;
nodes = (
(324,125,o),
(217,246,o),
(217,409,cs),
(217,571,o),
(324,696,o),
(485,696,cs),
(645,696,o),
(750,571,o),
(750,409,cs),
(750,246,o),
(645,125,o),
(485,125,cs)
);
}
);
width = 1003;
},
{
anchors = (
{
name = bottom;
position = "{510, -186}";
},
{
name = center;
position = "{510, 597}";
},
{
name = ogonek;
position = "{918, 16}";
},
{
name = top;
position = "{510, 821}";
},
{
name = topright;
position = "{747, 789}";
}
);
layerId = "542E67F7-1B71-4779-8BF1-78BC1C9E1EC0";
shapes = (
{
closed = 1;
nodes = (
(794,-24,o),
(989,152,o),
(989,408,cs),
(989,664,o),
(794,845,o),
(514,845,cs),
(234,845,o),
(32,664,o),
(32,408,cs),
(32,152,o),
(234,-24,o),
(514,-24,cs)
);
},
{
closed = 1;
nodes = (
(448,296,o),
(408,339,o),
(408,410,cs),
(408,480,o),
(448,525,o),
(514,525,cs),
(579,525,o),
(618,480,o),
(618,410,cs),
(618,339,o),
(579,296,o),
(514,296,cs)
);
}
);
width = 1053;
},
{
anchors = (
{
name = bottom;
position = "{469, -102}";
},
{
name = center;
position = "{469, 514}";
},
{
name = ogonek;
position = "{822, 16}";
},
{
name = top;
position = "{469, 821}";
},
{
name = topright;
position = "{678, 781}";
}
);
layerId = "CD238245-2B83-4CD3-AFC6-0F2793207444";
shapes = (
{
closed = 1;
nodes = (
(710,-24,o),
(880,168,o),
(880,408,cs),
(880,648,o),
(710,845,o),
(470,845,cs),
(230,845,o),
(58,648,o),
(58,408,cs),
(58,168,o),
(230,-24,o),
(470,-24,cs)
);
},
{
closed = 1;
nodes = (
(262,40,o),
(122,200,o),
(122,408,cs),
(122,616,o),
(262,781,o),
(470,781,cs),
(678,781,o),
(816,616,o),
(816,408,cs),
(816,200,o),
(678,40,o),
(470,40,cs)
);
}
);
width = 978;
}
);
leftKerningGroup = o;
rightKerningGroup = o;
unicode = 111;
},
{
glyphname = oslash;
layers = (
{
anchors = (
{
name = bottom;
position = "{483, -130}";
},
{
name = center;
position = "{483, 542}";
},
{
name = ogonek;
position = "{854, 16}";
},
{
name = top;
position = "{483, 821}";
},
{
name = topright;
position = "{701, 784}";
}
);
layerId = "F9C94342-283B-4575-A5D9-94B9950185BC";
shapes = (
{
closed = 1;
nodes = (
(41,24,l),
(102,-32,l),
(925,803,l),
(863,859,l)
);
},
{
alignment = -1;
ref = o;
}
);
width = 994;
},
{
layerId = "542E67F7-1B71-4779-8BF1-78BC1C9E1EC0";
shapes = (
{
closed = 1;
nodes = (
(38,29,l),
(134,-53,l),
(970,798,l),
(874,880,l)
);
},
{
alignment = -1;
ref = o;
}
);
width = 1026;
},
{
layerId = "CD238245-2B83-4CD3-AFC6-0F2793207444";
shapes = (
{
closed = 1;
nodes = (
(42,21,l),
(86,-21,l),
(902,806,l),
(858,848,l)
);
},
{
alignment = -1;
ref = o;
}
);
width = 978;
}
);
leftKerningGroup = o;
rightKerningGroup = o;
unicode = 248;
},
{
glyphname = p;
layers = (
{
anchors = (
{
name = bottom;
position = "{520, 0}";
},
{
name = top;
position = "{520, 821}";
}
);
layerId = "F9C94342-283B-4575-A5D9-94B9950185BC";
shapes = (
{
closed = 1;
nodes = (
(281,160,l),
(293,107,o),
(410,-24,o),
(598,-24,cs),
(826,-24,o),
(996,148,o),
(996,410,cs),
(996,672,o),
(832,845,o),
(604,845,cs),
(423,845,o),
(300,729,o),
(284,667,c),
(284,821,l),
(108,821,l),
(108,-416,l),
(281,-416,l)
);
},
{
closed = 1;
nodes = (
(824,232,o),
(701,120,o),
(561,120,cs),
(407,120,o),
(284,235,o),
(284,410,cs),
(284,584,o),
(407,701,o),
(561,701,cs),
(701,701,o),
(824,587,o),
(824,410,cs)
);
}
);
width = 1072;
},
{
anchors = (
{
name = bottom;
position = "{579, 0}";
},
{
name = top;
position = "{579, 821}";
}
);
layerId = "542E67F7-1B71-4779-8BF1-78BC1C9E1EC0";
shapes = (
{
closed = 1;
nodes = (
(453,115,l),
(474,78,o),
(554,-24,o),
(717,-24,cs),
(963,-24,o),
(1110,184,o),
(1110,410,cs),
(1110,635,o),
(979,845,o),
(733,845,cs),
(592,845,o),
(491,776,o),
(456,725,c),
(456,821,l),
(64,821,l),
(64,-416,l),
(453,-416,l)
);
},
{
closed = 1;
nodes = (
(725,341,o),
(670,280,o),
(590,280,cs),
(510,280,o),
(456,341,o),
(456,410,cs),
(456,478,o),
(510,541,o),
(590,541,cs),
(670,541,o),
(725,478,o),
(725,410,cs)
);
}
);
width = 1174;
},
{
anchors = (
{
name = bottom;
position = "{491, 0}";
},
{
name = top;
position = "{491, 821}";
}
);
layerId = "CD238245-2B83-4CD3-AFC6-0F2793207444";
shapes = (
{
closed = 1;
nodes = (
(195,182,l),
(202,122,o),
(338,-24,o),
(539,-24,cs),
(758,-24,o),
(939,130,o),
(939,410,cs),
(939,690,o),
(758,845,o),
(539,845,cs),
(339,845,o),
(205,706,o),
(198,638,c),
(198,821,l),
(130,821,l),
(130,-416,l),
(195,-416,l)
);
},
{
closed = 1;
nodes = (
(874,178,o),
(717,40,o),
(546,40,cs),
(355,40,o),
(198,182,o),
(198,410,cs),
(198,637,o),
(355,781,o),
(546,781,cs),
(717,781,o),
(874,642,o),
(874,410,cs)
);
}
);
width = 1021;
}
);
leftKerningGroup = p;
rightKerningGroup = o;
unicode = 112;
},
{
glyphname = thorn;
layers = (
{
anchors = (
{
name = bottom;
position = "{512, 0}";
},
{
name = top;
position = "{512, 1440}";
}
);
layerId = "F9C94342-283B-4575-A5D9-94B9950185BC";
shapes = (
{
closed = 1;
nodes = (
(101,-416,l),
(274,-416,l),
(274,0,l),
(101,0,l)
);
},
{
alignment = -1;
ref = b;
}
);
width = 1048;
},
{
layerId = "542E67F7-1B71-4779-8BF1-78BC1C9E1EC0";
shapes = (
{
closed = 1;
nodes = (
(64,-416,l),
(453,-416,l),
(453,0,l),
(64,0,l)
);
},
{
alignment = -1;
ref = b;
}
);
width = 1165;
},
{
layerId = "CD238245-2B83-4CD3-AFC6-0F2793207444";
shapes = (
{
closed = 1;
nodes = (
(120,-416,l),
(184,-416,l),
(184,0,l),
(120,0,l)
);
},
{
alignment = -1;
ref = b;
}
);
width = 989;
}
);
leftKerningGroup = h;
rightKerningGroup = o;
unicode = 254;
},
{
glyphname = r;
layers = (
{
anchors = (
{
name = bottom;
position = "{347, 0}";
},
{
name = top;
position = "{347, 821}";
}
);
layerId = "F9C94342-283B-4575-A5D9-94B9950185BC";
shapes = (
{
closed = 1;
nodes = (
(276,452,ls),
(276,550,o),
(352,698,o),
(485,698,cs),
(554,698,o),
(603,673,o),
(621,655,c),
(692,799,l),
(668,819,o),
(606,845,o),
(530,845,cs),
(374,845,o),
(281,729,o),
(271,679,c),
(276,679,l),
(276,821,l),
(103,821,l),
(103,0,l),
(276,0,l)
);
}
);
width = 700;
},
{
anchors = (
{
name = bottom;
position = "{406, 0}";
},
{
name = top;
position = "{406, 821}";
}
);
layerId = "542E67F7-1B71-4779-8BF1-78BC1C9E1EC0";
shapes = (
{
closed = 1;
nodes = (
(421,384,ls),
(421,450,o),
(459,533,o),
(576,533,cs),
(648,533,o),
(698,498,o),
(715,472,c),
(866,790,l),
(832,814,o),
(758,845,o),
(683,845,cs),
(515,845,o),
(437,747,o),
(416,704,c),
(421,704,l),
(421,821,l),
(27,821,l),
(27,0,l),
(421,0,l)
);
}
);
width = 858;
},
{
anchors = (
{
name = bottom;
position = "{317, 0}";
},
{
name = top;
position = "{317, 821}";
}
);
layerId = "CD238245-2B83-4CD3-AFC6-0F2793207444";
shapes = (
{
closed = 1;
nodes = (
(203,486,ls),
(203,600,o),
(299,781,o),
(440,781,cs),
(507,781,o),
(555,760,o),
(574,746,c),
(605,803,l),
(586,821,o),
(530,845,o),
(453,845,cs),
(304,845,o),
(203,720,o),
(198,667,c),
(203,667,l),
(203,821,l),
(141,821,l),
(141,0,l),
(203,0,l)
);
}
);
width = 621;
}
);
leftKerningGroup = n;
rightKerningGroup = r;
unicode = 114;
},
{
glyphname = s;
layers = (
{
anchors = (
{
name = bottom;
position = "{386, 0}";
},
{
name = top;
position = "{386, 821}";
}
);
layerId = "F9C94342-283B-4575-A5D9-94B9950185BC";
shapes = (
{
closed = 1;
nodes = (
(241,845,o),
(91,760,o),
(91,619,cs),
(91,468,o),
(223,406,o),
(349,376,cs),
(449,352,o),
(533,323,o),
(533,237,cs),
(533,160,o),
(456,109,o),
(345,109,cs),
(244,109,o),
(159,156,o),
(124,190,c),
(55,66,l),
(93,33,o),
(202,-24,o),
(355,-24,cs),
(529,-24,o),
(708,46,o),
(708,238,cs),
(708,396,o),
(583,449,o),
(447,482,cs),
(334,509,o),
(261,546,o),
(261,615,cs),
(261,684,o),
(335,722,o),
(429,722,cs),
(515,722,o),
(589,683,o),
(617,659,c),
(686,769,l),
(651,797,o),
(540,845,o),
(413,845,cs)
);
}
);
width = 805;
},
{
anchors = (
{
name = bottom;
position = "{438, 0}";
},
{
name = top;
position = "{438, 821}";
}
);
layerId = "542E67F7-1B71-4779-8BF1-78BC1C9E1EC0";
shapes = (
{
closed = 1;
nodes = (
(275,845,o),
(78,765,o),
(78,587,cs),
(78,402,o),
(246,341,o),
(339,323,cs),
(416,309,o),
(448,296,o),
(448,275,cs),
(448,256,o),
(418,246,o),
(352,246,cs),
(272,246,o),
(184,293,o),
(149,320,c),
(32,67,l),
(61,45,o),
(179,-24,o),
(392,-24,cs),
(574,-24,o),
(834,21,o),
(834,277,cs),
(834,453,o),
(672,510,o),
(562,530,cs),
(485,542,o),
(450,555,o),
(450,576,cs),
(450,597,o),
(483,603,o),
(528,603,cs),
(610,603,o),
(686,565,o),
(710,549,c),
(830,776,l),
(808,792,o),
(661,845,o),
(480,845,cs)
);
}
);
width = 898;
},
{
anchors = (
{
name = bottom;
position = "{360, 0}";
},
{
name = top;
position = "{360, 821}";
}
);
layerId = "CD238245-2B83-4CD3-AFC6-0F2793207444";
shapes = (
{
closed = 1;
nodes = (
(224,845,o),
(98,758,o),
(98,635,cs),
(98,501,o),
(211,438,o),
(354,402,cs),
(466,373,o),
(576,336,o),
(576,218,cs),
(576,112,o),
(475,40,o),
(341,40,cs),
(230,40,o),
(146,88,o),
(112,125,c),
(66,66,l),
(109,27,o),
(213,-24,o),
(336,-24,cs),
(507,-24,o),
(645,58,o),
(645,218,cs),
(645,368,o),
(538,419,o),
(390,458,cs),
(258,493,o),
(166,542,o),
(166,634,cs),
(166,728,o),
(261,781,o),
(379,781,cs),
(467,781,o),
(541,742,o),
(571,714,c),
(614,766,l),
(573,800,o),
(480,845,o),
(379,845,cs)
);
}
);
width = 758;
}
);
leftKerningGroup = s;
rightKerningGroup = s;
unicode = 115;
},
{
glyphname = germandbls;
layers = (
{
anchors = (
{
name = bottom;
position = "{454, 0}";
},
{
name = top;
position = "{454, 821}";
}
);
layerId = "F9C94342-283B-4575-A5D9-94B9950185BC";
shapes = (
{
closed = 1;
nodes = (
(441,-24,l),
(726,-24,o),
(916,133,o),
(916,386,cs),
(916,583,o),
(768,707,o),
(639,731,c),
(737,759,o),
(864,881,o),
(864,1048,cs),
(864,1278,o),
(718,1400,o),
(499,1400,cs),
(269,1400,o),
(103,1231,o),
(103,962,cs),
(103,0,l),
(266,0,l),
(266,969,ls),
(266,1118,o),
(345,1257,o),
(502,1257,cs),
(616,1257,o),
(707,1201,o),
(707,1046,cs),
(707,894,o),
(599,790,o),
(441,790,c),
(441,659,l),
(628,659,o),
(744,566,o),
(744,394,cs),
(744,246,o),
(644,127,o),
(441,127,c)
);
}
);
width = 1018;
},
{
anchors = (
{
name = bottom;
position = "{558, 0}";
},
{
name = top;
position = "{558, 821}";
}
);
layerId = "542E67F7-1B71-4779-8BF1-78BC1C9E1EC0";
shapes = (
{
closed = 1;
nodes = (
(600,-24,l),
(885,-24,o),
(1122,170,o),
(1122,422,cs),
(1122,600,o),
(1030,701,o),
(904,741,c),
(1000,790,o),
(1059,888,o),
(1059,1006,cs),
(1059,1258,o),
(883,1400,o),
(598,1400,cs),
(315,1400,o),
(117,1224,o),
(117,896,cs),
(117,0,l),
(478,0,l),
(478,934,ls),
(478,1035,o),
(528,1098,o),
(605,1098,cs),
(686,1098,o),
(722,1054,o),
(722,984,cs),
(722,906,o),
(650,867,o),
(600,867,c),
(600,600,l),
(678,600,o),
(738,555,o),
(738,453,cs),
(738,349,o),
(667,302,o),
(600,302,c)
);
}
);
width = 1202;
},
{
anchors = (
{
name = bottom;
position = "{402, 0}";
},
{
name = top;
position = "{402, 821}";
}
);
layerId = "CD238245-2B83-4CD3-AFC6-0F2793207444";
shapes = (
{
closed = 1;
nodes = (
(362,-24,l),
(646,-24,o),
(813,115,o),
(813,368,cs),
(813,574,o),
(637,710,o),
(506,726,c),
(606,744,o),
(766,877,o),
(766,1069,cs),
(766,1288,o),
(635,1400,o),
(450,1400,cs),
(246,1400,o),
(96,1235,o),
(96,995,c),
(96,0,l),
(160,0,l),
(160,986,ls),
(160,1160,o),
(254,1336,o),
(450,1336,cs),
(581,1336,o),
(699,1274,o),
(699,1077,cs),
(699,888,o),
(574,752,o),
(362,752,c),
(362,688,l),
(603,688,o),
(747,571,o),
(747,365,cs),
(747,194,o),
(632,40,o),
(362,40,c)
);
}
);
width = 926;
}
);
leftKerningGroup = h;
rightKerningGroup = germandbls;
unicode = 223;
},
{
glyphname = t;
layers = (
{
anchors = (
{
name = bottom;
position = "{411, -8}";
},
{
name = center;
position = "{277, 542}";
},
{
name = top;
position = "{303, 1068}";
},
{
name = topright;
position = "{553, 821}";
}
);
layerId = "F9C94342-283B-4575-A5D9-94B9950185BC";
shapes = (
{
closed = 1;
nodes = (
(35,672,l),
(196,672,l),
(196,220,ls),
(196,51,o),
(293,-24,o),
(421,-24,cs),
(529,-24,o),
(603,19,o),
(616,31,c),
(547,159,l),
(542,152,o),
(513,126,o),
(463,126,cs),
(405,126,o),
(369,169,o),
(369,266,cs),
(369,672,l),
(580,672,l),
(580,821,l),
(369,821,l),
(369,1158,l),
(196,1158,l),
(196,821,l),
(35,821,l)
);
}
);
width = 662;
},
{
anchors = (
{
name = bottom;
position = "{416, -8}";
},
{
name = center;
position = "{304, 597}";
},
{
name = top;
position = "{339, 1035}";
},
{
name = topright;
position = "{645, 821}";
}
);
layerId = "542E67F7-1B71-4779-8BF1-78BC1C9E1EC0";
shapes = (
{
closed = 1;
nodes = (
(0,501,l),
(125,501,l),
(125,288,ls),
(125,77,o),
(258,-24,o),
(448,-24,cs),
(606,-24,o),
(738,32,o),
(755,46,c),
(627,323,l),
(622,317,o),
(594,299,o),
(568,299,cs),
(518,299,o),
(514,347,o),
(514,395,cs),
(514,501,l),
(680,501,l),
(680,821,l),
(514,821,l),
(514,1158,l),
(125,1158,l),
(125,821,l),
(0,821,l)
);
}
);
width = 771;
},
{
anchors = (
{
name = bottom;
position = "{408, -8}";
},
{
name = center;
position = "{264, 514}";
},
{
name = top;
position = "{285, 1085}";
},
{
name = topright;
position = "{507, 821}";
}
);
layerId = "CD238245-2B83-4CD3-AFC6-0F2793207444";
shapes = (
{
closed = 1;
nodes = (
(53,757,l),
(232,757,l),
(232,186,ls),
(232,38,o),
(310,-24,o),
(408,-24,cs),
(491,-24,o),
(536,13,o),
(546,24,c),
(507,77,l),
(502,70,o),
(472,40,o),
(410,40,cs),
(349,40,o),
(296,80,o),
(296,202,cs),
(296,757,l),
(530,757,l),
(530,821,l),
(296,821,l),
(296,1158,l),
(232,1158,l),
(232,821,l),
(53,821,l)
);
}
);
width = 608;
}
);
leftKerningGroup = t;
rightKerningGroup = t;
unicode = 116;
},
{
glyphname = tbar;
layers = (
{
anchors = (
{
name = bottom;
position = "{411, -8}";
},
{
name = center;
position = "{277, 542}";
},
{
name = top;
position = "{303, 1068}";
},
{
name = topright;
position = "{553, 821}";
}
);
layerId = "F9C94342-283B-4575-A5D9-94B9950185BC";
shapes = (
{
closed = 1;
nodes = (
(36,437,l),
(580,437,l),
(580,523,l),
(36,523,l)
);
},
{
alignment = -1;
ref = t;
}
);
width = 656;
},
{
layerId = "542E67F7-1B71-4779-8BF1-78BC1C9E1EC0";
shapes = (
{
closed = 1;
nodes = (
(0,341,l),
(678,341,l),
(678,472,l),
(0,472,l)
);
},
{
alignment = -1;
ref = t;
}
);
width = 752;
},
{
layerId = "CD238245-2B83-4CD3-AFC6-0F2793207444";
shapes = (
{
closed = 1;
nodes = (
(54,485,l),
(531,485,l),
(531,549,l),
(54,549,l)
);
},
{
alignment = -1;
ref = t;
}
);
width = 608;
}
);
leftKerningGroup = t;
rightKerningGroup = t;
unicode = 359;
},
{
glyphname = u;
layers = (
{
anchors = (
{
name = bottom;
position = "{494, 0}";
},
{
name = ogonek;
position = "{870, 16}";
},
{
name = top;
position = "{494, 821}";
},
{
name = topright;
position = "{892, 821}";
}
);
layerId = "F9C94342-283B-4575-A5D9-94B9950185BC";
shapes = (
{
closed = 1;
nodes = (
(268,821,l),
(97,821,l),
(97,383,ls),
(97,143,o),
(240,-24,o),
(494,-24,cs),
(749,-24,o),
(892,143,o),
(892,383,cs),
(892,821,l),
(720,821,l),
(720,407,ls),
(720,235,o),
(648,125,o),
(494,125,cs),
(340,125,o),
(268,235,o),
(268,407,cs)
);
}
);
width = 1023;
},
{
anchors = (
{
name = bottom;
position = "{560, 0}";
},
{
name = ogonek;
position = "{1010, 16}";
},
{
name = top;
position = "{560, 821}";
},
{
name = topright;
position = "{1066, 821}";
}
);
layerId = "542E67F7-1B71-4779-8BF1-78BC1C9E1EC0";
shapes = (
{
closed = 1;
nodes = (
(443,821,l),
(56,821,l),
(56,426,ls),
(56,146,o),
(240,-24,o),
(560,-24,cs),
(882,-24,o),
(1066,146,o),
(1066,426,cs),
(1066,821,l),
(678,821,l),
(678,464,ls),
(678,362,o),
(653,296,o),
(560,296,cs),
(469,296,o),
(443,362,o),
(443,464,cs)
);
}
);
width = 1146;
},
{
anchors = (
{
name = bottom;
position = "{461, 0}";
},
{
name = ogonek;
position = "{800, 16}";
},
{
name = top;
position = "{461, 821}";
},
{
name = topright;
position = "{805, 821}";
}
);
layerId = "CD238245-2B83-4CD3-AFC6-0F2793207444";
shapes = (
{
closed = 1;
nodes = (
(181,821,l),
(117,821,l),
(117,362,ls),
(117,142,o),
(240,-24,o),
(461,-24,cs),
(682,-24,o),
(805,142,o),
(805,362,cs),
(805,821,l),
(741,821,l),
(741,379,ls),
(741,171,o),
(646,40,o),
(461,40,cs),
(275,40,o),
(181,171,o),
(181,379,cs)
);
}
);
width = 962;
}
);
leftKerningGroup = u;
rightKerningGroup = u;
unicode = 117;
},
{
glyphname = v;
layers = (
{
anchors = (
{
name = bottom;
position = "{478, 0}";
},
{
name = top;
position = "{478, 821}";
}
);
layerId = "F9C94342-283B-4575-A5D9-94B9950185BC";
shapes = (
{
closed = 1;
nodes = (
(376,0,l),
(581,0,l),
(932,821,l),
(746,821,l),
(478,161,l),
(210,821,l),
(23,821,l)
);
}
);
width = 991;
},
{
anchors = (
{
name = bottom;
position = "{571, 0}";
},
{
name = top;
position = "{571, 821}";
}
);
layerId = "542E67F7-1B71-4779-8BF1-78BC1C9E1EC0";
shapes = (
{
closed = 1;
nodes = (
(341,0,l),
(802,0,l),
(1141,821,l),
(722,821,l),
(571,355,l),
(421,821,l),
(0,821,l)
);
}
);
width = 1165;
},
{
anchors = (
{
name = bottom;
position = "{432, 0}";
},
{
name = top;
position = "{432, 821}";
}
);
layerId = "CD238245-2B83-4CD3-AFC6-0F2793207444";
shapes = (
{
closed = 1;
nodes = (
(394,0,l),
(470,0,l),
(827,821,l),
(758,821,l),
(432,64,l),
(104,821,l),
(35,821,l)
);
}
);
width = 904;
}
);
leftKerningGroup = v;
rightKerningGroup = v;
unicode = 118;
},
{
glyphname = w;
layers = (
{
anchors = (
{
name = bottom;
position = "{646, 0}";
},
{
name = top;
position = "{646, 821}";
}
);
layerId = "F9C94342-283B-4575-A5D9-94B9950185BC";
shapes = (
{
closed = 1;
nodes = (
(855,0,l),
(1035,0,l),
(1258,821,l),
(1072,821,l),
(922,190,l),
(718,805,l),
(574,805,l),
(368,190,l),
(219,821,l),
(34,821,l),
(257,0,l),
(437,0,l),
(646,615,l)
);
}
);
width = 1325;
},
{
anchors = (
{
name = bottom;
position = "{765, 0}";
},
{
name = top;
position = "{765, 821}";
}
);
layerId = "542E67F7-1B71-4779-8BF1-78BC1C9E1EC0";
shapes = (
{
closed = 1;
nodes = (
(946,0,l),
(1293,0,l),
(1597,821,l),
(1179,821,l),
(1059,419,l),
(885,805,l),
(646,805,l),
(469,419,l),
(350,821,l),
(-67,821,l),
(238,0,l),
(586,0,l),
(765,379,l)
);
}
);
width = 1554;
},
{
anchors = (
{
name = bottom;
position = "{586, 0}";
},
{
name = top;
position = "{586, 821}";
}
);
layerId = "CD238245-2B83-4CD3-AFC6-0F2793207444";
shapes = (
{
closed = 1;
nodes = (
(810,0,l),
(906,0,l),
(1088,821,l),
(1019,821,l),
(854,75,l),
(634,805,l),
(538,805,l),
(317,75,l),
(154,821,l),
(85,821,l),
(267,0,l),
(363,0,l),
(586,733,l)
);
}
);
width = 1211;
}
);
leftKerningGroup = w;
rightKerningGroup = w;
unicode = 119;
},
{
glyphname = x;
layers = (
{
anchors = (
{
name = bottom;
position = "{488, 0}";
},
{
name = top;
position = "{488, 821}";
}
);
layerId = "F9C94342-283B-4575-A5D9-94B9950185BC";
shapes = (
{
closed = 1;
nodes = (
(905,821,l),
(719,821,l),
(492,536,l),
(269,821,l),
(68,821,l),
(387,424,l),
(32,0,l),
(221,0,l),
(483,327,l),
(746,0,l),
(946,0,l),
(590,434,l)
);
}
);
width = 1009;
},
{
anchors = (
{
name = bottom;
position = "{563, 0}";
},
{
name = top;
position = "{563, 821}";
}
);
layerId = "542E67F7-1B71-4779-8BF1-78BC1C9E1EC0";
shapes = (
{
closed = 1;
nodes = (
(1077,821,l),
(685,821,l),
(573,661,l),
(470,821,l),
(34,821,l),
(344,413,l),
(0,0,l),
(400,0,l),
(547,202,l),
(693,0,l),
(1126,0,l),
(782,445,l)
);
}
);
width = 1142;
},
{
anchors = (
{
name = bottom;
position = "{451, 0}";
},
{
name = top;
position = "{451, 821}";
}
);
layerId = "CD238245-2B83-4CD3-AFC6-0F2793207444";
shapes = (
{
closed = 1;
nodes = (
(819,821,l),
(736,821,l),
(451,474,l),
(168,821,l),
(85,821,l),
(408,429,l),
(48,0,l),
(131,0,l),
(451,389,l),
(773,0,l),
(856,0,l),
(494,429,l)
);
}
);
width = 942;
}
);
leftKerningGroup = x;
rightKerningGroup = x;
unicode = 120;
},
{
glyphname = y;
layers = (
{
anchors = (
{
name = bottom;
position = "{445, 0}";
},
{
name = top;
position = "{445, 821}";
}
);
layerId = "F9C94342-283B-4575-A5D9-94B9950185BC";
shapes = (
{
closed = 1;
nodes = (
(192,821,l),
(15,821,l),
(353,0,l),
(167,-416,l),
(343,-416,l),
(897,821,l),
(723,821,l),
(446,159,l)
);
}
);
width = 924;
},
{
anchors = (
{
name = bottom;
position = "{539, 0}";
},
{
name = top;
position = "{539, 821}";
}
);
layerId = "542E67F7-1B71-4779-8BF1-78BC1C9E1EC0";
shapes = (
{
closed = 1;
nodes = (
(374,821,l),
(-16,821,l),
(330,0,l),
(138,-416,l),
(530,-416,l),
(1102,821,l),
(718,821,l),
(534,336,l)
);
}
);
width = 1102;
},
{
anchors = (
{
name = bottom;
position = "{398, 0}";
},
{
name = top;
position = "{398, 821}";
}
);
layerId = "CD238245-2B83-4CD3-AFC6-0F2793207444";
shapes = (
{
closed = 1;
nodes = (
(101,821,l),
(30,821,l),
(365,0,l),
(181,-416,l),
(250,-416,l),
(795,821,l),
(725,821,l),
(402,70,l)
);
}
);
width = 835;
}
);
leftKerningGroup = y;
rightKerningGroup = y;
unicode = 121;
},
{
glyphname = z;
layers = (
{
anchors = (
{
name = bottom;
position = "{405, 0}";
},
{
name = top;
position = "{405, 821}";
}
);
layerId = "F9C94342-283B-4575-A5D9-94B9950185BC";
shapes = (
{
closed = 1;
nodes = (
(73,690,l),
(508,690,l),
(17,0,l),
(769,0,l),
(769,132,l),
(299,132,l),
(789,821,l),
(73,821,l)
);
}
);
width = 842;
},
{
anchors = (
{
name = bottom;
position = "{459, 0}";
},
{
name = top;
position = "{459, 821}";
}
);
layerId = "542E67F7-1B71-4779-8BF1-78BC1C9E1EC0";
shapes = (
{
closed = 1;
nodes = (
(54,555,l),
(334,555,l),
(-19,0,l),
(894,0,l),
(894,267,l),
(581,267,l),
(934,821,l),
(54,821,l)
);
}
);
width = 938;
},
{
anchors = (
{
name = bottom;
position = "{378, 0}";
},
{
name = top;
position = "{378, 821}";
}
);
layerId = "CD238245-2B83-4CD3-AFC6-0F2793207444";
shapes = (
{
closed = 1;
nodes = (
(83,757,l),
(595,757,l),
(35,0,l),
(706,0,l),
(706,64,l),
(157,64,l),
(717,821,l),
(83,821,l)
);
}
);
width = 794;
}
);
leftKerningGroup = z;
rightKerningGroup = z;
unicode = 122;
},
{
glyphname = ordfeminine;
layers = (
{
layerId = "F9C94342-283B-4575-A5D9-94B9950185BC";
shapes = (
{
closed = 1;
nodes = (
(127,912,o),
(240,805,o),
(382,805,cs),
(475,805,o),
(538,859,o),
(554,890,c),
(556,890,l),
(556,821,l),
(672,821,l),
(672,1328,l),
(554,1329,l),
(554,1265,l),
(534,1299,o),
(472,1344,o),
(382,1344,cs),
(240,1344,o),
(127,1237,o),
(127,1075,cs)
);
},
{
closed = 1;
nodes = (
(247,1176,o),
(319,1238,o),
(398,1238,cs),
(484,1238,o),
(557,1170,o),
(557,1075,cs),
(557,980,o),
(487,911,o),
(398,911,cs),
(317,911,o),
(247,973,o),
(247,1075,cs)
);
}
);
width = 832;
},
{
layerId = "542E67F7-1B71-4779-8BF1-78BC1C9E1EC0";
shapes = (
{
closed = 1;
nodes = (
(104,938,o),
(202,806,o),
(355,806,cs),
(418,806,o),
(472,827,o),
(520,872,c),
(522,872,l),
(522,821,l),
(733,821,l),
(733,1328,l),
(520,1328,l),
(520,1290,l),
(462,1333,o),
(413,1344,o),
(355,1344,cs),
(202,1344,o),
(104,1211,o),
(104,1074,cs)
);
},
{
closed = 1;
nodes = (
(336,1123,o),
(376,1165,o),
(432,1165,cs),
(483,1165,o),
(523,1126,o),
(523,1074,cs),
(523,1021,o),
(486,984,o),
(432,984,cs),
(370,984,o),
(336,1026,o),
(336,1074,cs)
);
}
);
width = 859;
},
{
layerId = "CD238245-2B83-4CD3-AFC6-0F2793207444";
shapes = (
{
closed = 1;
nodes = (
(138,899,o),
(259,805,o),
(395,805,cs),
(504,805,o),
(571,875,o),
(571,899,c),
(573,899,l),
(573,821,l),
(642,821,l),
(642,1328,l),
(571,1330,l),
(571,1253,l),
(570,1282,o),
(502,1344,o),
(395,1344,cs),
(259,1344,o),
(138,1250,o),
(138,1075,cs)
);
},
{
closed = 1;
nodes = (
(202,1202,o),
(290,1275,o),
(381,1275,cs),
(485,1275,o),
(574,1192,o),
(574,1075,cs),
(574,960,o),
(488,874,o),
(381,874,cs),
(291,874,o),
(202,947,o),
(202,1075,cs)
);
}
);
width = 818;
}
);
leftKerningGroup = ordfeminine;
rightKerningGroup = ordfeminine;
unicode = 170;
},
{
glyphname = ordmasculine;
layers = (
{
layerId = "F9C94342-283B-4575-A5D9-94B9950185BC";
shapes = (
{
closed = 1;
nodes = (
(126,918,o),
(249,806,o),
(411,806,cs),
(564,806,o),
(692,918,o),
(692,1074,cs),
(692,1232,o),
(557,1344,o),
(411,1344,cs),
(262,1344,o),
(126,1232,o),
(126,1074,cs)
);
},
{
closed = 1;
nodes = (
(250,1173,o),
(328,1243,o),
(410,1243,cs),
(492,1243,o),
(570,1173,o),
(570,1074,cs),
(570,977,o),
(496,906,o),
(410,906,cs),
(319,906,o),
(250,977,o),
(250,1074,cs)
);
}
);
width = 853;
},
{
layerId = "542E67F7-1B71-4779-8BF1-78BC1C9E1EC0";
shapes = (
{
closed = 1;
nodes = (
(106,918,o),
(229,806,o),
(427,806,cs),
(616,806,o),
(744,918,o),
(744,1074,cs),
(744,1232,o),
(610,1344,o),
(427,1344,cs),
(242,1344,o),
(106,1232,o),
(106,1074,cs)
);
},
{
closed = 1;
nodes = (
(334,1125,o),
(371,1162,o),
(426,1162,cs),
(480,1162,o),
(517,1125,o),
(517,1074,cs),
(517,1024,o),
(483,987,o),
(426,987,cs),
(366,987,o),
(334,1024,o),
(334,1074,cs)
);
}
);
width = 874;
},
{
layerId = "CD238245-2B83-4CD3-AFC6-0F2793207444";
shapes = (
{
closed = 1;
nodes = (
(136,918,o),
(259,806,o),
(403,806,cs),
(538,806,o),
(666,918,o),
(666,1074,cs),
(666,1232,o),
(531,1344,o),
(403,1344,cs),
(272,1344,o),
(136,1232,o),
(136,1074,cs)
);
},
{
closed = 1;
nodes = (
(208,1197,o),
(306,1283,o),
(402,1283,cs),
(498,1283,o),
(597,1197,o),
(597,1074,cs),
(597,954,o),
(502,866,o),
(402,866,cs),
(296,866,o),
(208,954,o),
(208,1074,cs)
);
}
);
width = 842;
}
);
leftKerningGroup = ordmasculine;
rightKerningGroup = ordmasculine;
unicode = 186;
},
{
glyphname = zero;
layers = (
{
layerId = "F9C94342-283B-4575-A5D9-94B9950185BC";
shapes = (
{
closed = 1;
nodes = (
(66,181,o),
(315,-24,o),
(565,-24,cs),
(816,-24,o),
(1061,181,o),
(1061,659,cs),
(1061,1128,o),
(816,1344,o),
(565,1344,cs),
(315,1344,o),
(66,1128,o),
(66,659,cs)
);
},
{
closed = 1;
nodes = (
(241,1008,o),
(387,1189,o),
(565,1189,cs),
(743,1189,o),
(888,1009,o),
(888,659,cs),
(888,305,o),
(743,131,o),
(565,131,cs),
(387,131,o),
(241,304,o),
(241,659,cs)
);
}
);
width = 1162;
},
{
layerId = "542E67F7-1B71-4779-8BF1-78BC1C9E1EC0";
shapes = (
{
closed = 1;
nodes = (
(27,163,o),
(286,-24,o),
(590,-24,cs),
(896,-24,o),
(1152,163,o),
(1152,659,cs),
(1152,1109,o),
(896,1344,o),
(590,1344,cs),
(286,1344,o),
(27,1109,o),
(27,659,cs)
);
},
{
closed = 1;
nodes = (
(414,870,o),
(467,1006,o),
(590,1006,cs),
(714,1006,o),
(765,870,o),
(765,659,cs),
(765,422,o),
(714,314,o),
(590,314,cs),
(467,314,o),
(414,421,o),
(414,659,cs)
);
}
);
width = 1203;
},
{
layerId = "CD238245-2B83-4CD3-AFC6-0F2793207444";
shapes = (
{
closed = 1;
nodes = (
(86,190,o),
(330,-24,o),
(552,-24,cs),
(776,-24,o),
(1016,190,o),
(1016,659,cs),
(1016,1138,o),
(776,1344,o),
(552,1344,cs),
(330,1344,o),
(86,1138,o),
(86,659,cs)
);
},
{
closed = 1;
nodes = (
(154,1077,o),
(347,1280,o),
(552,1280,cs),
(757,1280,o),
(949,1078,o),
(949,659,cs),
(949,246,o),
(757,40,o),
(552,40,cs),
(347,40,o),
(154,246,o),
(154,659,cs)
);
}
);
width = 1142;
}
);
leftKerningGroup = zero;
rightKerningGroup = zero;
unicode = 48;
},
{
glyphname = one;
layers = (
{
layerId = "F9C94342-283B-4575-A5D9-94B9950185BC";
shapes = (
{
closed = 1;
nodes = (
(276,0,l),
(448,0,l),
(448,1320,l),
(350,1320,l),
(47,1145,l),
(47,977,l),
(276,1107,l)
);
}
);
width = 611;
},
{
layerId = "542E67F7-1B71-4779-8BF1-78BC1C9E1EC0";
shapes = (
{
closed = 1;
nodes = (
(205,0,l),
(592,0,l),
(592,1320,l),
(421,1320,l),
(8,1094,l),
(8,730,l),
(205,826,l)
);
}
);
width = 686;
},
{
layerId = "CD238245-2B83-4CD3-AFC6-0F2793207444";
shapes = (
{
closed = 1;
nodes = (
(312,0,l),
(376,0,l),
(376,1320,l),
(315,1320,l),
(67,1170,l),
(67,1101,l),
(312,1248,l)
);
}
);
width = 574;
}
);
leftKerningGroup = one;
rightKerningGroup = one;
unicode = 49;
},
{
glyphname = two;
layers = (
{
layerId = "F9C94342-283B-4575-A5D9-94B9950185BC";
shapes = (
{
closed = 1;
nodes = (
(693,1193,o),
(781,1127,o),
(781,943,cs),
(781,669,o),
(204,239,o),
(82,141,c),
(82,0,l),
(944,0,l),
(944,154,l),
(350,154,l),
(407,199,o),
(955,603,o),
(955,941,cs),
(955,1174,o),
(826,1344,o),
(537,1344,cs),
(185,1344,o),
(58,1054,o),
(52,1026,c),
(203,960,l),
(207,973,o),
(316,1193,o),
(537,1193,cs)
);
}
);
width = 1089;
},
{
layerId = "542E67F7-1B71-4779-8BF1-78BC1C9E1EC0";
shapes = (
{
closed = 1;
nodes = (
(658,1019,o),
(706,986,o),
(706,904,cs),
(706,691,o),
(91,312,o),
(77,304,c),
(77,0,l),
(1083,0,l),
(1083,334,l),
(654,334,l),
(666,336,o),
(1094,550,o),
(1094,898,cs),
(1094,1051,o),
(1005,1344,o),
(574,1344,cs),
(133,1344,o),
(21,1006,o),
(13,957,c),
(341,805,l),
(346,822,o),
(427,1019,o),
(574,1019,cs)
);
}
);
width = 1174;
},
{
layerId = "CD238245-2B83-4CD3-AFC6-0F2793207444";
shapes = (
{
closed = 1;
nodes = (
(710,1280,o),
(818,1198,o),
(818,962,cs),
(818,658,o),
(261,202,o),
(85,59,c),
(85,0,l),
(874,0,l),
(874,64,l),
(197,64,l),
(278,130,o),
(885,629,o),
(885,963,cs),
(885,1235,o),
(736,1344,o),
(518,1344,cs),
(211,1344,o),
(77,1078,o),
(72,1061,c),
(134,1037,l),
(138,1048,o),
(261,1280,o),
(518,1280,cs)
);
}
);
width = 1046;
}
);
leftKerningGroup = two;
rightKerningGroup = two;
unicode = 50;
},
{
glyphname = three;
layers = (
{
layerId = "F9C94342-283B-4575-A5D9-94B9950185BC";
shapes = (
{
closed = 1;
nodes = (
(238,1041,l),
(244,1069,o),
(308,1199,o),
(490,1199,cs),
(653,1199,o),
(735,1102,o),
(735,979,cs),
(735,840,o),
(622,758,o),
(495,758,cs),
(461,758,l),
(461,626,l),
(487,626,ls),
(632,626,o),
(762,554,o),
(762,392,cs),
(762,246,o),
(663,129,o),
(487,129,cs),
(328,129,o),
(232,246,o),
(203,334,c),
(46,253,l),
(86,133,o),
(230,-24,o),
(489,-24,cs),
(753,-24,o),
(935,153,o),
(935,388,cs),
(935,577,o),
(797,691,o),
(685,702,c),
(790,721,o),
(893,837,o),
(893,991,cs),
(893,1191,o),
(745,1344,o),
(493,1344,cs),
(227,1344,o),
(110,1172,o),
(93,1110,c)
);
}
);
width = 1035;
},
{
layerId = "542E67F7-1B71-4779-8BF1-78BC1C9E1EC0";
shapes = (
{
closed = 1;
nodes = (
(358,872,l),
(374,944,o),
(434,1038,o),
(536,1038,cs),
(606,1038,o),
(650,992,o),
(650,933,cs),
(650,869,o),
(606,827,o),
(541,827,cs),
(507,827,l),
(507,557,l),
(533,557,l),
(611,557,o),
(670,515,o),
(670,437,cs),
(670,357,o),
(616,307,o),
(533,307,cs),
(440,307,o),
(379,421,o),
(360,506,c),
(5,333,l),
(45,179,o),
(214,-24,o),
(534,-24,cs),
(829,-24,o),
(1051,160,o),
(1051,424,cs),
(1051,590,o),
(944,701,o),
(858,718,c),
(925,742,o),
(994,842,o),
(994,962,cs),
(994,1200,o),
(789,1344,o),
(539,1344,cs),
(243,1344,o),
(85,1158,o),
(50,1019,c)
);
}
);
width = 1104;
},
{
layerId = "CD238245-2B83-4CD3-AFC6-0F2793207444";
shapes = (
{
closed = 1;
nodes = (
(178,1126,l),
(179,1131,o),
(245,1280,o),
(467,1280,cs),
(677,1280,o),
(778,1157,o),
(778,1002,cs),
(778,826,o),
(630,723,o),
(472,723,cs),
(438,723,l),
(438,661,l),
(464,661,l),
(642,661,o),
(808,573,o),
(808,370,cs),
(808,190,o),
(686,40,o),
(464,40,cs),
(272,40,o),
(158,158,o),
(125,248,c),
(67,213,l),
(106,110,o),
(238,-24,o),
(466,-24,cs),
(715,-24,o),
(877,150,o),
(877,370,cs),
(877,571,o),
(723,686,o),
(598,694,c),
(723,710,o),
(843,834,o),
(843,1005,cs),
(843,1186,o),
(723,1344,o),
(470,1344,cs),
(219,1344,o),
(122,1179,o),
(114,1155,c)
);
}
);
width = 1000;
}
);
leftKerningGroup = three;
rightKerningGroup = three;
unicode = 51;
},
{
glyphname = four;
layers = (
{
layerId = "F9C94342-283B-4575-A5D9-94B9950185BC";
shapes = (
{
closed = 1;
nodes = (
(573,1320,l),
(32,420,l),
(32,278,l),
(587,278,l),
(587,0,l),
(759,0,l),
(759,278,l),
(910,278,l),
(910,432,l),
(759,432,l),
(759,1320,l)
);
},
{
closed = 1;
nodes = (
(213,432,l),
(586,1061,l),
(587,1061,l),
(587,432,l)
);
}
);
width = 986;
},
{
layerId = "542E67F7-1B71-4779-8BF1-78BC1C9E1EC0";
shapes = (
{
closed = 1;
nodes = (
(459,1320,l),
(-10,581,l),
(-10,278,l),
(526,278,l),
(526,0,l),
(912,0,l),
(912,278,l),
(1066,278,l),
(1066,613,l),
(912,613,l),
(912,1320,l)
);
},
{
closed = 1;
nodes = (
(373,613,l),
(523,851,l),
(526,851,l),
(526,613,l)
);
}
);
width = 1098;
},
{
layerId = "CD238245-2B83-4CD3-AFC6-0F2793207444";
shapes = (
{
closed = 1;
nodes = (
(630,1320,l),
(53,339,l),
(53,278,l),
(618,278,l),
(618,0,l),
(682,0,l),
(682,278,l),
(832,278,l),
(832,342,l),
(682,342,l),
(682,1320,l)
);
},
{
closed = 1;
nodes = (
(133,342,l),
(618,1166,l),
(618,1166,l),
(618,342,l)
);
}
);
width = 930;
}
);
leftKerningGroup = four;
rightKerningGroup = four;
unicode = 52;
},
{
glyphname = five;
layers = (
{
layerId = "F9C94342-283B-4575-A5D9-94B9950185BC";
shapes = (
{
closed = 1;
nodes = (
(79,218,l),
(107,143,o),
(224,-24,o),
(498,-24,cs),
(779,-24,o),
(948,167,o),
(947,444,cs),
(945,720,o),
(767,852,o),
(568,852,cs),
(413,852,o),
(328,773,o),
(319,755,c),
(381,1166,l),
(891,1166,l),
(891,1320,l),
(233,1320,l),
(120,604,l),
(271,553,l),
(297,617,o),
(383,708,o),
(524,708,cs),
(674,708,o),
(772,610,o),
(774,436,cs),
(776,248,o),
(669,125,o),
(492,125,cs),
(317,125,o),
(245,244,o),
(229,292,c)
);
}
);
width = 1057;
},
{
layerId = "542E67F7-1B71-4779-8BF1-78BC1C9E1EC0";
shapes = (
{
closed = 1;
nodes = (
(16,286,l),
(77,120,o),
(229,-24,o),
(523,-24,cs),
(806,-24,o),
(1032,162,o),
(1032,467,cs),
(1032,768,o),
(818,888,o),
(627,888,cs),
(546,888,o),
(472,862,o),
(461,850,c),
(488,986,l),
(966,986,l),
(966,1320,l),
(166,1320,l),
(45,624,l),
(360,507,l),
(374,533,o),
(422,584,o),
(507,584,cs),
(594,584,o),
(642,528,o),
(642,443,cs),
(642,357,o),
(594,296,o),
(507,296,cs),
(422,296,o),
(374,336,o),
(346,427,c)
);
}
);
width = 1096;
},
{
layerId = "CD238245-2B83-4CD3-AFC6-0F2793207444";
shapes = (
{
closed = 1;
nodes = (
(110,184,l),
(122,155,o),
(221,-24,o),
(485,-24,cs),
(765,-24,o),
(906,170,o),
(904,432,cs),
(902,696,o),
(742,834,o),
(539,834,cs),
(347,834,o),
(256,728,o),
(248,707,c),
(328,1256,l),
(853,1256,l),
(853,1320,l),
(266,1320,l),
(158,594,l),
(226,576,l),
(258,659,o),
(363,770,o),
(533,770,cs),
(714,770,o),
(837,651,o),
(840,432,cs),
(843,194,o),
(706,40,o),
(485,40,cs),
(264,40,o),
(181,198,o),
(170,224,c)
);
}
);
width = 1037;
}
);
leftKerningGroup = five;
rightKerningGroup = five;
unicode = 53;
},
{
glyphname = six;
layers = (
{
layerId = "F9C94342-283B-4575-A5D9-94B9950185BC";
shapes = (
{
closed = 1;
nodes = (
(470,860,o),
(397,825,o),
(367,793,c),
(802,1320,l),
(597,1320,l),
(238,871,ls),
(147,759,o),
(70,632,o),
(70,438,cs),
(70,160,o),
(271,-24,o),
(531,-24,cs),
(785,-24,o),
(994,164,o),
(994,422,cs),
(994,682,o),
(796,860,o),
(573,860,cs)
);
},
{
closed = 1;
nodes = (
(369,121,o),
(235,255,o),
(235,420,cs),
(235,584,o),
(369,717,o),
(534,717,cs),
(698,717,o),
(831,584,o),
(831,420,cs),
(831,255,o),
(698,121,o),
(534,121,cs)
);
}
);
width = 1101;
},
{
layerId = "542E67F7-1B71-4779-8BF1-78BC1C9E1EC0";
shapes = (
{
closed = 1;
nodes = (
(613,893,o),
(598,886,o),
(590,880,c),
(978,1320,l),
(528,1320,l),
(221,950,ls),
(131,843,o),
(43,693,o),
(43,459,cs),
(43,149,o),
(275,-24,o),
(558,-24,cs),
(840,-24,o),
(1067,173,o),
(1067,451,cs),
(1067,733,o),
(848,893,o),
(653,893,c)
);
},
{
closed = 1;
nodes = (
(472,288,o),
(405,355,o),
(405,438,cs),
(405,520,o),
(472,587,o),
(555,587,cs),
(637,587,o),
(704,520,o),
(704,438,cs),
(704,355,o),
(637,288,o),
(555,288,cs)
);
}
);
width = 1142;
},
{
layerId = "CD238245-2B83-4CD3-AFC6-0F2793207444";
shapes = (
{
closed = 1;
nodes = (
(398,843,o),
(296,794,o),
(256,749,c),
(714,1320,l),
(632,1320,l),
(246,832,ls),
(155,717,o),
(83,602,o),
(83,427,cs),
(83,165,o),
(269,-24,o),
(517,-24,cs),
(757,-24,o),
(958,160,o),
(958,408,cs),
(958,656,o),
(770,843,o),
(533,843,cs)
);
},
{
closed = 1;
nodes = (
(317,38,o),
(150,205,o),
(150,411,cs),
(150,616,o),
(317,782,o),
(523,782,cs),
(728,782,o),
(894,616,o),
(894,411,cs),
(894,205,o),
(728,38,o),
(523,38,cs)
);
}
);
width = 1080;
}
);
leftKerningGroup = six;
rightKerningGroup = six;
unicode = 54;
},
{
glyphname = seven;
layers = (
{
layerId = "F9C94342-283B-4575-A5D9-94B9950185BC";
shapes = (
{
closed = 1;
nodes = (
(116,1166,l),
(767,1166,l),
(97,0,l),
(289,0,l),
(969,1197,l),
(969,1320,l),
(116,1320,l)
);
}
);
width = 1040;
},
{
layerId = "542E67F7-1B71-4779-8BF1-78BC1C9E1EC0";
shapes = (
{
closed = 1;
nodes = (
(93,986,l),
(658,986,l),
(77,0,l),
(502,0,l),
(1109,1066,l),
(1109,1320,l),
(93,1320,l)
);
}
);
width = 1125;
},
{
layerId = "CD238245-2B83-4CD3-AFC6-0F2793207444";
shapes = (
{
closed = 1;
nodes = (
(128,1256,l),
(822,1256,l),
(107,0,l),
(182,0,l),
(899,1262,l),
(899,1320,l),
(128,1320,l)
);
}
);
width = 997;
}
);
leftKerningGroup = seven;
rightKerningGroup = seven;
unicode = 55;
},
{
glyphname = eight;
layers = (
{
layerId = "F9C94342-283B-4575-A5D9-94B9950185BC";
shapes = (
{
closed = 1;
nodes = (
(781,-24,o),
(966,144,o),
(966,362,cs),
(966,557,o),
(850,662,o),
(717,712,c),
(818,760,o),
(906,843,o),
(906,1007,cs),
(906,1208,o),
(744,1344,o),
(531,1344,cs),
(320,1344,o),
(152,1208,o),
(152,1007,cs),
(152,843,o),
(246,757,o),
(344,712,c),
(209,662,o),
(96,557,o),
(96,362,cs),
(96,144,o),
(283,-24,o),
(532,-24,cs)
);
},
{
closed = 1;
nodes = (
(388,130,o),
(275,239,o),
(275,380,cs),
(275,521,o),
(388,631,o),
(531,631,cs),
(672,631,o),
(786,521,o),
(786,380,cs),
(786,239,o),
(672,130,o),
(531,130,cs)
);
},
{
closed = 1;
nodes = (
(412,771,o),
(314,868,o),
(314,988,cs),
(314,1105,o),
(412,1203,o),
(531,1203,cs),
(649,1203,o),
(747,1105,o),
(747,988,cs),
(747,868,o),
(649,771,o),
(531,771,cs)
);
}
);
width = 1096;
},
{
layerId = "542E67F7-1B71-4779-8BF1-78BC1C9E1EC0";
shapes = (
{
closed = 1;
nodes = (
(826,-24,o),
(1074,134,o),
(1074,371,cs),
(1074,547,o),
(979,645,o),
(850,712,c),
(947,776,o),
(1011,846,o),
(1011,992,cs),
(1011,1211,o),
(814,1344,o),
(558,1344,cs),
(309,1344,o),
(99,1211,o),
(99,992,cs),
(99,846,o),
(166,776,o),
(267,712,c),
(136,645,o),
(43,547,o),
(43,371,cs),
(43,134,o),
(294,-24,o),
(560,-24,cs)
);
},
{
closed = 1;
nodes = (
(496,310,o),
(445,362,o),
(445,424,cs),
(445,486,o),
(496,538,o),
(558,538,cs),
(621,538,o),
(672,486,o),
(672,424,cs),
(672,362,o),
(621,310,o),
(558,310,cs)
);
},
{
closed = 1;
nodes = (
(499,830,o),
(450,880,o),
(450,941,cs),
(450,1000,o),
(499,1050,o),
(560,1050,cs),
(619,1050,o),
(669,1000,o),
(669,941,cs),
(669,880,o),
(619,830,o),
(560,830,cs)
);
}
);
width = 1139;
},
{
layerId = "CD238245-2B83-4CD3-AFC6-0F2793207444";
shapes = (
{
closed = 1;
nodes = (
(758,-24,o),
(912,149,o),
(912,357,cs),
(912,562,o),
(786,670,o),
(651,712,c),
(754,752,o),
(853,842,o),
(853,1014,cs),
(853,1206,o),
(709,1344,o),
(517,1344,cs),
(325,1344,o),
(179,1206,o),
(179,1014,cs),
(179,842,o),
(286,747,o),
(382,712,c),
(246,670,o),
(122,562,o),
(122,357,cs),
(122,149,o),
(278,-24,o),
(518,-24,cs)
);
},
{
closed = 1;
nodes = (
(334,40,o),
(190,178,o),
(190,358,cs),
(190,539,o),
(334,677,o),
(517,677,cs),
(698,677,o),
(843,539,o),
(843,358,cs),
(843,178,o),
(698,40,o),
(517,40,cs)
);
},
{
closed = 1;
nodes = (
(368,741,o),
(246,862,o),
(246,1011,cs),
(246,1158,o),
(368,1280,o),
(517,1280,cs),
(664,1280,o),
(786,1158,o),
(786,1011,cs),
(786,862,o),
(664,741,o),
(517,741,cs)
);
}
);
width = 1075;
}
);
leftKerningGroup = eight;
rightKerningGroup = eight;
unicode = 56;
},
{
glyphname = fraction;
layers = (
{
layerId = "F9C94342-283B-4575-A5D9-94B9950185BC";
shapes = (
{
closed = 1;
nodes = (
(-248,0,l),
(-140,0,l),
(628,1320,l),
(520,1320,l)
);
}
);
width = 419;
},
{
layerId = "542E67F7-1B71-4779-8BF1-78BC1C9E1EC0";
shapes = (
{
closed = 1;
nodes = (
(-264,0,l),
(-32,0,l),
(736,1320,l),
(504,1320,l)
);
}
);
width = 462;
},
{
layerId = "CD238245-2B83-4CD3-AFC6-0F2793207444";
shapes = (
{
closed = 1;
nodes = (
(-240,0,l),
(-194,0,l),
(574,1320,l),
(528,1320,l)
);
}
);
width = 398;
}
);
leftKerningGroup = fraction;
rightKerningGroup = fraction;
unicode = 8260;
},
{
glyphname = period;
layers = (
{
layerId = "F9C94342-283B-4575-A5D9-94B9950185BC";
shapes = (
{
closed = 1;
nodes = (
(366,-24,o),
(426,36,o),
(426,110,cs),
(426,186,o),
(366,246,o),
(291,246,cs),
(217,246,o),
(157,186,o),
(157,110,cs),
(157,36,o),
(217,-24,o),
(291,-24,cs)
);
}
);
width = 619;
},
{
layerId = "542E67F7-1B71-4779-8BF1-78BC1C9E1EC0";
shapes = (
{
closed = 1;
nodes = (
(405,-24,o),
(501,72,o),
(501,190,cs),
(501,309,o),
(405,405,o),
(286,405,cs),
(168,405,o),
(72,309,o),
(72,190,cs),
(72,72,o),
(168,-24,o),
(286,-24,cs)
);
}
);
width = 598;
},
{
layerId = "CD238245-2B83-4CD3-AFC6-0F2793207444";
shapes = (
{
closed = 1;
nodes = (
(347,-24,o),
(389,18,o),
(389,70,cs),
(389,125,o),
(347,166,o),
(294,166,cs),
(242,166,o),
(200,125,o),
(200,70,cs),
(200,18,o),
(242,-24,o),
(294,-24,cs)
);
}
);
width = 630;
}
);
leftKerningGroup = period;
rightKerningGroup = period;
unicode = 46;
},
{
glyphname = comma;
layers = (
{
layerId = "F9C94342-283B-4575-A5D9-94B9950185BC";
shapes = (
{
closed = 1;
nodes = (
(178,251,o),
(116,191,o),
(116,109,cs),
(116,35,o),
(174,-23,o),
(241,-24,cs),
(261,-24,o),
(277,-21,o),
(293,-13,c),
(273,-89,o),
(187,-155,o),
(127,-184,c),
(192,-251,l),
(305,-190,o),
(407,-56,o),
(407,92,cs),
(407,190,o),
(340,251,o),
(259,251,cs)
);
}
);
width = 553;
},
{
layerId = "542E67F7-1B71-4779-8BF1-78BC1C9E1EC0";
shapes = (
{
closed = 1;
nodes = (
(173,402,o),
(77,307,o),
(77,192,cs),
(77,62,o),
(165,-11,o),
(254,-11,cs),
(283,-11,o),
(299,-8,o),
(312,0,c),
(280,-98,o),
(171,-187,o),
(98,-227,c),
(189,-334,l),
(350,-245,o),
(494,-35,o),
(494,163,cs),
(494,323,o),
(400,402,o),
(286,402,cs)
);
}
);
width = 598;
},
{
layerId = "CD238245-2B83-4CD3-AFC6-0F2793207444";
shapes = (
{
closed = 1;
nodes = (
(181,176,o),
(136,133,o),
(136,67,cs),
(136,21,o),
(178,-29,o),
(235,-30,cs),
(250,-30,o),
(266,-27,o),
(283,-19,c),
(270,-85,o),
(195,-139,o),
(141,-163,c),
(194,-210,l),
(283,-162,o),
(363,-67,o),
(363,56,cs),
(363,123,o),
(310,176,o),
(245,176,cs)
);
}
);
width = 531;
}
);
leftKerningGroup = period;
rightKerningGroup = period;
unicode = 44;
},
{
glyphname = exclam;
layers = (
{
layerId = "F9C94342-283B-4575-A5D9-94B9950185BC";
shapes = (
{
closed = 1;
nodes = (
(352,366,l),
(391,1376,l),
(195,1376,l),
(233,366,l)
);
},
{
closed = 1;
nodes = (
(367,-24,o),
(427,36,o),
(427,110,cs),
(427,186,o),
(367,246,o),
(291,246,cs),
(217,246,o),
(157,186,o),
(157,110,cs),
(157,36,o),
(218,-24,o),
(291,-24,cs)
);
}
);
width = 619;
},
{
layerId = "542E67F7-1B71-4779-8BF1-78BC1C9E1EC0";
shapes = (
{
closed = 1;
nodes = (
(419,475,l),
(496,1376,l),
(77,1376,l),
(155,475,l)
);
},
{
closed = 1;
nodes = (
(406,-24,o),
(502,72,o),
(502,190,cs),
(502,309,o),
(406,406,o),
(286,406,cs),
(168,406,o),
(72,309,o),
(72,190,cs),
(72,72,o),
(170,-24,o),
(286,-24,cs)
);
}
);
width = 598;
},
{
layerId = "CD238245-2B83-4CD3-AFC6-0F2793207444";
shapes = (
{
closed = 1;
nodes = (
(318,312,l),
(338,1376,l),
(254,1376,l),
(272,312,l)
);
},
{
closed = 1;
nodes = (
(347,-24,o),
(389,18,o),
(389,70,cs),
(389,125,o),
(347,166,o),
(294,166,cs),
(242,166,o),
(200,125,o),
(200,70,cs),
(200,18,o),
(242,-24,o),
(294,-24,cs)
);
}
);
width = 630;
}
);
leftKerningGroup = exclam;
rightKerningGroup = exclam;
unicode = 33;
},
{
glyphname = question;
layers = (
{
layerId = "F9C94342-283B-4575-A5D9-94B9950185BC";
shapes = (
{
closed = 1;
nodes = (
(510,366,l),
(510,549,ls),
(510,626,o),
(523,659,o),
(582,695,c),
(704,774,o),
(836,876,o),
(836,1043,cs),
(836,1225,o),
(682,1344,o),
(448,1344,cs),
(173,1344,o),
(50,1139,o),
(41,1086,c),
(186,1024,l),
(205,1090,o),
(288,1194,o),
(430,1194,cs),
(565,1194,o),
(653,1138,o),
(653,1022,cs),
(653,902,o),
(545,819,o),
(458,766,c),
(393,729,o),
(355,690,o),
(355,609,cs),
(355,366,l)
);
},
{
closed = 1;
nodes = (
(509,-24,o),
(569,36,o),
(569,110,cs),
(569,187,o),
(509,246,o),
(434,246,cs),
(361,246,o),
(300,187,o),
(300,110,cs),
(300,36,o),
(361,-24,o),
(434,-24,cs)
);
}
);
width = 925;
},
{
layerId = "542E67F7-1B71-4779-8BF1-78BC1C9E1EC0";
shapes = (
{
closed = 1;
nodes = (
(621,475,l),
(621,522,ls),
(621,603,o),
(645,658,o),
(717,698,cs),
(787,738,o),
(947,835,o),
(947,1013,cs),
(947,1221,o),
(746,1344,o),
(490,1344,cs),
(114,1344,o),
(-5,1061,o),
(-10,1021,c),
(309,896,l),
(328,949,o),
(362,1022,o),
(438,1022,cs),
(499,1022,o),
(526,1002,o),
(526,950,cs),
(526,893,o),
(472,853,o),
(410,821,cs),
(334,782,o),
(285,715,o),
(285,622,cs),
(285,475,l)
);
},
{
closed = 1;
nodes = (
(579,-24,o),
(677,72,o),
(677,190,cs),
(677,310,o),
(579,406,o),
(459,406,cs),
(342,406,o),
(245,310,o),
(245,190,cs),
(245,72,o),
(342,-24,o),
(459,-24,cs)
);
}
);
width = 994;
},
{
layerId = "CD238245-2B83-4CD3-AFC6-0F2793207444";
shapes = (
{
closed = 1;
nodes = (
(454,312,l),
(454,563,ls),
(454,637,o),
(462,659,o),
(514,693,cs),
(662,792,o),
(781,896,o),
(781,1058,cs),
(781,1227,o),
(650,1344,o),
(427,1344,cs),
(202,1344,o),
(77,1178,o),
(66,1118,c),
(125,1088,l),
(144,1160,o),
(251,1280,o),
(426,1280,cs),
(598,1280,o),
(717,1206,o),
(717,1058,cs),
(717,906,o),
(582,802,o),
(482,739,cs),
(422,702,o),
(390,677,o),
(390,603,cs),
(390,312,l)
);
},
{
closed = 1;
nodes = (
(474,-24,o),
(515,18,o),
(515,70,cs),
(515,125,o),
(474,166,o),
(422,166,cs),
(370,166,o),
(328,125,o),
(328,70,cs),
(328,18,o),
(370,-24,o),
(422,-24,cs)
);
}
);
width = 891;
}
);
leftKerningGroup = question;
rightKerningGroup = question;
unicode = 63;
},
{
glyphname = bullet;
layers = (
{
layerId = "F9C94342-283B-4575-A5D9-94B9950185BC";
shapes = (
{
closed = 1;
nodes = (
(373,793,o),
(275,694,o),
(275,570,cs),
(275,448,o),
(373,350,o),
(495,350,cs),
(619,350,o),
(718,448,o),
(718,570,cs),
(718,695,o),
(619,793,o),
(495,793,cs)
);
}
);
width = 1028;
},
{
layerId = "542E67F7-1B71-4779-8BF1-78BC1C9E1EC0";
shapes = (
{
closed = 1;
nodes = (
(373,946,o),
(206,776,o),
(206,570,cs),
(206,365,o),
(373,197,o),
(579,197,cs),
(786,197,o),
(955,363,o),
(955,570,cs),
(955,778,o),
(786,946,o),
(579,946,cs)
);
}
);
width = 1186;
},
{
layerId = "CD238245-2B83-4CD3-AFC6-0F2793207444";
shapes = (
{
closed = 1;
nodes = (
(373,717,o),
(309,653,o),
(309,570,cs),
(309,490,o),
(373,426,o),
(453,426,cs),
(536,426,o),
(600,490,o),
(600,570,cs),
(600,653,o),
(536,717,o),
(453,717,cs)
);
}
);
width = 949;
}
);
leftKerningGroup = bullet;
rightKerningGroup = bullet;
unicode = 8226;
},
{
glyphname = asterisk;
layers = (
{
layerId = "F9C94342-283B-4575-A5D9-94B9950185BC";
shapes = (
{
closed = 1;
nodes = (
(453,1366,l),
(355,1366,l),
(354,1163,l),
(160,1227,l),
(130,1137,l),
(331,1069,l),
(201,903,l),
(282,847,l),
(403,1008,l),
(520,846,l),
(600,903,l),
(477,1069,l),
(678,1137,l),
(647,1227,l),
(454,1163,l)
);
}
);
width = 842;
},
{
layerId = "542E67F7-1B71-4779-8BF1-78BC1C9E1EC0";
shapes = (
{
closed = 1;
nodes = (
(482,1384,l),
(314,1384,l),
(314,1206,l),
(139,1258,l),
(90,1106,l),
(277,1046,l),
(150,906,l),
(293,803,l),
(398,941,l),
(507,805,l),
(648,906,l),
(520,1046,l),
(706,1106,l),
(656,1258,l),
(482,1206,l)
);
}
);
width = 821;
},
{
layerId = "CD238245-2B83-4CD3-AFC6-0F2793207444";
shapes = (
{
closed = 1;
nodes = (
(438,1357,l),
(376,1357,l),
(374,1141,l),
(170,1211,l),
(150,1152,l),
(358,1080,l),
(227,902,l),
(277,869,l),
(406,1042,l),
(526,867,l),
(576,901,l),
(456,1080,l),
(664,1152,l),
(643,1211,l),
(440,1141,l)
);
}
);
width = 853;
}
);
leftKerningGroup = asterisk;
rightKerningGroup = asterisk;
unicode = 42;
},
{
glyphname = numbersign;
layers = (
{
layerId = "F9C94342-283B-4575-A5D9-94B9950185BC";
shapes = (
{
closed = 1;
nodes = (
(201,0,l),
(324,0,l),
(673,1320,l),
(550,1320,l)
);
},
{
closed = 1;
nodes = (
(579,0,l),
(701,0,l),
(1050,1320,l),
(928,1320,l)
);
},
{
closed = 1;
nodes = (
(221,822,l),
(1098,822,l),
(1135,942,l),
(259,942,l)
);
},
{
closed = 1;
nodes = (
(117,380,l),
(994,380,l),
(1031,500,l),
(155,500,l)
);
}
);
width = 1267;
},
{
layerId = "542E67F7-1B71-4779-8BF1-78BC1C9E1EC0";
shapes = (
{
closed = 1;
nodes = (
(136,0,l),
(395,0,l),
(744,1320,l),
(485,1320,l)
);
},
{
closed = 1;
nodes = (
(584,0,l),
(843,0,l),
(1192,1320,l),
(933,1320,l)
);
},
{
closed = 1;
nodes = (
(184,749,l),
(1176,749,l),
(1250,997,l),
(258,997,l)
);
},
{
closed = 1;
nodes = (
(80,325,l),
(1072,325,l),
(1146,573,l),
(154,573,l)
);
}
);
width = 1373;
},
{
layerId = "CD238245-2B83-4CD3-AFC6-0F2793207444";
shapes = (
{
closed = 1;
nodes = (
(234,0,l),
(288,0,l),
(637,1320,l),
(582,1320,l)
);
},
{
closed = 1;
nodes = (
(576,0,l),
(630,0,l),
(979,1320,l),
(925,1320,l)
);
},
{
closed = 1;
nodes = (
(240,858,l),
(1059,858,l),
(1078,915,l),
(259,915,l)
);
},
{
closed = 1;
nodes = (
(136,408,l),
(955,408,l),
(974,464,l),
(155,464,l)
);
}
);
width = 1214;
}
);
leftKerningGroup = numbersign;
rightKerningGroup = numbersign;
unicode = 35;
},
{
glyphname = slash;
layers = (
{
layerId = "F9C94342-283B-4575-A5D9-94B9950185BC";
shapes = (
{
closed = 1;
nodes = (
(51,-192,l),
(200,-192,l),
(859,1376,l),
(710,1376,l)
);
}
);
width = 954;
},
{
layerId = "542E67F7-1B71-4779-8BF1-78BC1C9E1EC0";
shapes = (
{
closed = 1;
nodes = (
(16,-192,l),
(318,-192,l),
(978,1376,l),
(675,1376,l)
);
}
);
width = 1018;
},
{
layerId = "CD238245-2B83-4CD3-AFC6-0F2793207444";
shapes = (
{
closed = 1;
nodes = (
(69,-192,l),
(141,-192,l),
(800,1376,l),
(728,1376,l)
);
}
);
width = 922;
}
);
leftKerningGroup = slash;
rightKerningGroup = slash;
unicode = 47;
},
{
glyphname = backslash;
layers = (
{
layerId = "F9C94342-283B-4575-A5D9-94B9950185BC";
shapes = (
{
closed = 1;
nodes = (
(209,1376,l),
(59,1376,l),
(718,0,l),
(868,0,l)
);
}
);
width = 954;
},
{
layerId = "542E67F7-1B71-4779-8BF1-78BC1C9E1EC0";
shapes = (
{
closed = 1;
nodes = (
(318,1376,l),
(16,1376,l),
(675,0,l),
(978,0,l)
);
}
);
width = 1018;
},
{
layerId = "CD238245-2B83-4CD3-AFC6-0F2793207444";
shapes = (
{
closed = 1;
nodes = (
(154,1376,l),
(80,1376,l),
(739,0,l),
(813,0,l)
);
}
);
width = 922;
}
);
leftKerningGroup = backslash;
rightKerningGroup = backslash;
unicode = 92;
},
{
glyphname = parenleft;
layers = (
{
layerId = "F9C94342-283B-4575-A5D9-94B9950185BC";
shapes = (
{
closed = 1;
nodes = (
(481,-344,l),
(385,-220,o),
(258,89,o),
(258,475,cs),
(258,886,o),
(393,1208,o),
(493,1336,c),
(381,1396,l),
(261,1245,o),
(103,891,o),
(103,475,cs),
(103,70,o),
(257,-264,o),
(373,-406,c)
);
}
);
width = 610;
},
{
layerId = "542E67F7-1B71-4779-8BF1-78BC1C9E1EC0";
shapes = (
{
closed = 1;
nodes = (
(586,-331,l),
(504,-218,o),
(397,80,o),
(397,475,cs),
(397,893,o),
(522,1197,o),
(614,1310,c),
(390,1403,l),
(250,1250,o),
(64,891,o),
(64,475,cs),
(64,70,o),
(232,-275,o),
(358,-424,c)
);
}
);
width = 685;
},
{
layerId = "CD238245-2B83-4CD3-AFC6-0F2793207444";
shapes = (
{
closed = 1;
nodes = (
(429,-350,l),
(326,-221,o),
(189,93,o),
(189,475,cs),
(189,882,o),
(328,1213,o),
(432,1349,c),
(376,1392,l),
(267,1243,o),
(122,891,o),
(122,475,cs),
(122,70,o),
(269,-259,o),
(381,-397,c)
);
}
);
width = 573;
}
);
leftKerningGroup = parenleft;
rightKerningGroup = parenleft;
unicode = 40;
},
{
glyphname = braceleft;
layers = (
{
layerId = "F9C94342-283B-4575-A5D9-94B9950185BC";
shapes = (
{
closed = 1;
nodes = (
(110,420,l),
(201,420,o),
(234,363,o),
(234,290,cs),
(234,-179,ls),
(234,-314,o),
(283,-416,o),
(445,-416,cs),
(556,-416,l),
(556,-280,l),
(480,-280,ls),
(399,-280,o),
(378,-237,o),
(378,-176,cs),
(378,309,ls),
(378,395,o),
(343,460,o),
(260,479,c),
(341,496,o),
(378,561,o),
(378,651,cs),
(378,1136,ls),
(378,1209,o),
(410,1240,o),
(480,1240,cs),
(556,1240,l),
(556,1376,l),
(445,1376,ls),
(283,1376,o),
(234,1274,o),
(234,1139,cs),
(234,670,ls),
(234,597,o),
(201,541,o),
(110,541,c)
);
}
);
width = 701;
},
{
layerId = "542E67F7-1B71-4779-8BF1-78BC1C9E1EC0";
shapes = (
{
closed = 1;
nodes = (
(78,365,l),
(133,365,o),
(184,342,o),
(184,269,cs),
(184,-126,ls),
(184,-259,o),
(262,-416,o),
(467,-416,cs),
(650,-416,l),
(650,-136,l),
(573,-136,ls),
(514,-136,o),
(485,-107,o),
(485,-43,cs),
(485,309,ls),
(485,392,o),
(462,442,o),
(363,480,c),
(458,517,o),
(485,560,o),
(485,651,cs),
(485,1003,ls),
(485,1067,o),
(514,1096,o),
(573,1096,cs),
(650,1096,l),
(650,1376,l),
(467,1376,ls),
(262,1376,o),
(184,1219,o),
(184,1086,cs),
(184,691,ls),
(184,618,o),
(133,595,o),
(78,595,c)
);
}
);
width = 754;
},
{
layerId = "CD238245-2B83-4CD3-AFC6-0F2793207444";
shapes = (
{
closed = 1;
nodes = (
(126,448,l),
(235,448,o),
(259,374,o),
(259,301,cs),
(259,-206,ls),
(259,-342,o),
(293,-416,o),
(434,-416,cs),
(509,-416,l),
(509,-352,l),
(434,-352,ls),
(341,-352,o),
(325,-302,o),
(325,-243,cs),
(325,309,ls),
(325,397,o),
(283,469,o),
(208,478,c),
(283,486,o),
(325,562,o),
(325,651,cs),
(325,1203,ls),
(325,1280,o),
(358,1312,o),
(434,1312,cs),
(509,1312,l),
(509,1376,l),
(434,1376,ls),
(293,1376,o),
(259,1302,o),
(259,1166,cs),
(259,659,ls),
(259,586,o),
(235,514,o),
(126,514,c)
);
}
);
width = 674;
}
);
leftKerningGroup = braceleft;
rightKerningGroup = braceleft;
unicode = 123;
},
{
glyphname = bracketleft;
layers = (
{
layerId = "F9C94342-283B-4575-A5D9-94B9950185BC";
shapes = (
{
closed = 1;
nodes = (
(538,-416,l),
(538,-283,l),
(254,-283,l),
(254,1243,l),
(538,1243,l),
(538,1376,l),
(110,1376,l),
(110,-416,l)
);
}
);
width = 683;
},
{
layerId = "542E67F7-1B71-4779-8BF1-78BC1C9E1EC0";
shapes = (
{
closed = 1;
nodes = (
(648,-416,l),
(648,-144,l),
(378,-144,l),
(378,1104,l),
(648,1104,l),
(648,1376,l),
(75,1376,l),
(75,-416,l)
);
}
);
width = 747;
},
{
layerId = "CD238245-2B83-4CD3-AFC6-0F2793207444";
shapes = (
{
closed = 1;
nodes = (
(483,-416,l),
(483,-352,l),
(192,-352,l),
(192,1312,l),
(483,1312,l),
(483,1376,l),
(128,1376,l),
(128,-416,l)
);
}
);
width = 651;
}
);
leftKerningGroup = bracketleft;
rightKerningGroup = bracketleft;
unicode = 91;
},
{
glyphname = hyphen;
layers = (
{
layerId = "F9C94342-283B-4575-A5D9-94B9950185BC";
shapes = (
{
closed = 1;
nodes = (
(624,380,l),
(624,531,l),
(109,531,l),
(109,380,l)
);
}
);
width = 768;
},
{
layerId = "542E67F7-1B71-4779-8BF1-78BC1C9E1EC0";
shapes = (
{
closed = 1;
nodes = (
(619,288,l),
(619,621,l),
(104,621,l),
(104,288,l)
);
}
);
width = 747;
},
{
layerId = "CD238245-2B83-4CD3-AFC6-0F2793207444";
shapes = (
{
closed = 1;
nodes = (
(627,426,l),
(627,486,l),
(112,486,l),
(112,426,l)
);
}
);
width = 779;
}
);
leftKerningGroup = hyphen;
rightKerningGroup = hyphen;
unicode = 45;
},
{
glyphname = endash;
layers = (
{
layerId = "F9C94342-283B-4575-A5D9-94B9950185BC";
shapes = (
{
closed = 1;
nodes = (
(824,380,l),
(824,531,l),
(14,531,l),
(14,380,l)
);
}
);
width = 872;
},
{
layerId = "542E67F7-1B71-4779-8BF1-78BC1C9E1EC0";
shapes = (
{
closed = 1;
nodes = (
(891,288,l),
(891,621,l),
(-10,621,l),
(-10,288,l)
);
}
);
width = 904;
},
{
layerId = "CD238245-2B83-4CD3-AFC6-0F2793207444";
shapes = (
{
closed = 1;
nodes = (
(790,426,l),
(790,486,l),
(26,486,l),
(26,426,l)
);
}
);
width = 856;
}
);
leftKerningGroup = hyphen;
rightKerningGroup = hyphen;
unicode = 8211;
},
{
glyphname = emdash;
layers = (
{
layerId = "F9C94342-283B-4575-A5D9-94B9950185BC";
shapes = (
{
closed = 1;
nodes = (
(1590,380,l),
(1590,531,l),
(15,531,l),
(15,380,l)
);
}
);
width = 1640;
},
{
layerId = "542E67F7-1B71-4779-8BF1-78BC1C9E1EC0";
shapes = (
{
closed = 1;
nodes = (
(1787,288,l),
(1787,621,l),
(-42,621,l),
(-42,288,l)
);
}
);
width = 1768;
},
{
layerId = "CD238245-2B83-4CD3-AFC6-0F2793207444";
shapes = (
{
closed = 1;
nodes = (
(1491,426,l),
(1491,486,l),
(43,486,l),
(43,426,l)
);
}
);
width = 1576;
}
);
leftKerningGroup = hyphen;
rightKerningGroup = hyphen;
unicode = 8212;
},
{
glyphname = underscore;
layers = (
{
layerId = "F9C94342-283B-4575-A5D9-94B9950185BC";
shapes = (
{
closed = 1;
nodes = (
(792,-158,l),
(792,-46,l),
(19,-46,l),
(19,-158,l)
);
}
);
width = 818;
},
{
layerId = "542E67F7-1B71-4779-8BF1-78BC1C9E1EC0";
shapes = (
{
closed = 1;
nodes = (
(851,-222,l),
(851,-10,l),
(3,-10,l),
(3,-222,l)
);
}
);
width = 861;
},
{
layerId = "CD238245-2B83-4CD3-AFC6-0F2793207444";
shapes = (
{
closed = 1;
nodes = (
(763,-126,l),
(763,-64,l),
(27,-64,l),
(27,-126,l)
);
}
);
width = 797;
}
);
leftKerningGroup = underscore;
rightKerningGroup = underscore;
unicode = 95;
},
{
glyphname = quotesinglbase;
layers = (
{
layerId = "F9C94342-283B-4575-A5D9-94B9950185BC";
shapes = (
{
closed = 1;
nodes = (
(162,251,o),
(100,191,o),
(100,109,cs),
(100,35,o),
(158,-24,o),
(225,-24,cs),
(245,-24,o),
(261,-21,o),
(277,-13,c),
(257,-89,o),
(171,-155,o),
(111,-184,c),
(176,-251,l),
(289,-190,o),
(391,-56,o),
(391,92,cs),
(391,190,o),
(324,251,o),
(243,251,cs)
);
}
);
width = 475;
},
{
layerId = "542E67F7-1B71-4779-8BF1-78BC1C9E1EC0";
shapes = (
{
closed = 1;
nodes = (
(157,402,o),
(61,307,o),
(61,192,cs),
(61,62,o),
(149,-11,o),
(238,-11,cs),
(267,-11,o),
(283,-8,o),
(296,0,c),
(264,-98,o),
(155,-187,o),
(82,-227,c),
(173,-334,l),
(334,-245,o),
(478,-35,o),
(478,163,cs),
(478,323,o),
(384,402,o),
(270,402,cs)
);
}
);
width = 506;
},
{
layerId = "CD238245-2B83-4CD3-AFC6-0F2793207444";
shapes = (
{
closed = 1;
nodes = (
(165,176,o),
(120,133,o),
(120,67,cs),
(120,21,o),
(162,-30,o),
(219,-30,cs),
(234,-30,o),
(250,-27,o),
(267,-19,c),
(254,-85,o),
(179,-139,o),
(125,-163,c),
(178,-210,l),
(267,-162,o),
(347,-67,o),
(347,56,cs),
(347,123,o),
(294,176,o),
(229,176,cs)
);
}
);
width = 459;
}
);
leftKerningGroup = period;
rightKerningGroup = period;
unicode = 8218;
},
{
glyphname = quoteleft;
layers = (
{
layerId = "F9C94342-283B-4575-A5D9-94B9950185BC";
shapes = (
{
closed = 1;
nodes = (
(318,850,o),
(383,909,o),
(383,1003,cs),
(383,1081,o),
(328,1127,o),
(267,1127,cs),
(235,1127,o),
(202,1115,o),
(190,1099,c),
(192,1169,o),
(277,1251,o),
(327,1271,c),
(274,1331,l),
(182,1285,o),
(78,1183,o),
(78,1026,cs),
(78,913,o),
(144,850,o),
(231,850,cs)
);
}
);
width = 451;
},
{
layerId = "542E67F7-1B71-4779-8BF1-78BC1C9E1EC0";
shapes = (
{
closed = 1;
nodes = (
(387,704,o),
(477,786,o),
(477,918,cs),
(477,1046,o),
(397,1099,o),
(326,1099,cs),
(296,1099,o),
(259,1094,o),
(245,1080,c),
(245,1184,o),
(387,1272,o),
(432,1294,c),
(347,1358,l),
(198,1294,o),
(67,1152,o),
(67,950,cs),
(67,787,o),
(155,704,o),
(272,704,cs)
);
}
);
width = 506;
},
{
layerId = "CD238245-2B83-4CD3-AFC6-0F2793207444";
shapes = (
{
closed = 1;
nodes = (
(283,923,o),
(336,971,o),
(336,1045,cs),
(336,1099,o),
(293,1141,o),
(238,1141,cs),
(205,1141,o),
(173,1125,o),
(163,1109,c),
(166,1162,o),
(222,1240,o),
(274,1259,c),
(237,1317,l),
(174,1280,o),
(83,1198,o),
(83,1064,cs),
(83,976,o),
(138,923,o),
(210,923,cs)
);
}
);
width = 424;
}
);
leftKerningGroup = quotedblleft;
rightKerningGroup = quotedblleft;
unicode = 8216;
},
{
glyphname = guillemetleft;
layers = (
{
layerId = "F9C94342-283B-4575-A5D9-94B9950185BC";
shapes = (
{
closed = 1;
nodes = (
(207,445,l),
(449,750,l),
(361,819,l),
(67,445,l),
(361,70,l),
(449,141,l)
);
},
{
closed = 1;
nodes = (
(588,445,l),
(830,750,l),
(741,819,l),
(448,445,l),
(741,70,l),
(830,141,l)
);
}
);
width = 965;
},
{
layerId = "542E67F7-1B71-4779-8BF1-78BC1C9E1EC0";
shapes = (
{
closed = 1;
nodes = (
(334,445,l),
(541,714,l),
(354,862,l),
(29,445,l),
(354,29,l),
(541,176,l)
);
},
{
closed = 1;
nodes = (
(747,445,l),
(954,714,l),
(766,862,l),
(442,445,l),
(766,29,l),
(954,176,l)
);
}
);
width = 1040;
},
{
layerId = "CD238245-2B83-4CD3-AFC6-0F2793207444";
shapes = (
{
closed = 1;
nodes = (
(144,445,l),
(403,768,l),
(365,797,l),
(86,445,l),
(365,91,l),
(403,123,l)
);
},
{
closed = 1;
nodes = (
(509,445,l),
(768,768,l),
(728,797,l),
(451,445,l),
(728,91,l),
(768,123,l)
);
}
);
width = 928;
}
);
leftKerningGroup = guillemetleft;
rightKerningGroup = guillemetleft;
unicode = 171;
},
{
glyphname = guilsinglleft;
layers = (
{
layerId = "F9C94342-283B-4575-A5D9-94B9950185BC";
shapes = (
{
closed = 1;
nodes = (
(208,445,l),
(449,750,l),
(361,819,l),
(67,445,l),
(361,70,l),
(449,141,l)
);
}
);
width = 585;
},
{
layerId = "542E67F7-1B71-4779-8BF1-78BC1C9E1EC0";
shapes = (
{
closed = 1;
nodes = (
(341,445,l),
(547,714,l),
(360,862,l),
(35,445,l),
(360,29,l),
(547,176,l)
);
}
);
width = 640;
},
{
layerId = "CD238245-2B83-4CD3-AFC6-0F2793207444";
shapes = (
{
closed = 1;
nodes = (
(141,445,l),
(400,768,l),
(362,797,l),
(83,445,l),
(362,91,l),
(400,123,l)
);
}
);
width = 557;
}
);
leftKerningGroup = guillemotleft;
rightKerningGroup = guillemotleft;
unicode = 8249;
},
{
glyphname = quotedbl;
layers = (
{
layerId = "F9C94342-283B-4575-A5D9-94B9950185BC";
shapes = (
{
closed = 1;
nodes = (
(151,1312,o),
(110,1265,o),
(110,1215,cs),
(110,1209,ls),
(110,1168,o),
(139,976,o),
(162,844,c),
(230,844,l),
(263,976,o),
(306,1168,o),
(306,1209,cs),
(306,1215,ls),
(306,1264,o),
(266,1312,o),
(208,1312,cs)
);
},
{
closed = 1;
nodes = (
(456,1312,o),
(417,1265,o),
(417,1215,cs),
(417,1209,ls),
(417,1168,o),
(446,976,o),
(468,844,c),
(535,844,l),
(568,976,o),
(612,1168,o),
(612,1209,cs),
(612,1215,ls),
(612,1265,o),
(573,1312,o),
(514,1312,cs)
);
}
);
width = 758;
},
{
layerId = "542E67F7-1B71-4779-8BF1-78BC1C9E1EC0";
shapes = (
{
closed = 1;
nodes = (
(142,1366,o),
(62,1299,o),
(62,1230,cs),
(62,1222,ls),
(62,1162,o),
(118,891,o),
(160,704,c),
(254,704,l),
(312,891,o),
(387,1162,o),
(387,1222,cs),
(387,1230,ls),
(387,1299,o),
(307,1366,o),
(224,1366,cs)
);
},
{
closed = 1;
nodes = (
(530,1366,o),
(450,1299,o),
(450,1230,cs),
(450,1222,ls),
(450,1162,o),
(506,891,o),
(547,704,c),
(642,704,l),
(699,891,o),
(774,1162,o),
(774,1222,cs),
(774,1230,ls),
(774,1299,o),
(694,1366,o),
(611,1366,cs)
);
}
);
width = 861;
},
{
layerId = "CD238245-2B83-4CD3-AFC6-0F2793207444";
shapes = (
{
closed = 1;
nodes = (
(155,1285,o),
(134,1248,o),
(134,1208,cs),
(134,1203,ls),
(134,1171,o),
(150,1019,o),
(163,914,c),
(218,914,l),
(238,1019,o),
(266,1171,o),
(266,1203,cs),
(266,1208,ls),
(266,1246,o),
(246,1285,o),
(200,1285,cs)
);
},
{
closed = 1;
nodes = (
(419,1285,o),
(400,1248,o),
(400,1208,cs),
(400,1203,ls),
(400,1171,o),
(416,1019,o),
(429,914,c),
(482,914,l),
(502,1019,o),
(531,1171,o),
(531,1203,cs),
(531,1208,ls),
(531,1248,o),
(512,1285,o),
(466,1285,cs)
);
}
);
width = 707;
}
);
leftKerningGroup = quotedbl;
rightKerningGroup = quotedbl;
unicode = 34;
},
{
glyphname = quotesingle;
layers = (
{
layerId = "F9C94342-283B-4575-A5D9-94B9950185BC";
shapes = (
{
closed = 1;
nodes = (
(151,1312,o),
(110,1268,o),
(110,1199,cs),
(110,1125,o),
(137,975,o),
(162,844,c),
(230,844,l),
(267,978,o),
(306,1121,o),
(306,1199,cs),
(306,1266,o),
(266,1312,o),
(208,1312,cs)
);
}
);
width = 451;
},
{
layerId = "542E67F7-1B71-4779-8BF1-78BC1C9E1EC0";
shapes = (
{
closed = 1;
nodes = (
(158,1366,o),
(78,1307,o),
(78,1182,cs),
(78,1019,o),
(133,838,o),
(176,704,c),
(270,704,l),
(328,838,o),
(403,1016,o),
(403,1182,cs),
(403,1307,o),
(323,1366,o),
(240,1366,cs)
);
}
);
width = 506;
},
{
layerId = "CD238245-2B83-4CD3-AFC6-0F2793207444";
shapes = (
{
closed = 1;
nodes = (
(147,1285,o),
(126,1248,o),
(126,1208,cs),
(126,1178,o),
(139,1043,o),
(155,914,c),
(210,914,l),
(237,1048,o),
(258,1174,o),
(258,1208,cs),
(258,1246,o),
(238,1285,o),
(192,1285,cs)
);
}
);
width = 424;
}
);
leftKerningGroup = quotedbl;
rightKerningGroup = quotesingle;
unicode = 39;
},
{
glyphname = cent;
layers = (
{
anchors = (
{
name = bottom;
position = "{401, 0}";
},
{
name = top;
position = "{401, 821}";
}
);
layerId = "F9C94342-283B-4575-A5D9-94B9950185BC";
shapes = (
{
closed = 1;
nodes = (
(418,790,l),
(529,790,l),
(529,1018,l),
(418,1018,l)
);
},
{
closed = 1;
nodes = (
(418,-206,l),
(529,-206,l),
(529,21,l),
(418,21,l)
);
},
{
alignment = -1;
ref = c;
}
);
width = 830;
},
{
layerId = "542E67F7-1B71-4779-8BF1-78BC1C9E1EC0";
shapes = (
{
closed = 1;
nodes = (
(400,790,l),
(614,790,l),
(614,1018,l),
(400,1018,l)
);
},
{
closed = 1;
nodes = (
(400,-206,l),
(614,-206,l),
(614,21,l),
(400,21,l)
);
},
{
alignment = -1;
ref = c;
}
);
width = 867;
},
{
layerId = "CD238245-2B83-4CD3-AFC6-0F2793207444";
shapes = (
{
closed = 1;
nodes = (
(427,790,l),
(486,790,l),
(486,1018,l),
(427,1018,l)
);
},
{
closed = 1;
nodes = (
(427,-206,l),
(486,-206,l),
(486,21,l),
(427,21,l)
);
},
{
alignment = -1;
ref = c;
}
);
width = 811;
}
);
leftKerningGroup = o;
rightKerningGroup = c;
unicode = 162;
},
{
glyphname = colonsign;
layers = (
{
anchors = (
{
name = bottom;
position = "{651, 0}";
},
{
name = top;
position = "{651, 1320}";
}
);
layerId = "F9C94342-283B-4575-A5D9-94B9950185BC";
shapes = (
{
closed = 1;
nodes = (
(297,-192,l),
(422,-192,l),
(1081,1376,l),
(956,1376,l)
);
},
{
closed = 1;
nodes = (
(97,-189,l),
(221,-189,l),
(881,1379,l),
(756,1379,l)
);
},
{
alignment = -1;
ref = C.ss01;
}
);
width = 1106;
},
{
layerId = "542E67F7-1B71-4779-8BF1-78BC1C9E1EC0";
shapes = (
{
closed = 1;
nodes = (
(459,-192,l),
(688,-192,l),
(1348,1376,l),
(1118,1376,l)
);
},
{
closed = 1;
nodes = (
(153,-182,l),
(382,-182,l),
(1042,1386,l),
(812,1386,l)
);
},
{
alignment = -1;
ref = C.ss01;
}
);
width = 1206;
},
{
layerId = "CD238245-2B83-4CD3-AFC6-0F2793207444";
shapes = (
{
closed = 1;
nodes = (
(216,-192,l),
(288,-192,l),
(947,1376,l),
(875,1376,l)
);
},
{
closed = 1;
nodes = (
(69,-192,l),
(141,-192,l),
(800,1376,l),
(728,1376,l)
);
},
{
alignment = -1;
ref = C.ss01;
}
);
width = 1056;
}
);
unicode = 8353;
},
{
glyphname = currency;
layers = (
{
anchors = (
{
name = bottom;
position = "{493, 30}";
},
{
name = center;
position = "{493, 702}";
},
{
name = ogonek;
position = "{865, 176}";
},
{
name = top;
position = "{493, 981}";
},
{
name = topright;
position = "{712, 944}";
}
);
layerId = "F9C94342-283B-4575-A5D9-94B9950185BC";
shapes = (
{
closed = 1;
nodes = (
(726,880,l),
(805,801,l),
(965,962,l),
(887,1040,l)
);
},
{
closed = 1;
nodes = (
(21,174,l),
(99,97,l),
(261,257,l),
(182,336,l)
);
},
{
closed = 1;
nodes = (
(21,962,l),
(182,801,l),
(261,880,l),
(99,1040,l)
);
},
{
closed = 1;
nodes = (
(726,257,l),
(887,97,l),
(965,174,l),
(805,336,l)
);
},
{
alignment = -1;
pos = (11,160);
ref = o;
}
);
width = 987;
},
{
layerId = "542E67F7-1B71-4779-8BF1-78BC1C9E1EC0";
shapes = (
{
closed = 1;
nodes = (
(744,912,l),
(894,760,l),
(1056,922,l),
(904,1072,l)
);
},
{
closed = 1;
nodes = (
(38,206,l),
(190,56,l),
(350,216,l),
(200,368,l)
);
},
{
closed = 1;
nodes = (
(38,922,l),
(200,760,l),
(350,912,l),
(190,1072,l)
);
},
{
closed = 1;
nodes = (
(744,216,l),
(904,56,l),
(1056,206,l),
(894,368,l)
);
},
{
alignment = -1;
pos = (32,160);
ref = o;
}
);
width = 1085;
},
{
layerId = "CD238245-2B83-4CD3-AFC6-0F2793207444";
shapes = (
{
closed = 1;
nodes = (
(717,864,l),
(760,821,l),
(920,982,l),
(878,1024,l)
);
},
{
closed = 1;
nodes = (
(13,158,l),
(54,117,l),
(216,277,l),
(173,320,l)
);
},
{
closed = 1;
nodes = (
(13,982,l),
(173,821,l),
(216,864,l),
(54,1024,l)
);
},
{
closed = 1;
nodes = (
(717,277,l),
(878,117,l),
(920,158,l),
(760,320,l)
);
},
{
alignment = -1;
pos = (0,160);
ref = o;
}
);
width = 938;
}
);
unicode = 164;
},
{
glyphname = dollar;
layers = (
{
anchors = (
{
name = bottom;
position = "{503, 0}";
},
{
name = top;
position = "{503, 1320}";
}
);
layerId = "F9C94342-283B-4575-A5D9-94B9950185BC";
shapes = (
{
closed = 1;
nodes = (
(475,1307,l),
(585,1307,l),
(585,1534,l),
(475,1534,l)
);
},
{
closed = 1;
nodes = (
(475,-206,l),
(585,-206,l),
(585,21,l),
(475,21,l)
);
},
{
alignment = -1;
ref = S;
}
);
width = 1056;
},
{
layerId = "542E67F7-1B71-4779-8BF1-78BC1C9E1EC0";
shapes = (
{
closed = 1;
nodes = (
(458,1307,l),
(672,1307,l),
(672,1534,l),
(458,1534,l)
);
},
{
closed = 1;
nodes = (
(458,-206,l),
(672,-206,l),
(672,21,l),
(458,21,l)
);
},
{
alignment = -1;
ref = S;
}
);
width = 1163;
},
{
layerId = "CD238245-2B83-4CD3-AFC6-0F2793207444";
shapes = (
{
closed = 1;
nodes = (
(483,1307,l),
(542,1307,l),
(542,1534,l),
(483,1534,l)
);
},
{
closed = 1;
nodes = (
(483,-206,l),
(542,-206,l),
(542,21,l),
(483,21,l)
);
},
{
alignment = -1;
ref = S;
}
);
width = 1003;
}
);
leftKerningGroup = dollar;
rightKerningGroup = dollar;
unicode = 36;
},
{
glyphname = euro;
layers = (
{
anchors = (
{
name = bottom;
position = "{820, 0}";
},
{
name = top;
position = "{789, 1320}";
}
);
layerId = "F9C94342-283B-4575-A5D9-94B9950185BC";
shapes = (
{
closed = 1;
nodes = (
(25,738,l),
(1020,738,l),
(1020,846,l),
(25,846,l)
);
},
{
closed = 1;
nodes = (
(25,471,l),
(1020,471,l),
(1020,579,l),
(25,579,l)
);
},
{
alignment = -1;
pos = (69,0);
ref = C;
}
);
width = 1304;
},
{
layerId = "542E67F7-1B71-4779-8BF1-78BC1C9E1EC0";
shapes = (
{
closed = 1;
nodes = (
(8,691,l),
(1003,691,l),
(1003,893,l),
(8,893,l)
);
},
{
closed = 1;
nodes = (
(8,424,l),
(1003,424,l),
(1003,626,l),
(8,626,l)
);
},
{
alignment = -1;
pos = (58,0);
ref = C;
}
);
width = 1315;
},
{
layerId = "CD238245-2B83-4CD3-AFC6-0F2793207444";
shapes = (
{
closed = 1;
nodes = (
(34,762,l),
(1029,762,l),
(1029,822,l),
(34,822,l)
);
},
{
closed = 1;
nodes = (
(34,494,l),
(1029,494,l),
(1029,555,l),
(34,555,l)
);
},
{
alignment = -1;
pos = (75,0);
ref = C;
}
);
width = 1299;
}
);
leftKerningGroup = euro;
rightKerningGroup = euro;
unicode = 8364;
},
{
glyphname = florin;
layers = (
{
layerId = "F9C94342-283B-4575-A5D9-94B9950185BC";
shapes = (
{
closed = 1;
nodes = (
(65,-430,o),
(229,-334,o),
(263,-83,cs),
(370,672,l),
(593,672,l),
(614,821,l),
(392,821,l),
(421,1034,ls),
(446,1215,o),
(523,1249,o),
(588,1249,cs),
(650,1249,o),
(679,1223,o),
(686,1217,c),
(770,1354,l),
(763,1361,o),
(701,1400,o),
(592,1400,cs),
(448,1400,o),
(285,1304,o),
(251,1054,cs),
(218,821,l),
(51,821,l),
(30,672,l),
(197,672,l),
(93,-65,ls),
(68,-245,o),
(-9,-279,o),
(-75,-279,cs),
(-136,-279,o),
(-166,-253,o),
(-173,-246,c),
(-256,-384,l),
(-250,-391,o),
(-188,-430,o),
(-78,-430,cs)
);
}
);
width = 654;
},
{
layerId = "542E67F7-1B71-4779-8BF1-78BC1C9E1EC0";
shapes = (
{
closed = 1;
nodes = (
(189,-435,o),
(402,-294,o),
(434,-62,c),
(512,501,l),
(662,501,l),
(707,821,l),
(557,821,l),
(581,995,ls),
(589,1050,o),
(626,1069,o),
(654,1069,cs),
(685,1069,o),
(704,1051,o),
(707,1048,c),
(882,1349,l),
(875,1357,o),
(782,1400,o),
(635,1400,cs),
(437,1400,o),
(224,1259,o),
(192,1027,cs),
(163,821,l),
(50,821,l),
(5,501,l),
(118,501,l),
(45,-30,l),
(37,-85,o),
(0,-104,o),
(-29,-104,cs),
(-59,-104,o),
(-78,-86,o),
(-82,-83,c),
(-256,-384,l),
(-250,-392,o),
(-157,-435,o),
(-10,-435,cs)
);
}
);
width = 742;
},
{
layerId = "CD238245-2B83-4CD3-AFC6-0F2793207444";
shapes = (
{
closed = 1;
nodes = (
(3,-427,o),
(142,-354,o),
(178,-94,c),
(299,758,l),
(558,758,l),
(568,821,l),
(309,821,l),
(341,1054,ls),
(374,1298,o),
(472,1339,o),
(555,1339,cs),
(632,1339,o),
(667,1309,o),
(675,1301,c),
(714,1357,l),
(707,1363,o),
(661,1400,o),
(570,1400,cs),
(454,1400,o),
(315,1326,o),
(280,1067,cs),
(246,821,l),
(51,821,l),
(42,758,l),
(237,758,l),
(117,-82,l),
(83,-325,o),
(-14,-366,o),
(-98,-366,cs),
(-174,-366,o),
(-210,-336,o),
(-218,-328,c),
(-256,-384,l),
(-250,-390,o),
(-203,-427,o),
(-112,-427,cs)
);
}
);
width = 610;
}
);
unicode = 402;
},
{
glyphname = franc;
layers = (
{
anchors = (
{
name = bottom;
position = "{430, 0}";
},
{
name = top;
position = "{430, 1320}";
}
);
layerId = "F9C94342-283B-4575-A5D9-94B9950185BC";
shapes = (
{
closed = 1;
nodes = (
(-19,276,l),
(575,276,l),
(575,395,l),
(-19,395,l)
);
},
{
alignment = -1;
ref = F;
}
);
width = 910;
},
{
layerId = "542E67F7-1B71-4779-8BF1-78BC1C9E1EC0";
shapes = (
{
closed = 1;
nodes = (
(-19,165,l),
(707,165,l),
(707,395,l),
(-19,395,l)
);
},
{
alignment = -1;
ref = F;
}
);
width = 995;
},
{
layerId = "CD238245-2B83-4CD3-AFC6-0F2793207444";
shapes = (
{
closed = 1;
nodes = (
(-19,331,l),
(509,331,l),
(509,395,l),
(-19,395,l)
);
},
{
alignment = -1;
ref = F;
}
);
width = 867;
}
);
unicode = 8355;
},
{
glyphname = lira;
layers = (
{
layerId = "F9C94342-283B-4575-A5D9-94B9950185BC";
shapes = (
{
closed = 1;
nodes = (
(335,511,o),
(363,434,o),
(363,363,cs),
(363,305,o),
(349,262,o),
(339,243,c),
(216,243,o),
(97,121,o),
(91,0,c),
(226,0,l),
(231,34,o),
(288,116,o),
(373,116,cs),
(534,116,o),
(617,-24,o),
(815,-24,cs),
(977,-24,o),
(1071,98,o),
(1098,191,c),
(955,245,l),
(947,198,o),
(899,115,o),
(799,115,cs),
(675,115,o),
(584,222,o),
(485,232,c),
(490,245,o),
(511,305,o),
(511,367,cs),
(511,438,o),
(497,497,o),
(456,603,c),
(435,646,o),
(361,835,o),
(361,950,cs),
(361,1111,o),
(455,1202,o),
(615,1202,cs),
(768,1202,o),
(859,1087,o),
(883,1001,c),
(1026,1075,l),
(989,1191,o),
(851,1346,o),
(609,1346,cs),
(324,1346,o),
(193,1169,o),
(193,957,cs),
(193,814,o),
(269,637,o),
(289,603,c)
);
},
{
closed = 1;
nodes = (
(100,637,l),
(824,637,l),
(824,727,l),
(100,727,l)
);
},
{
closed = 1;
nodes = (
(100,431,l),
(824,431,l),
(824,521,l),
(100,521,l)
);
}
);
width = 1206;
},
{
layerId = "542E67F7-1B71-4779-8BF1-78BC1C9E1EC0";
shapes = (
{
closed = 1;
nodes = (
(298,550,o),
(344,443,o),
(344,389,cs),
(344,350,o),
(338,333,o),
(320,306,c),
(168,306,o),
(46,184,o),
(46,0,c),
(315,0,l),
(326,16,o),
(352,38,o),
(384,38,cs),
(536,38,o),
(624,-24,o),
(824,-24,cs),
(1026,-24,o),
(1138,118,o),
(1165,227,c),
(856,338,l),
(854,333,o),
(830,264,o),
(771,264,cs),
(701,264,o),
(653,286,o),
(635,286,c),
(642,296,o),
(662,352,o),
(662,402,cs),
(662,470,o),
(650,547,o),
(605,650,cs),
(582,701,o),
(536,822,o),
(536,909,cs),
(536,986,o),
(566,1042,o),
(638,1042,cs),
(725,1042,o),
(758,941,o),
(758,864,c),
(1075,1021,l),
(1054,1160,o),
(917,1346,o),
(622,1346,cs),
(326,1346,o),
(158,1165,o),
(158,925,cs),
(158,803,o),
(200,714,o),
(238,650,cs)
);
},
{
closed = 1;
nodes = (
(72,627,l),
(840,627,l),
(840,774,l),
(72,774,l)
);
},
{
closed = 1;
nodes = (
(72,419,l),
(840,419,l),
(840,566,l),
(72,566,l)
);
}
);
width = 1238;
},
{
layerId = "CD238245-2B83-4CD3-AFC6-0F2793207444";
shapes = (
{
closed = 1;
nodes = (
(354,491,o),
(373,429,o),
(373,350,cs),
(373,283,o),
(354,226,o),
(349,211,c),
(240,211,o),
(123,90,o),
(114,0,c),
(181,0,l),
(184,43,o),
(256,155,o),
(368,155,cs),
(533,155,o),
(613,-24,o),
(811,-24,cs),
(952,-24,o),
(1038,88,o),
(1064,173,c),
(1005,198,l),
(994,130,o),
(934,40,o),
(813,40,cs),
(662,40,o),
(550,190,o),
(410,205,c),
(414,219,o),
(435,282,o),
(435,350,cs),
(435,422,o),
(421,472,o),
(381,579,c),
(362,619,o),
(274,842,o),
(274,971,cs),
(274,1173,o),
(400,1282,o),
(603,1282,cs),
(790,1282,o),
(909,1160,o),
(946,1069,c),
(1002,1102,l),
(957,1206,o),
(818,1346,o),
(603,1346,cs),
(323,1346,o),
(210,1171,o),
(210,973,cs),
(210,819,o),
(304,598,o),
(314,579,c)
);
},
{
closed = 1;
nodes = (
(114,642,l),
(816,642,l),
(816,704,l),
(114,704,l)
);
},
{
closed = 1;
nodes = (
(114,437,l),
(816,437,l),
(816,499,l),
(114,499,l)
);
}
);
width = 1190;
}
);
unicode = 8356;
},
{
glyphname = liraTurkish;
layers = (
{
layerId = "F9C94342-283B-4575-A5D9-94B9950185BC";
shapes = (
{
closed = 1;
nodes = (
(110,0,l),
(327,0,ls),
(721,0,o),
(878,201,o),
(878,483,c),
(728,483,l),
(728,281,o),
(619,155,o),
(281,155,c),
(281,1320,l),
(110,1320,l)
);
},
{
closed = 1;
nodes = (
(680,908,l),
(680,1027,l),
(-24,796,l),
(-24,678,l)
);
},
{
closed = 1;
nodes = (
(680,655,l),
(680,774,l),
(-24,542,l),
(-24,423,l)
);
}
);
width = 917;
},
{
layerId = "542E67F7-1B71-4779-8BF1-78BC1C9E1EC0";
shapes = (
{
closed = 1;
nodes = (
(78,0,l),
(470,0,l),
(832,0,o),
(1053,155,o),
(1053,594,c),
(731,594,l),
(731,390,o),
(616,336,o),
(466,336,c),
(466,1320,l),
(78,1320,l)
);
},
{
closed = 1;
nodes = (
(781,997,l),
(781,1232,l),
(-29,968,l),
(-29,733,l)
);
},
{
closed = 1;
nodes = (
(781,658,l),
(781,893,l),
(-29,629,l),
(-29,394,l)
);
}
);
width = 1024;
},
{
layerId = "CD238245-2B83-4CD3-AFC6-0F2793207444";
shapes = (
{
closed = 1;
nodes = (
(126,0,l),
(256,0,l),
(666,0,o),
(790,224,o),
(790,427,c),
(726,427,l),
(726,226,o),
(621,64,o),
(189,64,c),
(189,1320,l),
(126,1320,l)
);
},
{
closed = 1;
nodes = (
(629,864,l),
(629,925,l),
(-21,710,l),
(-21,650,l)
);
},
{
closed = 1;
nodes = (
(629,653,l),
(629,714,l),
(-21,499,l),
(-21,438,l)
);
}
);
width = 864;
}
);
unicode = 8378;
},
{
glyphname = manat;
layers = (
{
layerId = "F9C94342-283B-4575-A5D9-94B9950185BC";
shapes = (
{
closed = 1;
nodes = (
(268,0,l),
(268,806,ls),
(268,979,o),
(350,1088,o),
(516,1088,cs),
(680,1088,o),
(763,979,o),
(763,806,cs),
(763,0,l),
(935,0,l),
(935,831,ls),
(935,1071,o),
(791,1238,o),
(516,1238,cs),
(240,1238,o),
(97,1071,o),
(97,831,cs),
(97,0,l)
);
},
{
closed = 1;
nodes = (
(573,0,l),
(573,1376,l),
(455,1376,l),
(455,0,l)
);
}
);
width = 1066;
},
{
layerId = "542E67F7-1B71-4779-8BF1-78BC1C9E1EC0";
shapes = (
{
closed = 1;
nodes = (
(443,0,l),
(443,739,ls),
(443,842,o),
(501,907,o),
(626,907,cs),
(749,907,o),
(806,842,o),
(806,739,cs),
(806,0,l),
(1194,0,l),
(1194,778,ls),
(1194,1058,o),
(1010,1227,o),
(626,1227,cs),
(240,1227,o),
(56,1058,o),
(56,778,cs),
(56,0,l)
);
},
{
closed = 1;
nodes = (
(744,0,l),
(744,1376,l),
(512,1376,l),
(512,0,l)
);
}
);
width = 1274;
},
{
layerId = "CD238245-2B83-4CD3-AFC6-0F2793207444";
shapes = (
{
closed = 1;
nodes = (
(181,0,l),
(181,840,ls),
(181,1048,o),
(275,1179,o),
(461,1179,cs),
(646,1179,o),
(741,1048,o),
(741,840,cs),
(741,0,l),
(805,0,l),
(805,858,ls),
(805,1077,o),
(682,1243,o),
(461,1243,cs),
(240,1243,o),
(117,1077,o),
(117,858,cs),
(117,0,l)
);
},
{
closed = 1;
nodes = (
(488,0,l),
(488,1376,l),
(427,1376,l),
(427,0,l)
);
}
);
width = 962;
}
);
unicode = 8380;
},
{
glyphname = peso;
layers = (
{
anchors = (
{
name = bottom;
position = "{493, 0}";
},
{
name = top;
position = "{493, 1320}";
}
);
layerId = "F9C94342-283B-4575-A5D9-94B9950185BC";
shapes = (
{
closed = 1;
nodes = (
(120,0,l),
(291,0,l),
(291,352,l),
(494,352,ls),
(741,352,o),
(941,522,o),
(941,844,cs),
(941,1167,o),
(741,1320,o),
(494,1320,cs),
(120,1320,l)
);
},
{
closed = 1;
nodes = (
(291,1177,l),
(447,1177,ls),
(616,1177,o),
(760,1087,o),
(760,841,cs),
(760,595,o),
(616,495,o),
(447,495,cs),
(291,495,l)
);
},
{
closed = 1;
nodes = (
(1016,696,l),
(1016,789,l),
(13,789,l),
(13,696,l)
);
},
{
closed = 1;
nodes = (
(1016,884,l),
(1016,976,l),
(13,976,l),
(13,884,l)
);
}
);
width = 1037;
},
{
anchors = (
{
name = bottom;
position = "{541, 0}";
},
{
name = top;
position = "{541, 1320}";
}
);
layerId = "542E67F7-1B71-4779-8BF1-78BC1C9E1EC0";
shapes = (
{
closed = 1;
nodes = (
(61,0,l),
(448,0,l),
(448,277,l),
(614,277,ls),
(872,277,o),
(1090,490,o),
(1090,808,cs),
(1090,1126,o),
(872,1320,o),
(614,1320,cs),
(61,1320,l)
);
},
{
closed = 1;
nodes = (
(448,1019,l),
(506,1019,ls),
(594,1019,o),
(675,950,o),
(675,798,cs),
(675,646,o),
(594,578,o),
(506,578,cs),
(448,578,l)
);
},
{
closed = 1;
nodes = (
(1171,627,l),
(1171,778,l),
(-14,778,l),
(-14,627,l)
);
},
{
closed = 1;
nodes = (
(1171,821,l),
(1171,971,l),
(-14,971,l),
(-14,821,l)
);
}
);
width = 1154;
},
{
anchors = (
{
name = bottom;
position = "{469, 0}";
},
{
name = top;
position = "{469, 1320}";
}
);
layerId = "CD238245-2B83-4CD3-AFC6-0F2793207444";
shapes = (
{
closed = 1;
nodes = (
(150,0,l),
(213,0,l),
(213,390,l),
(434,390,ls),
(675,390,o),
(866,538,o),
(866,862,cs),
(866,1187,o),
(675,1320,o),
(434,1320,cs),
(150,1320,l)
);
},
{
closed = 1;
nodes = (
(213,1256,l),
(418,1256,ls),
(627,1256,o),
(802,1155,o),
(802,862,cs),
(802,570,o),
(627,454,o),
(418,454,cs),
(213,454,l)
);
},
{
closed = 1;
nodes = (
(939,730,l),
(939,794,l),
(26,794,l),
(26,730,l)
);
},
{
closed = 1;
nodes = (
(939,915,l),
(939,979,l),
(26,979,l),
(26,915,l)
);
}
);
width = 978;
}
);
unicode = 8369;
},
{
glyphname = rupeeIndian;
layers = (
{
layerId = "F9C94342-283B-4575-A5D9-94B9950185BC";
shapes = (
{
closed = 1;
nodes = (
(121,1193,l),
(413,1193,ls),
(591,1193,o),
(707,1106,o),
(707,917,cs),
(707,728,o),
(590,637,o),
(412,637,cs),
(120,637,l),
(120,526,l),
(400,526,ls),
(679,526,o),
(864,661,o),
(864,921,cs),
(864,1167,o),
(691,1320,o),
(478,1320,cs),
(121,1320,l)
);
},
{
closed = 1;
nodes = (
(982,1204,l),
(982,1320,l),
(121,1320,l),
(121,1204,l)
);
},
{
closed = 1;
nodes = (
(984,854,l),
(984,971,l),
(121,971,l),
(121,854,l)
);
},
{
closed = 1;
nodes = (
(656,0,l),
(864,0,l),
(252,601,l),
(120,526,l)
);
}
);
width = 1109;
},
{
layerId = "542E67F7-1B71-4779-8BF1-78BC1C9E1EC0";
shapes = (
{
closed = 1;
nodes = (
(154,1067,l),
(403,1067,ls),
(538,1067,o),
(621,995,o),
(621,843,cs),
(621,691,o),
(534,619,o),
(400,619,cs),
(152,619,l),
(152,405,l),
(326,405,l),
(693,405,o),
(965,512,o),
(965,856,cs),
(965,1112,o),
(797,1320,o),
(557,1320,cs),
(154,1320,l)
);
},
{
closed = 1;
nodes = (
(1107,1093,l),
(1107,1320,l),
(154,1320,l),
(154,1093,l)
);
},
{
closed = 1;
nodes = (
(1107,728,l),
(1107,957,l),
(154,957,l),
(154,728,l)
);
},
{
closed = 1;
nodes = (
(555,0,l),
(992,0,l),
(448,546,l),
(152,405,l)
);
}
);
width = 1234;
},
{
layerId = "CD238245-2B83-4CD3-AFC6-0F2793207444";
shapes = (
{
closed = 1;
nodes = (
(104,1256,l),
(418,1256,ls),
(618,1256,o),
(750,1162,o),
(750,954,cs),
(750,746,o),
(618,646,o),
(418,646,cs),
(104,646,l),
(104,586,l),
(437,586,ls),
(672,586,o),
(814,736,o),
(814,954,cs),
(814,1194,o),
(638,1320,o),
(438,1320,cs),
(104,1320,l)
);
},
{
closed = 1;
nodes = (
(920,1259,l),
(920,1320,l),
(104,1320,l),
(104,1259,l)
);
},
{
closed = 1;
nodes = (
(922,917,l),
(922,978,l),
(104,978,l),
(104,917,l)
);
},
{
closed = 1;
nodes = (
(707,0,l),
(800,0,l),
(154,629,l),
(104,586,l)
);
}
);
width = 1046;
}
);
unicode = 8377;
},
{
glyphname = sterling;
layers = (
{
layerId = "F9C94342-283B-4575-A5D9-94B9950185BC";
shapes = (
{
closed = 1;
nodes = (
(335,511,o),
(363,434,o),
(363,363,cs),
(363,305,o),
(349,262,o),
(339,243,c),
(216,243,o),
(97,121,o),
(91,0,c),
(226,0,l),
(231,34,o),
(288,116,o),
(373,116,cs),
(534,116,o),
(617,-24,o),
(815,-24,cs),
(977,-24,o),
(1071,98,o),
(1098,191,c),
(955,245,l),
(947,198,o),
(899,115,o),
(799,115,cs),
(675,115,o),
(584,222,o),
(485,232,c),
(490,245,o),
(511,305,o),
(511,367,cs),
(511,438,o),
(497,497,o),
(456,603,c),
(435,646,o),
(361,835,o),
(361,950,cs),
(361,1111,o),
(455,1202,o),
(615,1202,cs),
(768,1202,o),
(859,1087,o),
(883,1001,c),
(1026,1075,l),
(989,1191,o),
(851,1346,o),
(609,1346,cs),
(324,1346,o),
(193,1169,o),
(193,957,cs),
(193,814,o),
(269,637,o),
(289,603,c)
);
},
{
closed = 1;
nodes = (
(100,514,l),
(824,514,l),
(824,626,l),
(100,626,l)
);
}
);
width = 1206;
},
{
layerId = "542E67F7-1B71-4779-8BF1-78BC1C9E1EC0";
shapes = (
{
closed = 1;
nodes = (
(298,550,o),
(344,443,o),
(344,389,cs),
(344,350,o),
(338,333,o),
(320,306,c),
(168,306,o),
(46,184,o),
(46,0,c),
(315,0,l),
(326,16,o),
(352,38,o),
(384,38,cs),
(536,38,o),
(624,-24,o),
(824,-24,cs),
(1026,-24,o),
(1138,118,o),
(1165,227,c),
(856,338,l),
(854,333,o),
(830,264,o),
(771,264,cs),
(701,264,o),
(653,286,o),
(635,286,c),
(642,296,o),
(662,352,o),
(662,402,cs),
(662,470,o),
(650,547,o),
(605,650,cs),
(582,701,o),
(536,822,o),
(536,909,cs),
(536,986,o),
(566,1042,o),
(638,1042,cs),
(725,1042,o),
(758,941,o),
(758,864,c),
(1075,1021,l),
(1054,1160,o),
(917,1346,o),
(622,1346,cs),
(326,1346,o),
(158,1165,o),
(158,925,cs),
(158,803,o),
(200,714,o),
(238,650,cs)
);
},
{
closed = 1;
nodes = (
(72,450,l),
(840,450,l),
(840,662,l),
(72,662,l)
);
}
);
width = 1238;
},
{
layerId = "CD238245-2B83-4CD3-AFC6-0F2793207444";
shapes = (
{
closed = 1;
nodes = (
(354,491,o),
(373,429,o),
(373,350,cs),
(373,283,o),
(354,226,o),
(349,211,c),
(240,211,o),
(123,90,o),
(114,0,c),
(181,0,l),
(184,43,o),
(256,155,o),
(368,155,cs),
(533,155,o),
(613,-24,o),
(811,-24,cs),
(952,-24,o),
(1038,88,o),
(1064,173,c),
(1005,198,l),
(994,130,o),
(934,40,o),
(813,40,cs),
(662,40,o),
(550,190,o),
(410,205,c),
(414,219,o),
(435,282,o),
(435,350,cs),
(435,422,o),
(421,472,o),
(381,579,c),
(362,619,o),
(274,842,o),
(274,971,cs),
(274,1173,o),
(400,1282,o),
(603,1282,cs),
(790,1282,o),
(909,1160,o),
(946,1069,c),
(1002,1102,l),
(957,1206,o),
(818,1346,o),
(603,1346,cs),
(323,1346,o),
(210,1171,o),
(210,973,cs),
(210,819,o),
(304,598,o),
(314,579,c)
);
},
{
closed = 1;
nodes = (
(114,546,l),
(816,546,l),
(816,608,l),
(114,608,l)
);
}
);
width = 1190;
}
);
leftKerningGroup = sterling;
rightKerningGroup = sterling;
unicode = 163;
},
{
glyphname = yen;
layers = (
{
anchors = (
{
name = bottom;
position = "{528, 0}";
},
{
name = top;
position = "{528, 1320}";
},
{
name = topleft;
position = "{47, 1320}";
}
);
layerId = "F9C94342-283B-4575-A5D9-94B9950185BC";
shapes = (
{
closed = 1;
nodes = (
(77,512,l),
(980,512,l),
(980,630,l),
(77,630,l)
);
},
{
closed = 1;
nodes = (
(77,260,l),
(980,260,l),
(980,378,l),
(77,378,l)
);
},
{
alignment = -1;
ref = Y;
}
);
width = 1106;
},
{
layerId = "542E67F7-1B71-4779-8BF1-78BC1C9E1EC0";
shapes = (
{
closed = 1;
nodes = (
(83,509,l),
(1115,509,l),
(1115,739,l),
(83,739,l)
);
},
{
closed = 1;
nodes = (
(83,165,l),
(1115,165,l),
(1115,395,l),
(83,395,l)
);
},
{
alignment = -1;
ref = Y;
}
);
width = 1266;
},
{
layerId = "CD238245-2B83-4CD3-AFC6-0F2793207444";
shapes = (
{
closed = 1;
nodes = (
(74,514,l),
(912,514,l),
(912,576,l),
(74,576,l)
);
},
{
closed = 1;
nodes = (
(74,307,l),
(912,307,l),
(912,370,l),
(74,370,l)
);
},
{
alignment = -1;
ref = Y;
}
);
width = 1026;
}
);
leftKerningGroup = yen;
rightKerningGroup = yen;
unicode = 165;
},
{
glyphname = plus;
layers = (
{
layerId = "F9C94342-283B-4575-A5D9-94B9950185BC";
shapes = (
{
closed = 1;
nodes = (
(930,591,l),
(930,736,l),
(594,736,l),
(594,1074,l),
(448,1074,l),
(448,736,l),
(109,736,l),
(109,591,l),
(448,591,l),
(448,253,l),
(594,253,l),
(594,591,l)
);
}
);
width = 1074;
},
{
layerId = "542E67F7-1B71-4779-8BF1-78BC1C9E1EC0";
shapes = (
{
closed = 1;
nodes = (
(925,506,l),
(925,821,l),
(674,821,l),
(674,1074,l),
(357,1074,l),
(357,821,l),
(104,821,l),
(104,506,l),
(357,506,l),
(357,253,l),
(674,253,l),
(674,506,l)
);
}
);
width = 1053;
},
{
layerId = "CD238245-2B83-4CD3-AFC6-0F2793207444";
shapes = (
{
closed = 1;
nodes = (
(933,634,l),
(933,694,l),
(554,694,l),
(554,1074,l),
(493,1074,l),
(493,694,l),
(112,694,l),
(112,634,l),
(493,634,l),
(493,253,l),
(554,253,l),
(554,634,l)
);
}
);
width = 1085;
}
);
leftKerningGroup = plus;
rightKerningGroup = plus;
unicode = 43;
},
{
glyphname = minus;
layers = (
{
layerId = "F9C94342-283B-4575-A5D9-94B9950185BC";
shapes = (
{
closed = 1;
nodes = (
(963,588,l),
(963,734,l),
(23,734,l),
(23,588,l)
);
}
);
width = 1021;
},
{
layerId = "542E67F7-1B71-4779-8BF1-78BC1C9E1EC0";
shapes = (
{
closed = 1;
nodes = (
(944,506,l),
(944,822,l),
(86,822,l),
(86,506,l)
);
}
);
width = 1053;
},
{
layerId = "CD238245-2B83-4CD3-AFC6-0F2793207444";
shapes = (
{
closed = 1;
nodes = (
(973,629,l),
(973,690,l),
(-8,690,l),
(-8,629,l)
);
}
);
width = 1005;
}
);
leftKerningGroup = minus;
rightKerningGroup = minus;
unicode = 8722;
},
{
glyphname = multiply;
layers = (
{
layerId = "F9C94342-283B-4575-A5D9-94B9950185BC";
shapes = (
{
closed = 1;
nodes = (
(864,937,l),
(760,1041,l),
(487,767,l),
(213,1041,l),
(110,938,l),
(383,664,l),
(109,391,l),
(213,287,l),
(488,561,l),
(762,287,l),
(864,390,l),
(589,663,l)
);
}
);
width = 1006;
},
{
layerId = "542E67F7-1B71-4779-8BF1-78BC1C9E1EC0";
shapes = (
{
closed = 1;
nodes = (
(955,880,l),
(731,1102,l),
(514,888,l),
(298,1102,l),
(75,882,l),
(290,664,l),
(75,450,l),
(298,224,l),
(515,442,l),
(734,224,l),
(955,446,l),
(738,662,l)
);
}
);
width = 1053;
},
{
layerId = "CD238245-2B83-4CD3-AFC6-0F2793207444";
shapes = (
{
closed = 1;
nodes = (
(818,966,l),
(774,1010,l),
(474,707,l),
(171,1010,l),
(128,966,l),
(430,664,l),
(126,362,l),
(170,318,l),
(474,621,l),
(776,318,l),
(819,362,l),
(515,664,l)
);
}
);
width = 982;
}
);
leftKerningGroup = multiply;
rightKerningGroup = multiply;
unicode = 215;
},
{
glyphname = divide;
layers = (
{
layerId = "F9C94342-283B-4575-A5D9-94B9950185BC";
shapes = (
{
closed = 1;
nodes = (
(438,1089,o),
(394,1045,o),
(394,989,cs),
(394,937,o),
(438,893,o),
(491,893,cs),
(547,893,o),
(591,937,o),
(591,989,cs),
(591,1044,o),
(547,1089,o),
(491,1089,cs)
);
},
{
closed = 1;
nodes = (
(877,588,l),
(877,734,l),
(110,734,l),
(110,588,l)
);
},
{
closed = 1;
nodes = (
(438,434,o),
(394,390,o),
(394,334,cs),
(394,281,o),
(439,238,o),
(491,238,cs),
(546,238,o),
(591,281,o),
(591,334,cs),
(591,390,o),
(547,434,o),
(491,434,cs)
);
}
);
width = 1021;
},
{
layerId = "542E67F7-1B71-4779-8BF1-78BC1C9E1EC0";
shapes = (
{
closed = 1;
nodes = (
(430,1194,o),
(363,1126,o),
(363,1042,cs),
(363,960,o),
(430,893,o),
(512,893,cs),
(597,893,o),
(664,960,o),
(664,1042,cs),
(664,1126,o),
(597,1194,o),
(512,1194,cs)
);
},
{
closed = 1;
nodes = (
(944,506,l),
(944,822,l),
(86,822,l),
(86,506,l)
);
},
{
closed = 1;
nodes = (
(430,434,o),
(363,366,o),
(363,282,cs),
(363,200,o),
(430,133,o),
(512,133,cs),
(597,133,o),
(664,200,o),
(664,282,cs),
(664,366,o),
(597,434,o),
(512,434,cs)
);
}
);
width = 1053;
},
{
layerId = "CD238245-2B83-4CD3-AFC6-0F2793207444";
shapes = (
{
closed = 1;
nodes = (
(442,1037,o),
(410,1005,o),
(410,963,cs),
(410,925,o),
(442,893,o),
(480,893,cs),
(522,893,o),
(554,925,o),
(554,963,cs),
(554,1003,o),
(522,1037,o),
(480,1037,cs)
);
},
{
closed = 1;
nodes = (
(843,629,l),
(843,690,l),
(122,690,l),
(122,629,l)
);
},
{
closed = 1;
nodes = (
(442,434,o),
(410,402,o),
(410,360,cs),
(410,322,o),
(443,291,o),
(480,291,cs),
(520,291,o),
(554,322,o),
(554,360,cs),
(554,402,o),
(522,434,o),
(480,434,cs)
);
}
);
width = 1005;
}
);
leftKerningGroup = divide;
rightKerningGroup = divide;
unicode = 247;
},
{
glyphname = equal;
layers = (
{
layerId = "F9C94342-283B-4575-A5D9-94B9950185BC";
shapes = (
{
closed = 1;
nodes = (
(877,763,l),
(877,909,l),
(110,909,l),
(110,763,l)
);
},
{
closed = 1;
nodes = (
(877,421,l),
(877,566,l),
(110,566,l),
(110,421,l)
);
}
);
width = 1021;
},
{
layerId = "542E67F7-1B71-4779-8BF1-78BC1C9E1EC0";
shapes = (
{
closed = 1;
nodes = (
(944,710,l),
(944,1027,l),
(86,1027,l),
(86,710,l)
);
},
{
closed = 1;
nodes = (
(944,298,l),
(944,614,l),
(86,614,l),
(86,298,l)
);
}
);
width = 1053;
},
{
layerId = "CD238245-2B83-4CD3-AFC6-0F2793207444";
shapes = (
{
closed = 1;
nodes = (
(843,789,l),
(843,850,l),
(122,850,l),
(122,789,l)
);
},
{
closed = 1;
nodes = (
(843,482,l),
(843,542,l),
(122,542,l),
(122,482,l)
);
}
);
width = 1005;
}
);
leftKerningGroup = equal;
rightKerningGroup = equal;
unicode = 61;
},
{
glyphname = notequal;
layers = (
{
layerId = "F9C94342-283B-4575-A5D9-94B9950185BC";
shapes = (
{
closed = 1;
nodes = (
(851,1176,l),
(728,1176,l),
(113,146,l),
(236,146,l)
);
},
{
alignment = -1;
pos = (16,0);
ref = equal;
}
);
width = 1074;
},
{
layerId = "542E67F7-1B71-4779-8BF1-78BC1C9E1EC0";
shapes = (
{
closed = 1;
nodes = (
(918,1230,l),
(686,1230,l),
(35,91,l),
(267,91,l)
);
},
{
alignment = -1;
pos = (16,0);
ref = equal;
}
);
width = 1053;
},
{
layerId = "CD238245-2B83-4CD3-AFC6-0F2793207444";
shapes = (
{
closed = 1;
nodes = (
(818,1149,l),
(749,1149,l),
(152,173,l),
(221,173,l)
);
},
{
alignment = -1;
pos = (16,0);
ref = equal;
}
);
width = 1085;
}
);
leftKerningGroup = notequal;
rightKerningGroup = notequal;
unicode = 8800;
},
{
glyphname = greater;
layers = (
{
layerId = "F9C94342-283B-4575-A5D9-94B9950185BC";
shapes = (
{
closed = 1;
nodes = (
(933,593,l),
(933,738,l),
(102,1121,l),
(102,963,l),
(764,665,l),
(102,369,l),
(102,212,l)
);
}
);
width = 1078;
},
{
layerId = "542E67F7-1B71-4779-8BF1-78BC1C9E1EC0";
shapes = (
{
closed = 1;
nodes = (
(986,525,l),
(986,806,l),
(82,1171,l),
(82,834,l),
(576,664,l),
(82,498,l),
(82,162,l)
);
}
);
width = 1099;
},
{
layerId = "CD238245-2B83-4CD3-AFC6-0F2793207444";
shapes = (
{
closed = 1;
nodes = (
(907,627,l),
(907,704,l),
(112,1096,l),
(112,1027,l),
(858,666,l),
(112,304,l),
(112,237,l)
);
}
);
width = 1067;
}
);
leftKerningGroup = greater;
rightKerningGroup = greater;
unicode = 62;
},
{
glyphname = asciitilde;
layers = (
{
layerId = "F9C94342-283B-4575-A5D9-94B9950185BC";
shapes = (
{
closed = 1;
nodes = (
(924,790,l),
(895,730,o),
(827,654,o),
(744,654,cs),
(626,654,o),
(555,812,o),
(385,812,cs),
(255,812,o),
(146,693,o),
(99,605,c),
(217,539,l),
(245,598,o),
(313,676,o),
(395,676,cs),
(514,676,o),
(586,517,o),
(753,517,cs),
(882,517,o),
(991,636,o),
(1038,725,c)
);
}
);
width = 1171;
},
{
layerId = "542E67F7-1B71-4779-8BF1-78BC1C9E1EC0";
shapes = (
{
closed = 1;
nodes = (
(845,843,l),
(816,803,o),
(757,752,o),
(701,752,cs),
(629,752,o),
(552,859,o),
(392,859,cs),
(262,859,o),
(133,726,o),
(72,626,c),
(280,488,l),
(309,526,o),
(368,578,o),
(424,578,cs),
(496,578,o),
(579,470,o),
(734,470,cs),
(864,470,o),
(994,603,o),
(1054,704,c)
);
}
);
width = 1150;
},
{
layerId = "CD238245-2B83-4CD3-AFC6-0F2793207444";
shapes = (
{
closed = 1;
nodes = (
(963,763,l),
(934,694,o),
(862,605,o),
(765,605,cs),
(624,605,o),
(557,789,o),
(381,789,cs),
(251,789,o),
(152,677,o),
(112,594,c),
(186,565,l),
(213,634,o),
(285,725,o),
(381,725,cs),
(523,725,o),
(590,541,o),
(762,541,cs),
(891,541,o),
(990,653,o),
(1030,736,c)
);
}
);
width = 1182;
}
);
leftKerningGroup = asciitilde;
rightKerningGroup = asciitilde;
unicode = 126;
},
{
glyphname = logicalnot;
layers = (
{
layerId = "F9C94342-283B-4575-A5D9-94B9950185BC";
shapes = (
{
closed = 1;
nodes = (
(109,531,l),
(109,380,l),
(590,380,l),
(590,161,l),
(741,161,l),
(741,531,l)
);
}
);
width = 893;
},
{
layerId = "542E67F7-1B71-4779-8BF1-78BC1C9E1EC0";
shapes = (
{
closed = 1;
nodes = (
(104,621,l),
(104,288,l),
(637,288,l),
(637,88,l),
(970,88,l),
(970,621,l)
);
}
);
width = 1120;
},
{
layerId = "CD238245-2B83-4CD3-AFC6-0F2793207444";
shapes = (
{
closed = 1;
nodes = (
(112,486,l),
(112,426,l),
(566,426,l),
(566,198,l),
(627,198,l),
(627,486,l)
);
}
);
width = 779;
}
);
unicode = 172;
},
{
glyphname = asciicircum;
layers = (
{
layerId = "F9C94342-283B-4575-A5D9-94B9950185BC";
shapes = (
{
closed = 1;
nodes = (
(463,1344,l),
(360,1344,l),
(39,968,l),
(199,968,l),
(411,1230,l),
(625,968,l),
(783,968,l)
);
}
);
width = 855;
},
{
layerId = "542E67F7-1B71-4779-8BF1-78BC1C9E1EC0";
shapes = (
{
closed = 1;
nodes = (
(494,1344,l),
(317,1344,l),
(-21,968,l),
(302,968,l),
(405,1085,l),
(510,968,l),
(832,968,l)
);
}
);
width = 834;
},
{
layerId = "CD238245-2B83-4CD3-AFC6-0F2793207444";
shapes = (
{
closed = 1;
nodes = (
(448,1344,l),
(381,1344,l),
(69,968,l),
(147,968,l),
(414,1302,l),
(682,968,l),
(758,968,l)
);
}
);
width = 866;
}
);
leftKerningGroup = asciicircum;
rightKerningGroup = asciicircum;
unicode = 94;
},
{
glyphname = micro;
layers = (
{
anchors = (
{
name = bottom;
position = "{494, 0}";
},
{
name = ogonek;
position = "{870, 16}";
},
{
name = top;
position = "{494, 821}";
},
{
name = topright;
position = "{892, 821}";
}
);
layerId = "F9C94342-283B-4575-A5D9-94B9950185BC";
shapes = (
{
closed = 1;
nodes = (
(97,-392,l),
(268,-392,l),
(268,821,l),
(97,821,l)
);
},
{
alignment = -1;
ref = u;
}
);
width = 1023;
},
{
layerId = "542E67F7-1B71-4779-8BF1-78BC1C9E1EC0";
shapes = (
{
closed = 1;
nodes = (
(56,-392,l),
(443,-392,l),
(443,821,l),
(56,821,l)
);
},
{
alignment = -1;
ref = u;
}
);
width = 1146;
},
{
layerId = "CD238245-2B83-4CD3-AFC6-0F2793207444";
shapes = (
{
closed = 1;
nodes = (
(117,-392,l),
(181,-392,l),
(181,821,l),
(117,821,l)
);
},
{
alignment = -1;
ref = u;
}
);
width = 962;
}
);
unicode = 181;
},
{
glyphname = percent;
layers = (
{
layerId = "F9C94342-283B-4575-A5D9-94B9950185BC";
shapes = (
{
closed = 1;
nodes = (
(267,0,l),
(393,0,l),
(1187,1320,l),
(1061,1320,l)
);
},
{
closed = 1;
nodes = (
(80,882,o),
(196,764,o),
(367,764,cs),
(532,764,o),
(651,882,o),
(651,1029,cs),
(651,1179,o),
(526,1295,o),
(367,1295,cs),
(202,1295,o),
(80,1179,o),
(80,1029,cs)
);
},
{
closed = 1;
nodes = (
(207,1124,o),
(274,1188,o),
(365,1188,cs),
(454,1188,o),
(523,1124,o),
(523,1029,cs),
(523,930,o),
(455,872,o),
(365,872,cs),
(270,872,o),
(207,931,o),
(207,1029,cs)
);
},
{
closed = 1;
nodes = (
(803,143,o),
(919,25,o),
(1089,25,cs),
(1255,25,o),
(1374,143,o),
(1374,290,cs),
(1374,441,o),
(1250,556,o),
(1089,556,cs),
(925,556,o),
(803,441,o),
(803,290,cs)
);
},
{
closed = 1;
nodes = (
(930,386,o),
(997,449,o),
(1089,449,cs),
(1177,449,o),
(1246,386,o),
(1246,290,cs),
(1246,192,o),
(1178,133,o),
(1089,133,cs),
(994,133,o),
(930,192,o),
(930,290,cs)
);
}
);
width = 1479;
},
{
layerId = "542E67F7-1B71-4779-8BF1-78BC1C9E1EC0";
shapes = (
{
closed = 1;
nodes = (
(294,0,l),
(542,0,l),
(1390,1320,l),
(1142,1320,l)
);
},
{
closed = 1;
nodes = (
(32,843,o),
(187,680,o),
(424,680,cs),
(661,680,o),
(816,843,o),
(816,1029,cs),
(816,1218,o),
(661,1378,o),
(424,1378,cs),
(187,1378,o),
(32,1218,o),
(32,1029,cs)
);
},
{
closed = 1;
nodes = (
(294,1107,o),
(347,1168,o),
(424,1168,cs),
(501,1168,o),
(550,1107,o),
(550,1029,cs),
(550,950,o),
(501,893,o),
(424,893,cs),
(347,893,o),
(294,950,o),
(294,1029,cs)
);
},
{
closed = 1;
nodes = (
(864,106,o),
(1019,-58,o),
(1256,-58,cs),
(1493,-58,o),
(1648,106,o),
(1648,291,cs),
(1648,480,o),
(1493,640,o),
(1256,640,cs),
(1019,640,o),
(864,480,o),
(864,291,cs)
);
},
{
closed = 1;
nodes = (
(1126,370,o),
(1179,430,o),
(1256,430,cs),
(1333,430,o),
(1382,370,o),
(1382,291,cs),
(1382,213,o),
(1333,155,o),
(1256,155,cs),
(1179,155,o),
(1126,213,o),
(1126,291,cs)
);
}
);
width = 1680;
},
{
layerId = "CD238245-2B83-4CD3-AFC6-0F2793207444";
shapes = (
{
closed = 1;
nodes = (
(253,0,l),
(318,0,l),
(1086,1320,l),
(1021,1320,l)
);
},
{
closed = 1;
nodes = (
(104,901,o),
(200,806,o),
(338,806,cs),
(467,806,o),
(568,901,o),
(568,1029,cs),
(568,1160,o),
(459,1253,o),
(338,1253,cs),
(210,1253,o),
(104,1160,o),
(104,1029,cs)
);
},
{
closed = 1;
nodes = (
(163,1133,o),
(237,1198,o),
(336,1198,cs),
(430,1198,o),
(509,1133,o),
(509,1029,cs),
(509,920,o),
(432,861,o),
(336,861,cs),
(232,861,o),
(163,922,o),
(163,1029,cs)
);
},
{
closed = 1;
nodes = (
(773,162,o),
(869,67,o),
(1006,67,cs),
(1136,67,o),
(1237,162,o),
(1237,290,cs),
(1237,421,o),
(1128,514,o),
(1006,514,cs),
(878,514,o),
(773,421,o),
(773,290,cs)
);
},
{
closed = 1;
nodes = (
(832,394,o),
(906,459,o),
(1005,459,cs),
(1099,459,o),
(1178,394,o),
(1178,290,cs),
(1178,181,o),
(1101,122,o),
(1005,122,cs),
(901,122,o),
(832,182,o),
(832,290,cs)
);
}
);
width = 1379;
}
);
leftKerningGroup = percent;
rightKerningGroup = percent;
unicode = 37;
},
{
glyphname = perthousand;
layers = (
{
layerId = "F9C94342-283B-4575-A5D9-94B9950185BC";
shapes = (
{
closed = 1;
nodes = (
(9,284,l),
(67,204,l),
(1572,1171,l),
(1513,1251,l)
);
},
{
closed = 1;
nodes = (
(155,882,o),
(270,764,o),
(441,764,cs),
(606,764,o),
(725,882,o),
(725,1029,cs),
(725,1179,o),
(601,1295,o),
(441,1295,cs),
(277,1295,o),
(155,1179,o),
(155,1029,cs)
);
},
{
closed = 1;
nodes = (
(281,1124,o),
(348,1188,o),
(440,1188,cs),
(528,1188,o),
(597,1124,o),
(597,1029,cs),
(597,930,o),
(530,872,o),
(440,872,cs),
(345,872,o),
(281,931,o),
(281,1029,cs)
);
},
{
closed = 1;
nodes = (
(575,143,o),
(691,25,o),
(862,25,cs),
(1027,25,o),
(1146,143,o),
(1146,290,cs),
(1146,441,o),
(1022,556,o),
(862,556,cs),
(697,556,o),
(575,441,o),
(575,290,cs)
);
},
{
closed = 1;
nodes = (
(702,386,o),
(769,449,o),
(860,449,cs),
(949,449,o),
(1018,386,o),
(1018,290,cs),
(1018,192,o),
(950,133,o),
(860,133,cs),
(765,133,o),
(702,192,o),
(702,290,cs)
);
},
{
closed = 1;
nodes = (
(1243,143,o),
(1359,25,o),
(1530,25,cs),
(1695,25,o),
(1814,143,o),
(1814,290,cs),
(1814,441,o),
(1689,556,o),
(1530,556,cs),
(1365,556,o),
(1243,441,o),
(1243,290,cs)
);
},
{
closed = 1;
nodes = (
(1370,386,o),
(1437,449,o),
(1528,449,cs),
(1617,449,o),
(1686,386,o),
(1686,290,cs),
(1686,192,o),
(1618,133,o),
(1528,133,cs),
(1433,133,o),
(1370,192,o),
(1370,290,cs)
);
}
);
width = 1879;
},
{
layerId = "542E67F7-1B71-4779-8BF1-78BC1C9E1EC0";
shapes = (
{
closed = 1;
nodes = (
(-6,259,l),
(109,99,l),
(1736,1098,l),
(1621,1258,l)
);
},
{
closed = 1;
nodes = (
(32,843,o),
(187,680,o),
(424,680,cs),
(661,680,o),
(816,843,o),
(816,1029,cs),
(816,1218,o),
(661,1378,o),
(424,1378,cs),
(187,1378,o),
(32,1218,o),
(32,1029,cs)
);
},
{
closed = 1;
nodes = (
(294,1107,o),
(347,1168,o),
(424,1168,cs),
(501,1168,o),
(550,1107,o),
(550,1029,cs),
(550,950,o),
(501,893,o),
(424,893,cs),
(347,893,o),
(294,950,o),
(294,1029,cs)
);
},
{
closed = 1;
nodes = (
(816,106,o),
(971,-58,o),
(1208,-58,cs),
(1445,-58,o),
(1600,106,o),
(1600,291,cs),
(1600,480,o),
(1445,640,o),
(1208,640,cs),
(971,640,o),
(816,480,o),
(816,291,cs)
);
},
{
closed = 1;
nodes = (
(1078,370,o),
(1131,430,o),
(1208,430,cs),
(1285,430,o),
(1334,370,o),
(1334,291,cs),
(1334,213,o),
(1285,155,o),
(1208,155,cs),
(1131,155,o),
(1078,213,o),
(1078,291,cs)
);
},
{
closed = 1;
nodes = (
(1648,106,o),
(1803,-58,o),
(2040,-58,cs),
(2277,-58,o),
(2432,106,o),
(2432,291,cs),
(2432,480,o),
(2277,640,o),
(2040,640,cs),
(1803,640,o),
(1648,480,o),
(1648,291,cs)
);
},
{
closed = 1;
nodes = (
(1910,370,o),
(1963,430,o),
(2040,430,cs),
(2117,430,o),
(2166,370,o),
(2166,291,cs),
(2166,213,o),
(2117,155,o),
(2040,155,cs),
(1963,155,o),
(1910,213,o),
(1910,291,cs)
);
}
);
width = 2464;
},
{
layerId = "CD238245-2B83-4CD3-AFC6-0F2793207444";
shapes = (
{
closed = 1;
nodes = (
(16,296,l),
(46,256,l),
(1490,1208,l),
(1459,1248,l)
);
},
{
closed = 1;
nodes = (
(216,901,o),
(312,806,o),
(450,806,cs),
(579,806,o),
(680,901,o),
(680,1029,cs),
(680,1160,o),
(571,1253,o),
(450,1253,cs),
(322,1253,o),
(216,1160,o),
(216,1029,cs)
);
},
{
closed = 1;
nodes = (
(275,1133,o),
(349,1198,o),
(448,1198,cs),
(542,1198,o),
(621,1133,o),
(621,1029,cs),
(621,920,o),
(544,861,o),
(448,861,cs),
(344,861,o),
(275,922,o),
(275,1029,cs)
);
},
{
closed = 1;
nodes = (
(454,162,o),
(550,67,o),
(688,67,cs),
(818,67,o),
(918,162,o),
(918,290,cs),
(918,421,o),
(810,514,o),
(688,514,cs),
(560,514,o),
(454,421,o),
(454,290,cs)
);
},
{
closed = 1;
nodes = (
(514,394,o),
(587,459,o),
(686,459,cs),
(781,459,o),
(859,394,o),
(859,290,cs),
(859,181,o),
(782,122,o),
(686,122,cs),
(582,122,o),
(514,182,o),
(514,290,cs)
);
},
{
closed = 1;
nodes = (
(1040,162,o),
(1136,67,o),
(1274,67,cs),
(1403,67,o),
(1504,162,o),
(1504,290,cs),
(1504,421,o),
(1395,514,o),
(1274,514,cs),
(1146,514,o),
(1040,421,o),
(1040,290,cs)
);
},
{
closed = 1;
nodes = (
(1099,394,o),
(1173,459,o),
(1272,459,cs),
(1366,459,o),
(1445,394,o),
(1445,290,cs),
(1445,181,o),
(1368,122,o),
(1272,122,cs),
(1168,122,o),
(1099,182,o),
(1099,290,cs)
);
}
);
width = 1586;
}
);
leftKerningGroup = percent;
rightKerningGroup = percent;
unicode = 8240;
},
